<mxfile host="app.diagrams.net" agent="Mozilla/5.0 (Windows NT 10.0; Win64; x64) AppleWebKit/537.36 (KHTML, like Gecko) Chrome/131.0.0.0 Safari/537.36" version="26.0.3">
  <diagram name="Page-1" id="RATpk-2KJ7baJ4EYZth5">
    <mxGraphModel dx="5185" dy="2860" grid="1" gridSize="10" guides="1" tooltips="1" connect="1" arrows="1" fold="1" page="1" pageScale="1" pageWidth="827" pageHeight="1169" math="0" shadow="0">
      <root>
        <mxCell id="0" />
        <mxCell id="1" parent="0" />
        <mxCell id="6e5MkQeYMWrhU2s1_YXG-395" value="show error_message" style="html=1;verticalAlign=bottom;endArrow=open;dashed=1;endSize=8;curved=0;rounded=0;" parent="1" edge="1">
          <mxGeometry relative="1" as="geometry">
            <mxPoint x="1164.78" y="3214.86" as="sourcePoint" />
            <mxPoint x="1010.2722222222221" y="3214.86" as="targetPoint" />
          </mxGeometry>
        </mxCell>
        <mxCell id="6e5MkQeYMWrhU2s1_YXG-463" value=":WebApp" style="shape=umlLifeline;perimeter=lifelinePerimeter;whiteSpace=wrap;html=1;container=1;dropTarget=0;collapsible=0;recursiveResize=0;outlineConnect=0;portConstraint=eastwest;newEdgeStyle={&quot;curved&quot;:0,&quot;rounded&quot;:0};" parent="1" vertex="1">
          <mxGeometry x="960.27" y="2970" width="100" height="500" as="geometry" />
        </mxCell>
        <mxCell id="6e5MkQeYMWrhU2s1_YXG-470" value=":Web Server" style="shape=umlLifeline;perimeter=lifelinePerimeter;whiteSpace=wrap;html=1;container=1;dropTarget=0;collapsible=0;recursiveResize=0;outlineConnect=0;portConstraint=eastwest;newEdgeStyle={&quot;curved&quot;:0,&quot;rounded&quot;:0};" parent="1" vertex="1">
          <mxGeometry x="1120" y="2970" width="100" height="500" as="geometry" />
        </mxCell>
        <mxCell id="6e5MkQeYMWrhU2s1_YXG-373" value="" style="html=1;points=[[0,0,0,0,5],[0,1,0,0,-5],[1,0,0,0,5],[1,1,0,0,-5]];perimeter=orthogonalPerimeter;outlineConnect=0;targetShapes=umlLifeline;portConstraint=eastwest;newEdgeStyle={&quot;curved&quot;:0,&quot;rounded&quot;:0};" parent="6e5MkQeYMWrhU2s1_YXG-470" vertex="1">
          <mxGeometry x="45" y="60" width="10" height="47.88" as="geometry" />
        </mxCell>
        <mxCell id="6e5MkQeYMWrhU2s1_YXG-379" value="" style="html=1;points=[[0,0,0,0,5],[0,1,0,0,-5],[1,0,0,0,5],[1,1,0,0,-5]];perimeter=orthogonalPerimeter;outlineConnect=0;targetShapes=umlLifeline;portConstraint=eastwest;newEdgeStyle={&quot;curved&quot;:0,&quot;rounded&quot;:0};" parent="6e5MkQeYMWrhU2s1_YXG-470" vertex="1">
          <mxGeometry x="45" y="137.88" width="10" height="222.12" as="geometry" />
        </mxCell>
        <mxCell id="6e5MkQeYMWrhU2s1_YXG-372" value="" style="endArrow=none;dashed=1;html=1;rounded=0;" parent="6e5MkQeYMWrhU2s1_YXG-470" source="6e5MkQeYMWrhU2s1_YXG-379" target="6e5MkQeYMWrhU2s1_YXG-373" edge="1">
          <mxGeometry width="50" height="50" relative="1" as="geometry">
            <mxPoint x="49.409999999999854" y="367.8800000000001" as="sourcePoint" />
            <mxPoint x="49" y="57.88000000000011" as="targetPoint" />
          </mxGeometry>
        </mxCell>
        <mxCell id="6e5MkQeYMWrhU2s1_YXG-406" value="" style="html=1;points=[[0,0,0,0,5],[0,1,0,0,-5],[1,0,0,0,5],[1,1,0,0,-5]];perimeter=orthogonalPerimeter;outlineConnect=0;targetShapes=umlLifeline;portConstraint=eastwest;newEdgeStyle={&quot;curved&quot;:0,&quot;rounded&quot;:0};" parent="6e5MkQeYMWrhU2s1_YXG-470" vertex="1">
          <mxGeometry x="45" y="400" width="10" height="30" as="geometry" />
        </mxCell>
        <mxCell id="6e5MkQeYMWrhU2s1_YXG-479" value="" style="html=1;points=[[0,0,0,0,5],[0,1,0,0,-5],[1,0,0,0,5],[1,1,0,0,-5]];perimeter=orthogonalPerimeter;outlineConnect=0;targetShapes=umlLifeline;portConstraint=eastwest;newEdgeStyle={&quot;curved&quot;:0,&quot;rounded&quot;:0};" parent="6e5MkQeYMWrhU2s1_YXG-470" vertex="1">
          <mxGeometry x="45" y="440" width="10" height="30" as="geometry" />
        </mxCell>
        <mxCell id="6e5MkQeYMWrhU2s1_YXG-452" value=":WebApp" style="shape=umlLifeline;perimeter=lifelinePerimeter;whiteSpace=wrap;html=1;container=1;dropTarget=0;collapsible=0;recursiveResize=0;outlineConnect=0;portConstraint=eastwest;newEdgeStyle={&quot;curved&quot;:0,&quot;rounded&quot;:0};" parent="1" vertex="1">
          <mxGeometry x="40" y="3141.44" width="100" height="348.56" as="geometry" />
        </mxCell>
        <mxCell id="6e5MkQeYMWrhU2s1_YXG-460" value=":DBMS" style="shape=umlLifeline;perimeter=lifelinePerimeter;whiteSpace=wrap;html=1;container=1;dropTarget=0;collapsible=0;recursiveResize=0;outlineConnect=0;portConstraint=eastwest;newEdgeStyle={&quot;curved&quot;:0,&quot;rounded&quot;:0};" parent="1" vertex="1">
          <mxGeometry x="600" y="3141.44" width="100" height="348.56" as="geometry" />
        </mxCell>
        <mxCell id="6e5MkQeYMWrhU2s1_YXG-326" value="" style="html=1;points=[[0,0,0,0,5],[0,1,0,0,-5],[1,0,0,0,5],[1,1,0,0,-5]];perimeter=orthogonalPerimeter;outlineConnect=0;targetShapes=umlLifeline;portConstraint=eastwest;newEdgeStyle={&quot;curved&quot;:0,&quot;rounded&quot;:0};" parent="6e5MkQeYMWrhU2s1_YXG-460" vertex="1">
          <mxGeometry x="45" y="148.55999999999995" width="10" height="150" as="geometry" />
        </mxCell>
        <mxCell id="6e5MkQeYMWrhU2s1_YXG-458" value=":Feedback Manager" style="shape=umlLifeline;perimeter=lifelinePerimeter;whiteSpace=wrap;html=1;container=1;dropTarget=0;collapsible=0;recursiveResize=0;outlineConnect=0;portConstraint=eastwest;newEdgeStyle={&quot;curved&quot;:0,&quot;rounded&quot;:0};" parent="1" vertex="1">
          <mxGeometry x="460" y="3141.44" width="100" height="348.56" as="geometry" />
        </mxCell>
        <mxCell id="6e5MkQeYMWrhU2s1_YXG-322" value="" style="html=1;points=[[0,0,0,0,5],[0,1,0,0,-5],[1,0,0,0,5],[1,1,0,0,-5]];perimeter=orthogonalPerimeter;outlineConnect=0;targetShapes=umlLifeline;portConstraint=eastwest;newEdgeStyle={&quot;curved&quot;:0,&quot;rounded&quot;:0};" parent="6e5MkQeYMWrhU2s1_YXG-458" vertex="1">
          <mxGeometry x="45" y="138.56" width="10" height="181.44" as="geometry" />
        </mxCell>
        <mxCell id="6e5MkQeYMWrhU2s1_YXG-456" value=":API Server" style="shape=umlLifeline;perimeter=lifelinePerimeter;whiteSpace=wrap;html=1;container=1;dropTarget=0;collapsible=0;recursiveResize=0;outlineConnect=0;portConstraint=eastwest;newEdgeStyle={&quot;curved&quot;:0,&quot;rounded&quot;:0};" parent="1" vertex="1">
          <mxGeometry x="320" y="3141.44" width="100" height="348.56" as="geometry" />
        </mxCell>
        <mxCell id="6e5MkQeYMWrhU2s1_YXG-318" value="" style="html=1;points=[[0,0,0,0,5],[0,1,0,0,-5],[1,0,0,0,5],[1,1,0,0,-5]];perimeter=orthogonalPerimeter;outlineConnect=0;targetShapes=umlLifeline;portConstraint=eastwest;newEdgeStyle={&quot;curved&quot;:0,&quot;rounded&quot;:0};" parent="6e5MkQeYMWrhU2s1_YXG-456" vertex="1">
          <mxGeometry x="45" y="128.56" width="10" height="201.44" as="geometry" />
        </mxCell>
        <mxCell id="6e5MkQeYMWrhU2s1_YXG-453" value=":Web Server" style="shape=umlLifeline;perimeter=lifelinePerimeter;whiteSpace=wrap;html=1;container=1;dropTarget=0;collapsible=0;recursiveResize=0;outlineConnect=0;portConstraint=eastwest;newEdgeStyle={&quot;curved&quot;:0,&quot;rounded&quot;:0};" parent="1" vertex="1">
          <mxGeometry x="180" y="3141.44" width="100" height="348.56" as="geometry" />
        </mxCell>
        <mxCell id="6e5MkQeYMWrhU2s1_YXG-308" value="" style="html=1;points=[[0,0,0,0,5],[0,1,0,0,-5],[1,0,0,0,5],[1,1,0,0,-5]];perimeter=orthogonalPerimeter;outlineConnect=0;targetShapes=umlLifeline;portConstraint=eastwest;newEdgeStyle={&quot;curved&quot;:0,&quot;rounded&quot;:0};" parent="6e5MkQeYMWrhU2s1_YXG-453" vertex="1">
          <mxGeometry x="45" y="58.56" width="10" height="41.44" as="geometry" />
        </mxCell>
        <mxCell id="6e5MkQeYMWrhU2s1_YXG-314" value="" style="html=1;points=[[0,0,0,0,5],[0,1,0,0,-5],[1,0,0,0,5],[1,1,0,0,-5]];perimeter=orthogonalPerimeter;outlineConnect=0;targetShapes=umlLifeline;portConstraint=eastwest;newEdgeStyle={&quot;curved&quot;:0,&quot;rounded&quot;:0};" parent="1" vertex="1">
          <mxGeometry x="225" y="3260" width="10" height="220" as="geometry" />
        </mxCell>
        <mxCell id="diQuAST23YdK09CmSaxM-202" value="student&#39;s final decision after positive decision by the company" style="shape=umlFrame;whiteSpace=wrap;html=1;pointerEvents=0;width=350;height=20;" parent="1" vertex="1">
          <mxGeometry x="49.73000000000002" y="1480" width="800" height="450" as="geometry" />
        </mxCell>
        <mxCell id="diQuAST23YdK09CmSaxM-222" value=":WebApp" style="shape=umlLifeline;perimeter=lifelinePerimeter;whiteSpace=wrap;html=1;container=1;dropTarget=0;collapsible=0;recursiveResize=0;outlineConnect=0;portConstraint=eastwest;newEdgeStyle={&quot;curved&quot;:0,&quot;rounded&quot;:0};" parent="1" vertex="1">
          <mxGeometry x="79.46000000000004" y="1520" width="100" height="400" as="geometry" />
        </mxCell>
        <mxCell id="diQuAST23YdK09CmSaxM-223" value=":Web Server" style="shape=umlLifeline;perimeter=lifelinePerimeter;whiteSpace=wrap;html=1;container=1;dropTarget=0;collapsible=0;recursiveResize=0;outlineConnect=0;portConstraint=eastwest;newEdgeStyle={&quot;curved&quot;:0,&quot;rounded&quot;:0};" parent="1" vertex="1">
          <mxGeometry x="239.73000000000002" y="1520" width="100" height="400" as="geometry" />
        </mxCell>
        <mxCell id="diQuAST23YdK09CmSaxM-225" value=":API Server" style="shape=umlLifeline;perimeter=lifelinePerimeter;whiteSpace=wrap;html=1;container=1;dropTarget=0;collapsible=0;recursiveResize=0;outlineConnect=0;portConstraint=eastwest;newEdgeStyle={&quot;curved&quot;:0,&quot;rounded&quot;:0};" parent="1" vertex="1">
          <mxGeometry x="399.73" y="1520" width="100" height="400" as="geometry" />
        </mxCell>
        <mxCell id="diQuAST23YdK09CmSaxM-227" value=":Internship Manager" style="shape=umlLifeline;perimeter=lifelinePerimeter;whiteSpace=wrap;html=1;container=1;dropTarget=0;collapsible=0;recursiveResize=0;outlineConnect=0;portConstraint=eastwest;newEdgeStyle={&quot;curved&quot;:0,&quot;rounded&quot;:0};" parent="1" vertex="1">
          <mxGeometry x="559.73" y="1520" width="100" height="400" as="geometry" />
        </mxCell>
        <mxCell id="diQuAST23YdK09CmSaxM-229" value=":DBMS" style="shape=umlLifeline;perimeter=lifelinePerimeter;whiteSpace=wrap;html=1;container=1;dropTarget=0;collapsible=0;recursiveResize=0;outlineConnect=0;portConstraint=eastwest;newEdgeStyle={&quot;curved&quot;:0,&quot;rounded&quot;:0};" parent="1" vertex="1">
          <mxGeometry x="719.73" y="1520" width="100" height="400" as="geometry" />
        </mxCell>
        <mxCell id="t2GSq4_PJtF_J32GQftA-1" value=":WebApp" style="shape=umlLifeline;perimeter=lifelinePerimeter;whiteSpace=wrap;html=1;container=1;dropTarget=0;collapsible=0;recursiveResize=0;outlineConnect=0;portConstraint=eastwest;newEdgeStyle={&quot;curved&quot;:0,&quot;rounded&quot;:0};" parent="1" vertex="1">
          <mxGeometry x="80" y="160" width="100" height="660" as="geometry" />
        </mxCell>
        <mxCell id="t2GSq4_PJtF_J32GQftA-2" value=":Web Server" style="shape=umlLifeline;perimeter=lifelinePerimeter;whiteSpace=wrap;html=1;container=1;dropTarget=0;collapsible=0;recursiveResize=0;outlineConnect=0;portConstraint=eastwest;newEdgeStyle={&quot;curved&quot;:0,&quot;rounded&quot;:0};" parent="1" vertex="1">
          <mxGeometry x="240" y="160" width="100" height="660" as="geometry" />
        </mxCell>
        <mxCell id="t2GSq4_PJtF_J32GQftA-22" value="" style="html=1;points=[[0,0,0,0,5],[0,1,0,0,-5],[1,0,0,0,5],[1,1,0,0,-5]];perimeter=orthogonalPerimeter;outlineConnect=0;targetShapes=umlLifeline;portConstraint=eastwest;newEdgeStyle={&quot;curved&quot;:0,&quot;rounded&quot;:0};" parent="t2GSq4_PJtF_J32GQftA-2" vertex="1">
          <mxGeometry x="45" y="60" width="10" height="50" as="geometry" />
        </mxCell>
        <mxCell id="t2GSq4_PJtF_J32GQftA-24" value="profilePage" style="html=1;verticalAlign=bottom;endArrow=open;dashed=1;endSize=8;curved=0;rounded=0;exitX=0;exitY=1;exitDx=0;exitDy=-5;" parent="t2GSq4_PJtF_J32GQftA-2" edge="1">
          <mxGeometry relative="1" as="geometry">
            <mxPoint x="-109.89999999999998" y="100" as="targetPoint" />
            <mxPoint x="45" y="100" as="sourcePoint" />
          </mxGeometry>
        </mxCell>
        <mxCell id="t2GSq4_PJtF_J32GQftA-25" value="" style="html=1;points=[[0,0,0,0,5],[0,1,0,0,-5],[1,0,0,0,5],[1,1,0,0,-5]];perimeter=orthogonalPerimeter;outlineConnect=0;targetShapes=umlLifeline;portConstraint=eastwest;newEdgeStyle={&quot;curved&quot;:0,&quot;rounded&quot;:0};" parent="t2GSq4_PJtF_J32GQftA-2" vertex="1">
          <mxGeometry x="45" y="150" width="10" height="210" as="geometry" />
        </mxCell>
        <mxCell id="t2GSq4_PJtF_J32GQftA-3" value=":API Server" style="shape=umlLifeline;perimeter=lifelinePerimeter;whiteSpace=wrap;html=1;container=1;dropTarget=0;collapsible=0;recursiveResize=0;outlineConnect=0;portConstraint=eastwest;newEdgeStyle={&quot;curved&quot;:0,&quot;rounded&quot;:0};" parent="1" vertex="1">
          <mxGeometry x="399.73" y="160" width="100" height="660" as="geometry" />
        </mxCell>
        <mxCell id="t2GSq4_PJtF_J32GQftA-28" value="" style="html=1;points=[[0,0,0,0,5],[0,1,0,0,-5],[1,0,0,0,5],[1,1,0,0,-5]];perimeter=orthogonalPerimeter;outlineConnect=0;targetShapes=umlLifeline;portConstraint=eastwest;newEdgeStyle={&quot;curved&quot;:0,&quot;rounded&quot;:0};" parent="t2GSq4_PJtF_J32GQftA-3" vertex="1">
          <mxGeometry x="45" y="160" width="10" height="190" as="geometry" />
        </mxCell>
        <mxCell id="t2GSq4_PJtF_J32GQftA-4" value=":Profile Manager" style="shape=umlLifeline;perimeter=lifelinePerimeter;whiteSpace=wrap;html=1;container=1;dropTarget=0;collapsible=0;recursiveResize=0;outlineConnect=0;portConstraint=eastwest;newEdgeStyle={&quot;curved&quot;:0,&quot;rounded&quot;:0};" parent="1" vertex="1">
          <mxGeometry x="560" y="160" width="100" height="660" as="geometry" />
        </mxCell>
        <mxCell id="t2GSq4_PJtF_J32GQftA-31" value="" style="html=1;points=[[0,0,0,0,5],[0,1,0,0,-5],[1,0,0,0,5],[1,1,0,0,-5]];perimeter=orthogonalPerimeter;outlineConnect=0;targetShapes=umlLifeline;portConstraint=eastwest;newEdgeStyle={&quot;curved&quot;:0,&quot;rounded&quot;:0};" parent="t2GSq4_PJtF_J32GQftA-4" vertex="1">
          <mxGeometry x="45" y="170" width="10" height="170" as="geometry" />
        </mxCell>
        <mxCell id="t2GSq4_PJtF_J32GQftA-23" value="getProfilePage()" style="html=1;verticalAlign=bottom;endArrow=block;curved=0;rounded=0;entryX=0;entryY=0;entryDx=0;entryDy=5;" parent="1" edge="1">
          <mxGeometry relative="1" as="geometry">
            <mxPoint x="130.10000000000002" y="230" as="sourcePoint" />
            <mxPoint x="285" y="230" as="targetPoint" />
          </mxGeometry>
        </mxCell>
        <mxCell id="t2GSq4_PJtF_J32GQftA-26" value="updateCV(cv)" style="html=1;verticalAlign=bottom;endArrow=block;curved=0;rounded=0;entryX=0;entryY=0;entryDx=0;entryDy=5;" parent="1" edge="1">
          <mxGeometry relative="1" as="geometry">
            <mxPoint x="130.27011494252883" y="320" as="sourcePoint" />
            <mxPoint x="285" y="320" as="targetPoint" />
          </mxGeometry>
        </mxCell>
        <mxCell id="t2GSq4_PJtF_J32GQftA-27" value="displaySuccessMessage" style="html=1;verticalAlign=bottom;endArrow=open;dashed=1;endSize=8;curved=0;rounded=0;exitX=0;exitY=1;exitDx=0;exitDy=-5;" parent="1" edge="1">
          <mxGeometry relative="1" as="geometry">
            <mxPoint x="130.00011494252882" y="450" as="targetPoint" />
            <mxPoint x="284.73" y="450" as="sourcePoint" />
          </mxGeometry>
        </mxCell>
        <mxCell id="t2GSq4_PJtF_J32GQftA-30" value="success" style="html=1;verticalAlign=bottom;endArrow=open;dashed=1;endSize=8;curved=0;rounded=0;exitX=0;exitY=1;exitDx=0;exitDy=-5;" parent="1" edge="1">
          <mxGeometry relative="1" as="geometry">
            <mxPoint x="294.73" y="440" as="targetPoint" />
            <mxPoint x="444.73" y="440" as="sourcePoint" />
          </mxGeometry>
        </mxCell>
        <mxCell id="t2GSq4_PJtF_J32GQftA-29" value="updateCV(cv)" style="html=1;verticalAlign=bottom;endArrow=block;curved=0;rounded=0;entryX=0;entryY=0;entryDx=0;entryDy=5;" parent="1" edge="1">
          <mxGeometry x="-0.0011" relative="1" as="geometry">
            <mxPoint x="295" y="330" as="sourcePoint" />
            <mxPoint x="445" y="330" as="targetPoint" />
            <mxPoint as="offset" />
          </mxGeometry>
        </mxCell>
        <mxCell id="t2GSq4_PJtF_J32GQftA-32" value="updateCV(cv)" style="html=1;verticalAlign=bottom;endArrow=block;curved=0;rounded=0;entryX=0;entryY=0;entryDx=0;entryDy=5;" parent="1" edge="1">
          <mxGeometry relative="1" as="geometry">
            <mxPoint x="455" y="339.89" as="sourcePoint" />
            <mxPoint x="605" y="339.89" as="targetPoint" />
          </mxGeometry>
        </mxCell>
        <mxCell id="t2GSq4_PJtF_J32GQftA-33" value="success" style="html=1;verticalAlign=bottom;endArrow=open;dashed=1;endSize=8;curved=0;rounded=0;exitX=0;exitY=1;exitDx=0;exitDy=-5;exitPerimeter=0;" parent="1" edge="1">
          <mxGeometry relative="1" as="geometry">
            <mxPoint x="454.73" y="430" as="targetPoint" />
            <mxPoint x="604.73" y="430" as="sourcePoint" />
          </mxGeometry>
        </mxCell>
        <mxCell id="t2GSq4_PJtF_J32GQftA-43" value=":DBMS" style="shape=umlLifeline;perimeter=lifelinePerimeter;whiteSpace=wrap;html=1;container=1;dropTarget=0;collapsible=0;recursiveResize=0;outlineConnect=0;portConstraint=eastwest;newEdgeStyle={&quot;curved&quot;:0,&quot;rounded&quot;:0};" parent="1" vertex="1">
          <mxGeometry x="720" y="160" width="100" height="660" as="geometry" />
        </mxCell>
        <mxCell id="diQuAST23YdK09CmSaxM-2" value="" style="html=1;points=[[0,0,0,0,5],[0,1,0,0,-5],[1,0,0,0,5],[1,1,0,0,-5]];perimeter=orthogonalPerimeter;outlineConnect=0;targetShapes=umlLifeline;portConstraint=eastwest;newEdgeStyle={&quot;curved&quot;:0,&quot;rounded&quot;:0};" parent="t2GSq4_PJtF_J32GQftA-43" vertex="1">
          <mxGeometry x="45" y="180" width="10" height="50" as="geometry" />
        </mxCell>
        <mxCell id="diQuAST23YdK09CmSaxM-3" value="updateCV(cv)" style="html=1;verticalAlign=bottom;endArrow=block;curved=0;rounded=0;entryX=0;entryY=0;entryDx=0;entryDy=5;" parent="1" edge="1">
          <mxGeometry relative="1" as="geometry">
            <mxPoint x="614.73" y="350" as="sourcePoint" />
            <mxPoint x="765" y="350" as="targetPoint" />
          </mxGeometry>
        </mxCell>
        <mxCell id="diQuAST23YdK09CmSaxM-4" value="ACK" style="html=1;verticalAlign=bottom;endArrow=open;dashed=1;endSize=8;curved=0;rounded=0;exitX=0;exitY=1;exitDx=0;exitDy=-5;" parent="1" edge="1">
          <mxGeometry relative="1" as="geometry">
            <mxPoint x="614.73" y="380" as="targetPoint" />
            <mxPoint x="765" y="380" as="sourcePoint" />
          </mxGeometry>
        </mxCell>
        <mxCell id="diQuAST23YdK09CmSaxM-6" value="&lt;font style=&quot;font-size: 9px;&quot;&gt;CV update&lt;/font&gt;" style="shape=umlFrame;whiteSpace=wrap;html=1;pointerEvents=0;width=70;height=20;" parent="1" vertex="1">
          <mxGeometry x="40" y="280" width="780" height="250" as="geometry" />
        </mxCell>
        <mxCell id="diQuAST23YdK09CmSaxM-9" value="" style="line;strokeWidth=1;fillColor=none;align=left;verticalAlign=middle;spacingTop=-1;spacingLeft=3;spacingRight=3;rotatable=0;labelPosition=right;points=[];portConstraint=eastwest;strokeColor=inherit;" parent="1" vertex="1">
          <mxGeometry x="40" y="400" width="780" height="8" as="geometry" />
        </mxCell>
        <mxCell id="diQuAST23YdK09CmSaxM-11" value="error" style="html=1;verticalAlign=bottom;endArrow=open;dashed=1;endSize=8;curved=0;rounded=0;exitX=0;exitY=1;exitDx=0;exitDy=-5;exitPerimeter=0;" parent="1" edge="1">
          <mxGeometry relative="1" as="geometry">
            <mxPoint x="454.73" y="490" as="targetPoint" />
            <mxPoint x="604.73" y="490" as="sourcePoint" />
          </mxGeometry>
        </mxCell>
        <mxCell id="diQuAST23YdK09CmSaxM-12" value="error" style="html=1;verticalAlign=bottom;endArrow=open;dashed=1;endSize=8;curved=0;rounded=0;exitX=0;exitY=1;exitDx=0;exitDy=-5;" parent="1" edge="1">
          <mxGeometry relative="1" as="geometry">
            <mxPoint x="294.73" y="500" as="targetPoint" />
            <mxPoint x="444.73" y="500" as="sourcePoint" />
          </mxGeometry>
        </mxCell>
        <mxCell id="diQuAST23YdK09CmSaxM-13" value="displayErrorMessage" style="html=1;verticalAlign=bottom;endArrow=open;dashed=1;endSize=8;curved=0;rounded=0;exitX=0;exitY=1;exitDx=0;exitDy=-5;" parent="1" edge="1">
          <mxGeometry relative="1" as="geometry">
            <mxPoint x="130.00011494252882" y="510" as="targetPoint" />
            <mxPoint x="284.73" y="510" as="sourcePoint" />
          </mxGeometry>
        </mxCell>
        <mxCell id="diQuAST23YdK09CmSaxM-14" value="" style="line;strokeWidth=1;fillColor=none;align=left;verticalAlign=middle;spacingTop=-1;spacingLeft=3;spacingRight=3;rotatable=0;labelPosition=right;points=[];portConstraint=eastwest;strokeColor=inherit;" parent="1" vertex="1">
          <mxGeometry x="40" y="460" width="780" height="8" as="geometry" />
        </mxCell>
        <mxCell id="diQuAST23YdK09CmSaxM-16" value="correct CV" style="text;html=1;align=center;verticalAlign=middle;whiteSpace=wrap;rounded=0;" parent="1" vertex="1">
          <mxGeometry x="40" y="400" width="70" height="30" as="geometry" />
        </mxCell>
        <mxCell id="diQuAST23YdK09CmSaxM-17" value="invalid CV" style="text;html=1;align=center;verticalAlign=middle;whiteSpace=wrap;rounded=0;" parent="1" vertex="1">
          <mxGeometry x="40" y="460" width="70" height="30" as="geometry" />
        </mxCell>
        <mxCell id="diQuAST23YdK09CmSaxM-18" value="" style="html=1;points=[[0,0,0,0,5],[0,1,0,0,-5],[1,0,0,0,5],[1,1,0,0,-5]];perimeter=orthogonalPerimeter;outlineConnect=0;targetShapes=umlLifeline;portConstraint=eastwest;newEdgeStyle={&quot;curved&quot;:0,&quot;rounded&quot;:0};" parent="1" vertex="1">
          <mxGeometry x="285" y="580" width="10" height="210" as="geometry" />
        </mxCell>
        <mxCell id="diQuAST23YdK09CmSaxM-19" value="" style="html=1;points=[[0,0,0,0,5],[0,1,0,0,-5],[1,0,0,0,5],[1,1,0,0,-5]];perimeter=orthogonalPerimeter;outlineConnect=0;targetShapes=umlLifeline;portConstraint=eastwest;newEdgeStyle={&quot;curved&quot;:0,&quot;rounded&quot;:0};" parent="1" vertex="1">
          <mxGeometry x="444.73" y="590" width="10" height="190" as="geometry" />
        </mxCell>
        <mxCell id="diQuAST23YdK09CmSaxM-20" value="" style="html=1;points=[[0,0,0,0,5],[0,1,0,0,-5],[1,0,0,0,5],[1,1,0,0,-5]];perimeter=orthogonalPerimeter;outlineConnect=0;targetShapes=umlLifeline;portConstraint=eastwest;newEdgeStyle={&quot;curved&quot;:0,&quot;rounded&quot;:0};" parent="1" vertex="1">
          <mxGeometry x="605" y="600" width="10" height="170" as="geometry" />
        </mxCell>
        <mxCell id="diQuAST23YdK09CmSaxM-21" value="updateData(new_data)" style="html=1;verticalAlign=bottom;endArrow=block;curved=0;rounded=0;entryX=0;entryY=0;entryDx=0;entryDy=5;" parent="1" edge="1">
          <mxGeometry relative="1" as="geometry">
            <mxPoint x="130.27011494252883" y="590" as="sourcePoint" />
            <mxPoint x="285" y="590" as="targetPoint" />
          </mxGeometry>
        </mxCell>
        <mxCell id="diQuAST23YdK09CmSaxM-22" value="displaySuccessMessage" style="html=1;verticalAlign=bottom;endArrow=open;dashed=1;endSize=8;curved=0;rounded=0;exitX=0;exitY=1;exitDx=0;exitDy=-5;" parent="1" edge="1">
          <mxGeometry relative="1" as="geometry">
            <mxPoint x="130.00011494252882" y="720" as="targetPoint" />
            <mxPoint x="284.73" y="720" as="sourcePoint" />
          </mxGeometry>
        </mxCell>
        <mxCell id="diQuAST23YdK09CmSaxM-23" value="success" style="html=1;verticalAlign=bottom;endArrow=open;dashed=1;endSize=8;curved=0;rounded=0;exitX=0;exitY=1;exitDx=0;exitDy=-5;" parent="1" edge="1">
          <mxGeometry relative="1" as="geometry">
            <mxPoint x="294.73" y="710" as="targetPoint" />
            <mxPoint x="444.73" y="710" as="sourcePoint" />
          </mxGeometry>
        </mxCell>
        <mxCell id="diQuAST23YdK09CmSaxM-24" value="updateData(new_data)" style="html=1;verticalAlign=bottom;endArrow=block;curved=0;rounded=0;entryX=0;entryY=0;entryDx=0;entryDy=5;" parent="1" edge="1">
          <mxGeometry x="-0.0011" relative="1" as="geometry">
            <mxPoint x="295" y="600" as="sourcePoint" />
            <mxPoint x="445" y="600" as="targetPoint" />
            <mxPoint as="offset" />
          </mxGeometry>
        </mxCell>
        <mxCell id="diQuAST23YdK09CmSaxM-25" value="updateData(new_data)" style="html=1;verticalAlign=bottom;endArrow=block;curved=0;rounded=0;entryX=0;entryY=0;entryDx=0;entryDy=5;" parent="1" edge="1">
          <mxGeometry relative="1" as="geometry">
            <mxPoint x="455" y="609.89" as="sourcePoint" />
            <mxPoint x="605" y="609.89" as="targetPoint" />
          </mxGeometry>
        </mxCell>
        <mxCell id="diQuAST23YdK09CmSaxM-26" value="success" style="html=1;verticalAlign=bottom;endArrow=open;dashed=1;endSize=8;curved=0;rounded=0;exitX=0;exitY=1;exitDx=0;exitDy=-5;exitPerimeter=0;" parent="1" edge="1">
          <mxGeometry relative="1" as="geometry">
            <mxPoint x="454.73" y="700" as="targetPoint" />
            <mxPoint x="604.73" y="700" as="sourcePoint" />
          </mxGeometry>
        </mxCell>
        <mxCell id="diQuAST23YdK09CmSaxM-27" value="" style="html=1;points=[[0,0,0,0,5],[0,1,0,0,-5],[1,0,0,0,5],[1,1,0,0,-5]];perimeter=orthogonalPerimeter;outlineConnect=0;targetShapes=umlLifeline;portConstraint=eastwest;newEdgeStyle={&quot;curved&quot;:0,&quot;rounded&quot;:0};" parent="1" vertex="1">
          <mxGeometry x="765" y="610" width="10" height="50" as="geometry" />
        </mxCell>
        <mxCell id="diQuAST23YdK09CmSaxM-28" value="update(new_data)" style="html=1;verticalAlign=bottom;endArrow=block;curved=0;rounded=0;entryX=0;entryY=0;entryDx=0;entryDy=5;" parent="1" edge="1">
          <mxGeometry relative="1" as="geometry">
            <mxPoint x="614.73" y="620" as="sourcePoint" />
            <mxPoint x="765" y="620" as="targetPoint" />
          </mxGeometry>
        </mxCell>
        <mxCell id="diQuAST23YdK09CmSaxM-29" value="ACK" style="html=1;verticalAlign=bottom;endArrow=open;dashed=1;endSize=8;curved=0;rounded=0;exitX=0;exitY=1;exitDx=0;exitDy=-5;" parent="1" edge="1">
          <mxGeometry relative="1" as="geometry">
            <mxPoint x="614.73" y="650" as="targetPoint" />
            <mxPoint x="765" y="650" as="sourcePoint" />
          </mxGeometry>
        </mxCell>
        <mxCell id="diQuAST23YdK09CmSaxM-30" value="&lt;font style=&quot;font-size: 9px;&quot;&gt;personal data update&lt;/font&gt;" style="shape=umlFrame;whiteSpace=wrap;html=1;pointerEvents=0;width=110;height=20;" parent="1" vertex="1">
          <mxGeometry x="40" y="550" width="780" height="250" as="geometry" />
        </mxCell>
        <mxCell id="diQuAST23YdK09CmSaxM-31" value="" style="line;strokeWidth=1;fillColor=none;align=left;verticalAlign=middle;spacingTop=-1;spacingLeft=3;spacingRight=3;rotatable=0;labelPosition=right;points=[];portConstraint=eastwest;strokeColor=inherit;" parent="1" vertex="1">
          <mxGeometry x="40" y="670" width="780" height="8" as="geometry" />
        </mxCell>
        <mxCell id="diQuAST23YdK09CmSaxM-32" value="error" style="html=1;verticalAlign=bottom;endArrow=open;dashed=1;endSize=8;curved=0;rounded=0;exitX=0;exitY=1;exitDx=0;exitDy=-5;exitPerimeter=0;" parent="1" edge="1">
          <mxGeometry relative="1" as="geometry">
            <mxPoint x="454.73" y="760" as="targetPoint" />
            <mxPoint x="604.73" y="760" as="sourcePoint" />
          </mxGeometry>
        </mxCell>
        <mxCell id="diQuAST23YdK09CmSaxM-33" value="error" style="html=1;verticalAlign=bottom;endArrow=open;dashed=1;endSize=8;curved=0;rounded=0;exitX=0;exitY=1;exitDx=0;exitDy=-5;" parent="1" edge="1">
          <mxGeometry relative="1" as="geometry">
            <mxPoint x="294.73" y="770" as="targetPoint" />
            <mxPoint x="444.73" y="770" as="sourcePoint" />
          </mxGeometry>
        </mxCell>
        <mxCell id="diQuAST23YdK09CmSaxM-34" value="displayErrorMessage" style="html=1;verticalAlign=bottom;endArrow=open;dashed=1;endSize=8;curved=0;rounded=0;exitX=0;exitY=1;exitDx=0;exitDy=-5;" parent="1" edge="1">
          <mxGeometry relative="1" as="geometry">
            <mxPoint x="130.00011494252882" y="780" as="targetPoint" />
            <mxPoint x="284.73" y="780" as="sourcePoint" />
          </mxGeometry>
        </mxCell>
        <mxCell id="diQuAST23YdK09CmSaxM-35" value="" style="line;strokeWidth=1;fillColor=none;align=left;verticalAlign=middle;spacingTop=-1;spacingLeft=3;spacingRight=3;rotatable=0;labelPosition=right;points=[];portConstraint=eastwest;strokeColor=inherit;" parent="1" vertex="1">
          <mxGeometry x="40" y="730" width="780" height="8" as="geometry" />
        </mxCell>
        <mxCell id="diQuAST23YdK09CmSaxM-36" value="correct data" style="text;html=1;align=center;verticalAlign=middle;whiteSpace=wrap;rounded=0;" parent="1" vertex="1">
          <mxGeometry x="40" y="670" width="80" height="30" as="geometry" />
        </mxCell>
        <mxCell id="diQuAST23YdK09CmSaxM-37" value="invalid data" style="text;html=1;align=center;verticalAlign=middle;whiteSpace=wrap;rounded=0;" parent="1" vertex="1">
          <mxGeometry x="40" y="730" width="80" height="30" as="geometry" />
        </mxCell>
        <mxCell id="diQuAST23YdK09CmSaxM-38" value="Student profile update" style="shape=umlFrame;whiteSpace=wrap;html=1;pointerEvents=0;width=140;height=30;" parent="1" vertex="1">
          <mxGeometry y="110" width="860" height="730" as="geometry" />
        </mxCell>
        <mxCell id="diQuAST23YdK09CmSaxM-39" value=":WebApp" style="shape=umlLifeline;perimeter=lifelinePerimeter;whiteSpace=wrap;html=1;container=1;dropTarget=0;collapsible=0;recursiveResize=0;outlineConnect=0;portConstraint=eastwest;newEdgeStyle={&quot;curved&quot;:0,&quot;rounded&quot;:0};" parent="1" vertex="1">
          <mxGeometry x="80" y="920" width="100" height="470" as="geometry" />
        </mxCell>
        <mxCell id="diQuAST23YdK09CmSaxM-40" value=":Web Server" style="shape=umlLifeline;perimeter=lifelinePerimeter;whiteSpace=wrap;html=1;container=1;dropTarget=0;collapsible=0;recursiveResize=0;outlineConnect=0;portConstraint=eastwest;newEdgeStyle={&quot;curved&quot;:0,&quot;rounded&quot;:0};" parent="1" vertex="1">
          <mxGeometry x="240" y="920" width="100" height="470" as="geometry" />
        </mxCell>
        <mxCell id="diQuAST23YdK09CmSaxM-50" value="" style="html=1;points=[[0,0,0,0,5],[0,1,0,0,-5],[1,0,0,0,5],[1,1,0,0,-5]];perimeter=orthogonalPerimeter;outlineConnect=0;targetShapes=umlLifeline;portConstraint=eastwest;newEdgeStyle={&quot;curved&quot;:0,&quot;rounded&quot;:0};" parent="diQuAST23YdK09CmSaxM-40" vertex="1">
          <mxGeometry x="45" y="70" width="10" height="100" as="geometry" />
        </mxCell>
        <mxCell id="diQuAST23YdK09CmSaxM-63" value="" style="html=1;points=[[0,0,0,0,5],[0,1,0,0,-5],[1,0,0,0,5],[1,1,0,0,-5]];perimeter=orthogonalPerimeter;outlineConnect=0;targetShapes=umlLifeline;portConstraint=eastwest;newEdgeStyle={&quot;curved&quot;:0,&quot;rounded&quot;:0};" parent="diQuAST23YdK09CmSaxM-40" vertex="1">
          <mxGeometry x="45" y="200" width="10" height="230" as="geometry" />
        </mxCell>
        <mxCell id="diQuAST23YdK09CmSaxM-44" value=":API Server" style="shape=umlLifeline;perimeter=lifelinePerimeter;whiteSpace=wrap;html=1;container=1;dropTarget=0;collapsible=0;recursiveResize=0;outlineConnect=0;portConstraint=eastwest;newEdgeStyle={&quot;curved&quot;:0,&quot;rounded&quot;:0};" parent="1" vertex="1">
          <mxGeometry x="399.73" y="920" width="100" height="470" as="geometry" />
        </mxCell>
        <mxCell id="diQuAST23YdK09CmSaxM-53" value="" style="html=1;points=[[0,0,0,0,5],[0,1,0,0,-5],[1,0,0,0,5],[1,1,0,0,-5]];perimeter=orthogonalPerimeter;outlineConnect=0;targetShapes=umlLifeline;portConstraint=eastwest;newEdgeStyle={&quot;curved&quot;:0,&quot;rounded&quot;:0};" parent="diQuAST23YdK09CmSaxM-44" vertex="1">
          <mxGeometry x="45" y="80" width="10" height="90" as="geometry" />
        </mxCell>
        <mxCell id="diQuAST23YdK09CmSaxM-66" value="" style="html=1;points=[[0,0,0,0,5],[0,1,0,0,-5],[1,0,0,0,5],[1,1,0,0,-5]];perimeter=orthogonalPerimeter;outlineConnect=0;targetShapes=umlLifeline;portConstraint=eastwest;newEdgeStyle={&quot;curved&quot;:0,&quot;rounded&quot;:0};" parent="diQuAST23YdK09CmSaxM-44" vertex="1">
          <mxGeometry x="44.27" y="210" width="10" height="210" as="geometry" />
        </mxCell>
        <mxCell id="diQuAST23YdK09CmSaxM-46" value=":Internship Manager" style="shape=umlLifeline;perimeter=lifelinePerimeter;whiteSpace=wrap;html=1;container=1;dropTarget=0;collapsible=0;recursiveResize=0;outlineConnect=0;portConstraint=eastwest;newEdgeStyle={&quot;curved&quot;:0,&quot;rounded&quot;:0};" parent="1" vertex="1">
          <mxGeometry x="560" y="920" width="100" height="470" as="geometry" />
        </mxCell>
        <mxCell id="diQuAST23YdK09CmSaxM-56" value="" style="html=1;points=[[0,0,0,0,5],[0,1,0,0,-5],[1,0,0,0,5],[1,1,0,0,-5]];perimeter=orthogonalPerimeter;outlineConnect=0;targetShapes=umlLifeline;portConstraint=eastwest;newEdgeStyle={&quot;curved&quot;:0,&quot;rounded&quot;:0};" parent="diQuAST23YdK09CmSaxM-46" vertex="1">
          <mxGeometry x="45" y="90" width="10" height="70" as="geometry" />
        </mxCell>
        <mxCell id="diQuAST23YdK09CmSaxM-69" value="" style="html=1;points=[[0,0,0,0,5],[0,1,0,0,-5],[1,0,0,0,5],[1,1,0,0,-5]];perimeter=orthogonalPerimeter;outlineConnect=0;targetShapes=umlLifeline;portConstraint=eastwest;newEdgeStyle={&quot;curved&quot;:0,&quot;rounded&quot;:0};" parent="diQuAST23YdK09CmSaxM-46" vertex="1">
          <mxGeometry x="45" y="220" width="10" height="190" as="geometry" />
        </mxCell>
        <mxCell id="diQuAST23YdK09CmSaxM-48" value=":DBMS" style="shape=umlLifeline;perimeter=lifelinePerimeter;whiteSpace=wrap;html=1;container=1;dropTarget=0;collapsible=0;recursiveResize=0;outlineConnect=0;portConstraint=eastwest;newEdgeStyle={&quot;curved&quot;:0,&quot;rounded&quot;:0};" parent="1" vertex="1">
          <mxGeometry x="720" y="920" width="100" height="470" as="geometry" />
        </mxCell>
        <mxCell id="diQuAST23YdK09CmSaxM-59" value="" style="html=1;points=[[0,0,0,0,5],[0,1,0,0,-5],[1,0,0,0,5],[1,1,0,0,-5]];perimeter=orthogonalPerimeter;outlineConnect=0;targetShapes=umlLifeline;portConstraint=eastwest;newEdgeStyle={&quot;curved&quot;:0,&quot;rounded&quot;:0};" parent="diQuAST23YdK09CmSaxM-48" vertex="1">
          <mxGeometry x="45" y="100" width="10" height="50" as="geometry" />
        </mxCell>
        <mxCell id="diQuAST23YdK09CmSaxM-73" value="" style="html=1;points=[[0,0,0,0,5],[0,1,0,0,-5],[1,0,0,0,5],[1,1,0,0,-5]];perimeter=orthogonalPerimeter;outlineConnect=0;targetShapes=umlLifeline;portConstraint=eastwest;newEdgeStyle={&quot;curved&quot;:0,&quot;rounded&quot;:0};" parent="diQuAST23YdK09CmSaxM-48" vertex="1">
          <mxGeometry x="45" y="230" width="10" height="50" as="geometry" />
        </mxCell>
        <mxCell id="diQuAST23YdK09CmSaxM-51" value="request(details_page)" style="html=1;verticalAlign=bottom;endArrow=block;curved=0;rounded=0;entryX=0;entryY=0;entryDx=0;entryDy=5;" parent="1" edge="1">
          <mxGeometry x="0.0023" relative="1" as="geometry">
            <mxPoint x="129.92857142857144" y="1000" as="sourcePoint" />
            <mxPoint x="285" y="1000" as="targetPoint" />
            <mxPoint as="offset" />
          </mxGeometry>
        </mxCell>
        <mxCell id="diQuAST23YdK09CmSaxM-52" value="show details_page" style="html=1;verticalAlign=bottom;endArrow=open;dashed=1;endSize=8;curved=0;rounded=0;exitX=0;exitY=1;exitDx=0;exitDy=-5;" parent="1" source="diQuAST23YdK09CmSaxM-50" target="diQuAST23YdK09CmSaxM-39" edge="1">
          <mxGeometry relative="1" as="geometry">
            <mxPoint x="215" y="1055" as="targetPoint" />
          </mxGeometry>
        </mxCell>
        <mxCell id="diQuAST23YdK09CmSaxM-54" value="getDetails(internship)" style="html=1;verticalAlign=bottom;endArrow=block;curved=0;rounded=0;entryX=0;entryY=0;entryDx=0;entryDy=5;" parent="1" edge="1">
          <mxGeometry relative="1" as="geometry">
            <mxPoint x="295" y="1010" as="sourcePoint" />
            <mxPoint x="444.73000000000013" y="1010" as="targetPoint" />
          </mxGeometry>
        </mxCell>
        <mxCell id="diQuAST23YdK09CmSaxM-55" value="internship" style="html=1;verticalAlign=bottom;endArrow=open;dashed=1;endSize=8;curved=0;rounded=0;exitX=0;exitY=1;exitDx=0;exitDy=-5;" parent="1" edge="1">
          <mxGeometry relative="1" as="geometry">
            <mxPoint x="295" y="1080" as="targetPoint" />
            <mxPoint x="444.73000000000013" y="1080" as="sourcePoint" />
          </mxGeometry>
        </mxCell>
        <mxCell id="diQuAST23YdK09CmSaxM-57" value="getDetails(internship)" style="html=1;verticalAlign=bottom;endArrow=block;curved=0;rounded=0;entryX=0;entryY=0;entryDx=0;entryDy=5;" parent="1" source="diQuAST23YdK09CmSaxM-53" edge="1">
          <mxGeometry x="0.0005" relative="1" as="geometry">
            <mxPoint x="460" y="1020" as="sourcePoint" />
            <mxPoint x="605" y="1020" as="targetPoint" />
            <mxPoint as="offset" />
          </mxGeometry>
        </mxCell>
        <mxCell id="diQuAST23YdK09CmSaxM-60" value="select(internship)" style="html=1;verticalAlign=bottom;endArrow=block;curved=0;rounded=0;entryX=0;entryY=0;entryDx=0;entryDy=5;" parent="1" source="diQuAST23YdK09CmSaxM-56" edge="1">
          <mxGeometry x="-0.0025" relative="1" as="geometry">
            <mxPoint x="620" y="1030" as="sourcePoint" />
            <mxPoint x="765" y="1030" as="targetPoint" />
            <mxPoint as="offset" />
          </mxGeometry>
        </mxCell>
        <mxCell id="diQuAST23YdK09CmSaxM-61" value="internship" style="html=1;verticalAlign=bottom;endArrow=open;dashed=1;endSize=8;curved=0;rounded=0;exitX=0;exitY=1;exitDx=0;exitDy=-5;" parent="1" edge="1">
          <mxGeometry relative="1" as="geometry">
            <mxPoint x="615" y="1060" as="targetPoint" />
            <mxPoint x="765.0000000000001" y="1060" as="sourcePoint" />
          </mxGeometry>
        </mxCell>
        <mxCell id="diQuAST23YdK09CmSaxM-58" value="internship" style="html=1;verticalAlign=bottom;endArrow=open;dashed=1;endSize=8;curved=0;rounded=0;exitX=0;exitY=1;exitDx=0;exitDy=-5;" parent="1" edge="1">
          <mxGeometry relative="1" as="geometry">
            <mxPoint x="454.73" y="1070" as="targetPoint" />
            <mxPoint x="605" y="1070" as="sourcePoint" />
          </mxGeometry>
        </mxCell>
        <mxCell id="diQuAST23YdK09CmSaxM-64" value="sendApplication()" style="html=1;verticalAlign=bottom;endArrow=block;curved=0;rounded=0;entryX=0;entryY=0;entryDx=0;entryDy=5;" parent="1" edge="1">
          <mxGeometry relative="1" as="geometry">
            <mxPoint x="129.92857142857144" y="1130" as="sourcePoint" />
            <mxPoint x="285" y="1130" as="targetPoint" />
          </mxGeometry>
        </mxCell>
        <mxCell id="diQuAST23YdK09CmSaxM-65" value="show success_message" style="html=1;verticalAlign=bottom;endArrow=open;dashed=1;endSize=8;curved=0;rounded=0;exitX=0;exitY=1;exitDx=0;exitDy=-5;" parent="1" edge="1">
          <mxGeometry relative="1" as="geometry">
            <mxPoint x="129.66666666666674" y="1260" as="targetPoint" />
            <mxPoint x="285" y="1260" as="sourcePoint" />
          </mxGeometry>
        </mxCell>
        <mxCell id="diQuAST23YdK09CmSaxM-67" value="sendApplication()" style="html=1;verticalAlign=bottom;endArrow=block;curved=0;rounded=0;entryX=0;entryY=0;entryDx=0;entryDy=5;" parent="1" edge="1">
          <mxGeometry relative="1" as="geometry">
            <mxPoint x="295.73" y="1140" as="sourcePoint" />
            <mxPoint x="444.73" y="1140" as="targetPoint" />
          </mxGeometry>
        </mxCell>
        <mxCell id="diQuAST23YdK09CmSaxM-70" value="sendApplication()" style="html=1;verticalAlign=bottom;endArrow=block;curved=0;rounded=0;entryX=0;entryY=0;entryDx=0;entryDy=5;" parent="1" edge="1">
          <mxGeometry relative="1" as="geometry">
            <mxPoint x="454" y="1150" as="sourcePoint" />
            <mxPoint x="605" y="1150" as="targetPoint" />
          </mxGeometry>
        </mxCell>
        <mxCell id="diQuAST23YdK09CmSaxM-74" value="insert(application)" style="html=1;verticalAlign=bottom;endArrow=block;curved=0;rounded=0;entryX=0;entryY=0;entryDx=0;entryDy=5;" parent="1" source="diQuAST23YdK09CmSaxM-69" edge="1">
          <mxGeometry relative="1" as="geometry">
            <mxPoint x="695" y="1160" as="sourcePoint" />
            <mxPoint x="765" y="1160" as="targetPoint" />
          </mxGeometry>
        </mxCell>
        <mxCell id="diQuAST23YdK09CmSaxM-75" value="ACK" style="html=1;verticalAlign=bottom;endArrow=open;dashed=1;endSize=8;curved=0;rounded=0;exitX=0;exitY=1;exitDx=0;exitDy=-5;" parent="1" edge="1">
          <mxGeometry relative="1" as="geometry">
            <mxPoint x="615" y="1190" as="targetPoint" />
            <mxPoint x="765" y="1190" as="sourcePoint" />
          </mxGeometry>
        </mxCell>
        <mxCell id="diQuAST23YdK09CmSaxM-71" value="success" style="html=1;verticalAlign=bottom;endArrow=open;dashed=1;endSize=8;curved=0;rounded=0;exitX=0;exitY=1;exitDx=0;exitDy=-5;entryX=1;entryY=1;entryDx=0;entryDy=-5;entryPerimeter=0;" parent="1" edge="1">
          <mxGeometry relative="1" as="geometry">
            <mxPoint x="454" y="1240" as="targetPoint" />
            <mxPoint x="605" y="1240" as="sourcePoint" />
          </mxGeometry>
        </mxCell>
        <mxCell id="diQuAST23YdK09CmSaxM-68" value="success" style="html=1;verticalAlign=bottom;endArrow=open;dashed=1;endSize=8;curved=0;rounded=0;exitX=0;exitY=1;exitDx=0;exitDy=-5;" parent="1" edge="1">
          <mxGeometry relative="1" as="geometry">
            <mxPoint x="295" y="1250" as="targetPoint" />
            <mxPoint x="444.73" y="1250" as="sourcePoint" />
          </mxGeometry>
        </mxCell>
        <mxCell id="diQuAST23YdK09CmSaxM-76" value="alt" style="shape=umlFrame;whiteSpace=wrap;html=1;pointerEvents=0;width=40;height=20;" parent="1" vertex="1">
          <mxGeometry x="80" y="1210" width="740" height="160" as="geometry" />
        </mxCell>
        <mxCell id="diQuAST23YdK09CmSaxM-79" value="" style="endArrow=none;dashed=1;html=1;rounded=0;exitX=0;exitY=0.5;exitDx=0;exitDy=0;exitPerimeter=0;entryX=1;entryY=0.499;entryDx=0;entryDy=0;entryPerimeter=0;" parent="1" edge="1">
          <mxGeometry width="50" height="50" relative="1" as="geometry">
            <mxPoint x="80" y="1290.2" as="sourcePoint" />
            <mxPoint x="820" y="1290" as="targetPoint" />
          </mxGeometry>
        </mxCell>
        <mxCell id="diQuAST23YdK09CmSaxM-80" value="show error_message" style="html=1;verticalAlign=bottom;endArrow=open;dashed=1;endSize=8;curved=0;rounded=0;exitX=0;exitY=1;exitDx=0;exitDy=-5;" parent="1" edge="1">
          <mxGeometry relative="1" as="geometry">
            <mxPoint x="129.66666666666674" y="1340" as="targetPoint" />
            <mxPoint x="285" y="1340" as="sourcePoint" />
          </mxGeometry>
        </mxCell>
        <mxCell id="diQuAST23YdK09CmSaxM-81" value="error" style="html=1;verticalAlign=bottom;endArrow=open;dashed=1;endSize=8;curved=0;rounded=0;exitX=0;exitY=1;exitDx=0;exitDy=-5;entryX=1;entryY=1;entryDx=0;entryDy=-5;entryPerimeter=0;" parent="1" edge="1">
          <mxGeometry x="-0.0009" relative="1" as="geometry">
            <mxPoint x="454" y="1320" as="targetPoint" />
            <mxPoint x="605" y="1320" as="sourcePoint" />
            <mxPoint as="offset" />
          </mxGeometry>
        </mxCell>
        <mxCell id="diQuAST23YdK09CmSaxM-82" value="error" style="html=1;verticalAlign=bottom;endArrow=open;dashed=1;endSize=8;curved=0;rounded=0;exitX=0;exitY=1;exitDx=0;exitDy=-5;" parent="1" edge="1">
          <mxGeometry relative="1" as="geometry">
            <mxPoint x="295" y="1330" as="targetPoint" />
            <mxPoint x="444.73" y="1330" as="sourcePoint" />
          </mxGeometry>
        </mxCell>
        <mxCell id="diQuAST23YdK09CmSaxM-83" value="Server error || Internship no longer available" style="text;html=1;align=center;verticalAlign=middle;whiteSpace=wrap;rounded=0;fillColor=default;fontSize=9;" parent="1" vertex="1">
          <mxGeometry x="90" y="1300" width="180" height="10" as="geometry" />
        </mxCell>
        <mxCell id="diQuAST23YdK09CmSaxM-84" value="Student&#39;s application sending" style="shape=umlFrame;whiteSpace=wrap;html=1;pointerEvents=0;width=170;height=30;" parent="1" vertex="1">
          <mxGeometry x="50" y="870" width="800" height="530" as="geometry" />
        </mxCell>
        <mxCell id="diQuAST23YdK09CmSaxM-85" value=":WebApp" style="shape=umlLifeline;perimeter=lifelinePerimeter;whiteSpace=wrap;html=1;container=1;dropTarget=0;collapsible=0;recursiveResize=0;outlineConnect=0;portConstraint=eastwest;newEdgeStyle={&quot;curved&quot;:0,&quot;rounded&quot;:0};" parent="1" vertex="1">
          <mxGeometry x="980" y="1220" width="100" height="500" as="geometry" />
        </mxCell>
        <mxCell id="diQuAST23YdK09CmSaxM-86" value=":Web Server" style="shape=umlLifeline;perimeter=lifelinePerimeter;whiteSpace=wrap;html=1;container=1;dropTarget=0;collapsible=0;recursiveResize=0;outlineConnect=0;portConstraint=eastwest;newEdgeStyle={&quot;curved&quot;:0,&quot;rounded&quot;:0};" parent="1" vertex="1">
          <mxGeometry x="1140" y="1220" width="100" height="500" as="geometry" />
        </mxCell>
        <mxCell id="diQuAST23YdK09CmSaxM-89" value=":API Server" style="shape=umlLifeline;perimeter=lifelinePerimeter;whiteSpace=wrap;html=1;container=1;dropTarget=0;collapsible=0;recursiveResize=0;outlineConnect=0;portConstraint=eastwest;newEdgeStyle={&quot;curved&quot;:0,&quot;rounded&quot;:0};" parent="1" vertex="1">
          <mxGeometry x="1299.73" y="1220" width="100" height="500" as="geometry" />
        </mxCell>
        <mxCell id="diQuAST23YdK09CmSaxM-92" value=":Matchmaking Manager" style="shape=umlLifeline;perimeter=lifelinePerimeter;whiteSpace=wrap;html=1;container=1;dropTarget=0;collapsible=0;recursiveResize=0;outlineConnect=0;portConstraint=eastwest;newEdgeStyle={&quot;curved&quot;:0,&quot;rounded&quot;:0};" parent="1" vertex="1">
          <mxGeometry x="1460" y="1220" width="100" height="500" as="geometry" />
        </mxCell>
        <mxCell id="diQuAST23YdK09CmSaxM-95" value=":DBMS" style="shape=umlLifeline;perimeter=lifelinePerimeter;whiteSpace=wrap;html=1;container=1;dropTarget=0;collapsible=0;recursiveResize=0;outlineConnect=0;portConstraint=eastwest;newEdgeStyle={&quot;curved&quot;:0,&quot;rounded&quot;:0};" parent="1" vertex="1">
          <mxGeometry x="2030" y="1220" width="100" height="500" as="geometry" />
        </mxCell>
        <mxCell id="diQuAST23YdK09CmSaxM-120" value="Company proposes schedule" style="shape=umlFrame;whiteSpace=wrap;html=1;pointerEvents=0;width=180;height=30;" parent="1" vertex="1">
          <mxGeometry x="950" y="1170" width="1210" height="560" as="geometry" />
        </mxCell>
        <mxCell id="diQuAST23YdK09CmSaxM-178" value="" style="html=1;points=[[0,0,0,0,5],[0,1,0,0,-5],[1,0,0,0,5],[1,1,0,0,-5]];perimeter=orthogonalPerimeter;outlineConnect=0;targetShapes=umlLifeline;portConstraint=eastwest;newEdgeStyle={&quot;curved&quot;:0,&quot;rounded&quot;:0};" parent="1" vertex="1">
          <mxGeometry x="444.46000000000004" y="1670" width="10" height="90" as="geometry" />
        </mxCell>
        <mxCell id="diQuAST23YdK09CmSaxM-179" value="" style="html=1;points=[[0,0,0,0,5],[0,1,0,0,-5],[1,0,0,0,5],[1,1,0,0,-5]];perimeter=orthogonalPerimeter;outlineConnect=0;targetShapes=umlLifeline;portConstraint=eastwest;newEdgeStyle={&quot;curved&quot;:0,&quot;rounded&quot;:0};" parent="1" vertex="1">
          <mxGeometry x="604.73" y="1680" width="10" height="70" as="geometry" />
        </mxCell>
        <mxCell id="diQuAST23YdK09CmSaxM-180" value="" style="html=1;points=[[0,0,0,0,5],[0,1,0,0,-5],[1,0,0,0,5],[1,1,0,0,-5]];perimeter=orthogonalPerimeter;outlineConnect=0;targetShapes=umlLifeline;portConstraint=eastwest;newEdgeStyle={&quot;curved&quot;:0,&quot;rounded&quot;:0};" parent="1" vertex="1">
          <mxGeometry x="764.73" y="1690" width="10" height="50" as="geometry" />
        </mxCell>
        <mxCell id="diQuAST23YdK09CmSaxM-181" value="confirmInternship()" style="html=1;verticalAlign=bottom;endArrow=block;curved=0;rounded=0;entryX=0;entryY=0;entryDx=0;entryDy=5;" parent="1" edge="1">
          <mxGeometry x="-0.0005" relative="1" as="geometry">
            <mxPoint x="129.65857142857158" y="1670" as="sourcePoint" />
            <mxPoint x="284.73" y="1670" as="targetPoint" />
            <mxPoint as="offset" />
          </mxGeometry>
        </mxCell>
        <mxCell id="diQuAST23YdK09CmSaxM-182" value="show confirmation_message" style="html=1;verticalAlign=bottom;endArrow=open;dashed=1;endSize=8;curved=0;rounded=0;exitX=0;exitY=1;exitDx=0;exitDy=-5;" parent="1" edge="1">
          <mxGeometry relative="1" as="geometry">
            <mxPoint x="129.05352941176466" y="1760" as="targetPoint" />
            <mxPoint x="284.73" y="1760" as="sourcePoint" />
          </mxGeometry>
        </mxCell>
        <mxCell id="diQuAST23YdK09CmSaxM-183" value="confirmInternship()" style="html=1;verticalAlign=bottom;endArrow=block;curved=0;rounded=0;entryX=0;entryY=0;entryDx=0;entryDy=5;" parent="1" edge="1">
          <mxGeometry relative="1" as="geometry">
            <mxPoint x="294.73" y="1680" as="sourcePoint" />
            <mxPoint x="444.46000000000004" y="1680" as="targetPoint" />
          </mxGeometry>
        </mxCell>
        <mxCell id="diQuAST23YdK09CmSaxM-184" value="ok" style="html=1;verticalAlign=bottom;endArrow=open;dashed=1;endSize=8;curved=0;rounded=0;exitX=0;exitY=1;exitDx=0;exitDy=-5;" parent="1" edge="1">
          <mxGeometry x="-0.0001" relative="1" as="geometry">
            <mxPoint x="294.73" y="1750" as="targetPoint" />
            <mxPoint x="444.46000000000004" y="1750" as="sourcePoint" />
            <mxPoint as="offset" />
          </mxGeometry>
        </mxCell>
        <mxCell id="diQuAST23YdK09CmSaxM-185" value="confirmInternship()" style="html=1;verticalAlign=bottom;endArrow=block;curved=0;rounded=0;entryX=0;entryY=0;entryDx=0;entryDy=5;" parent="1" edge="1">
          <mxGeometry x="0.0005" relative="1" as="geometry">
            <mxPoint x="454.46000000000004" y="1690" as="sourcePoint" />
            <mxPoint x="604.73" y="1690" as="targetPoint" />
            <mxPoint as="offset" />
          </mxGeometry>
        </mxCell>
        <mxCell id="diQuAST23YdK09CmSaxM-186" value="update(internship)" style="html=1;verticalAlign=bottom;endArrow=block;curved=0;rounded=0;entryX=0;entryY=0;entryDx=0;entryDy=5;" parent="1" edge="1">
          <mxGeometry relative="1" as="geometry">
            <mxPoint x="614.73" y="1700" as="sourcePoint" />
            <mxPoint x="764.73" y="1700" as="targetPoint" />
          </mxGeometry>
        </mxCell>
        <mxCell id="diQuAST23YdK09CmSaxM-187" value="ok" style="html=1;verticalAlign=bottom;endArrow=open;dashed=1;endSize=8;curved=0;rounded=0;exitX=0;exitY=1;exitDx=0;exitDy=-5;" parent="1" edge="1">
          <mxGeometry relative="1" as="geometry">
            <mxPoint x="614.73" y="1730" as="targetPoint" />
            <mxPoint x="764.73" y="1730" as="sourcePoint" />
          </mxGeometry>
        </mxCell>
        <mxCell id="diQuAST23YdK09CmSaxM-188" value="ok" style="html=1;verticalAlign=bottom;endArrow=open;dashed=1;endSize=8;curved=0;rounded=0;exitX=0;exitY=1;exitDx=0;exitDy=-5;" parent="1" edge="1">
          <mxGeometry relative="1" as="geometry">
            <mxPoint x="454.46000000000004" y="1740" as="targetPoint" />
            <mxPoint x="604.73" y="1740" as="sourcePoint" />
          </mxGeometry>
        </mxCell>
        <mxCell id="diQuAST23YdK09CmSaxM-189" value="" style="html=1;points=[[0,0,0,0,5],[0,1,0,0,-5],[1,0,0,0,5],[1,1,0,0,-5]];perimeter=orthogonalPerimeter;outlineConnect=0;targetShapes=umlLifeline;portConstraint=eastwest;newEdgeStyle={&quot;curved&quot;:0,&quot;rounded&quot;:0};" parent="1" vertex="1">
          <mxGeometry x="284.73" y="1660" width="10" height="110" as="geometry" />
        </mxCell>
        <mxCell id="diQuAST23YdK09CmSaxM-190" value="" style="html=1;points=[[0,0,0,0,5],[0,1,0,0,-5],[1,0,0,0,5],[1,1,0,0,-5]];perimeter=orthogonalPerimeter;outlineConnect=0;targetShapes=umlLifeline;portConstraint=eastwest;newEdgeStyle={&quot;curved&quot;:0,&quot;rounded&quot;:0};" parent="1" vertex="1">
          <mxGeometry x="444.46000000000004" y="1810" width="10" height="90" as="geometry" />
        </mxCell>
        <mxCell id="diQuAST23YdK09CmSaxM-191" value="" style="html=1;points=[[0,0,0,0,5],[0,1,0,0,-5],[1,0,0,0,5],[1,1,0,0,-5]];perimeter=orthogonalPerimeter;outlineConnect=0;targetShapes=umlLifeline;portConstraint=eastwest;newEdgeStyle={&quot;curved&quot;:0,&quot;rounded&quot;:0};" parent="1" vertex="1">
          <mxGeometry x="604.73" y="1820" width="10" height="70" as="geometry" />
        </mxCell>
        <mxCell id="diQuAST23YdK09CmSaxM-192" value="" style="html=1;points=[[0,0,0,0,5],[0,1,0,0,-5],[1,0,0,0,5],[1,1,0,0,-5]];perimeter=orthogonalPerimeter;outlineConnect=0;targetShapes=umlLifeline;portConstraint=eastwest;newEdgeStyle={&quot;curved&quot;:0,&quot;rounded&quot;:0};" parent="1" vertex="1">
          <mxGeometry x="764.73" y="1830" width="10" height="50" as="geometry" />
        </mxCell>
        <mxCell id="diQuAST23YdK09CmSaxM-193" value="rejectInternship()" style="html=1;verticalAlign=bottom;endArrow=block;curved=0;rounded=0;entryX=0;entryY=0;entryDx=0;entryDy=5;" parent="1" edge="1">
          <mxGeometry x="-0.0005" relative="1" as="geometry">
            <mxPoint x="129.65857142857158" y="1810" as="sourcePoint" />
            <mxPoint x="284.73" y="1810" as="targetPoint" />
            <mxPoint as="offset" />
          </mxGeometry>
        </mxCell>
        <mxCell id="diQuAST23YdK09CmSaxM-194" value="show success_message" style="html=1;verticalAlign=bottom;endArrow=open;dashed=1;endSize=8;curved=0;rounded=0;exitX=0;exitY=1;exitDx=0;exitDy=-5;" parent="1" edge="1">
          <mxGeometry relative="1" as="geometry">
            <mxPoint x="129.05352941176466" y="1900" as="targetPoint" />
            <mxPoint x="284.73" y="1900" as="sourcePoint" />
          </mxGeometry>
        </mxCell>
        <mxCell id="diQuAST23YdK09CmSaxM-195" value="rejectInternship()" style="html=1;verticalAlign=bottom;endArrow=block;curved=0;rounded=0;entryX=0;entryY=0;entryDx=0;entryDy=5;" parent="1" edge="1">
          <mxGeometry relative="1" as="geometry">
            <mxPoint x="294.73" y="1820" as="sourcePoint" />
            <mxPoint x="444.46000000000004" y="1820" as="targetPoint" />
          </mxGeometry>
        </mxCell>
        <mxCell id="diQuAST23YdK09CmSaxM-196" value="ok" style="html=1;verticalAlign=bottom;endArrow=open;dashed=1;endSize=8;curved=0;rounded=0;exitX=0;exitY=1;exitDx=0;exitDy=-5;" parent="1" edge="1">
          <mxGeometry x="-0.0001" relative="1" as="geometry">
            <mxPoint x="294.73" y="1890" as="targetPoint" />
            <mxPoint x="444.46000000000004" y="1890" as="sourcePoint" />
            <mxPoint as="offset" />
          </mxGeometry>
        </mxCell>
        <mxCell id="diQuAST23YdK09CmSaxM-197" value="rejectInternship()" style="html=1;verticalAlign=bottom;endArrow=block;curved=0;rounded=0;entryX=0;entryY=0;entryDx=0;entryDy=5;" parent="1" edge="1">
          <mxGeometry x="0.0005" relative="1" as="geometry">
            <mxPoint x="454.46000000000004" y="1830" as="sourcePoint" />
            <mxPoint x="604.73" y="1830" as="targetPoint" />
            <mxPoint as="offset" />
          </mxGeometry>
        </mxCell>
        <mxCell id="diQuAST23YdK09CmSaxM-198" value="update(internship)" style="html=1;verticalAlign=bottom;endArrow=block;curved=0;rounded=0;entryX=0;entryY=0;entryDx=0;entryDy=5;" parent="1" edge="1">
          <mxGeometry relative="1" as="geometry">
            <mxPoint x="614.73" y="1840" as="sourcePoint" />
            <mxPoint x="764.73" y="1840" as="targetPoint" />
          </mxGeometry>
        </mxCell>
        <mxCell id="diQuAST23YdK09CmSaxM-199" value="ok" style="html=1;verticalAlign=bottom;endArrow=open;dashed=1;endSize=8;curved=0;rounded=0;exitX=0;exitY=1;exitDx=0;exitDy=-5;" parent="1" edge="1">
          <mxGeometry relative="1" as="geometry">
            <mxPoint x="614.73" y="1870" as="targetPoint" />
            <mxPoint x="764.73" y="1870" as="sourcePoint" />
          </mxGeometry>
        </mxCell>
        <mxCell id="diQuAST23YdK09CmSaxM-200" value="ok" style="html=1;verticalAlign=bottom;endArrow=open;dashed=1;endSize=8;curved=0;rounded=0;exitX=0;exitY=1;exitDx=0;exitDy=-5;" parent="1" edge="1">
          <mxGeometry relative="1" as="geometry">
            <mxPoint x="454.46000000000004" y="1880" as="targetPoint" />
            <mxPoint x="604.73" y="1880" as="sourcePoint" />
          </mxGeometry>
        </mxCell>
        <mxCell id="diQuAST23YdK09CmSaxM-201" value="" style="html=1;points=[[0,0,0,0,5],[0,1,0,0,-5],[1,0,0,0,5],[1,1,0,0,-5]];perimeter=orthogonalPerimeter;outlineConnect=0;targetShapes=umlLifeline;portConstraint=eastwest;newEdgeStyle={&quot;curved&quot;:0,&quot;rounded&quot;:0};" parent="1" vertex="1">
          <mxGeometry x="284.73" y="1800" width="10" height="110" as="geometry" />
        </mxCell>
        <mxCell id="diQuAST23YdK09CmSaxM-203" value="sendNotification(confirm)" style="html=1;verticalAlign=bottom;endArrow=block;curved=0;rounded=0;" parent="1" edge="1">
          <mxGeometry width="80" relative="1" as="geometry">
            <mxPoint x="609.73" y="1590" as="sourcePoint" />
            <mxPoint x="449.73" y="1590" as="targetPoint" />
          </mxGeometry>
        </mxCell>
        <mxCell id="diQuAST23YdK09CmSaxM-204" value="sendNotification(confirm)" style="html=1;verticalAlign=bottom;endArrow=block;curved=0;rounded=0;" parent="1" edge="1">
          <mxGeometry width="80" relative="1" as="geometry">
            <mxPoint x="448.73" y="1599" as="sourcePoint" />
            <mxPoint x="289.73" y="1599" as="targetPoint" />
          </mxGeometry>
        </mxCell>
        <mxCell id="diQuAST23YdK09CmSaxM-205" value="notification confirmation" style="html=1;verticalAlign=bottom;endArrow=block;curved=0;rounded=0;" parent="1" edge="1">
          <mxGeometry width="80" relative="1" as="geometry">
            <mxPoint x="289.73" y="1609" as="sourcePoint" />
            <mxPoint x="129.73000000000002" y="1609" as="targetPoint" />
          </mxGeometry>
        </mxCell>
        <mxCell id="diQuAST23YdK09CmSaxM-231" value="alt" style="shape=umlFrame;whiteSpace=wrap;html=1;pointerEvents=0;width=60;height=20;" parent="1" vertex="1">
          <mxGeometry x="59.73000000000002" y="1630" width="780" height="290" as="geometry" />
        </mxCell>
        <mxCell id="diQuAST23YdK09CmSaxM-233" value="" style="endArrow=none;dashed=1;html=1;rounded=0;exitX=0;exitY=0.5;exitDx=0;exitDy=0;exitPerimeter=0;entryX=0.998;entryY=0.52;entryDx=0;entryDy=0;entryPerimeter=0;" parent="1" target="diQuAST23YdK09CmSaxM-231" edge="1">
          <mxGeometry width="50" height="50" relative="1" as="geometry">
            <mxPoint x="59.73000000000002" y="1780.2" as="sourcePoint" />
            <mxPoint x="799.73" y="1780" as="targetPoint" />
          </mxGeometry>
        </mxCell>
        <mxCell id="6e5MkQeYMWrhU2s1_YXG-36" value=":WebApp" style="shape=umlLifeline;perimeter=lifelinePerimeter;whiteSpace=wrap;html=1;container=1;dropTarget=0;collapsible=0;recursiveResize=0;outlineConnect=0;portConstraint=eastwest;newEdgeStyle={&quot;curved&quot;:0,&quot;rounded&quot;:0};" parent="1" vertex="1">
          <mxGeometry x="1030" y="160" width="100" height="380" as="geometry" />
        </mxCell>
        <mxCell id="6e5MkQeYMWrhU2s1_YXG-37" value=":Web Server" style="shape=umlLifeline;perimeter=lifelinePerimeter;whiteSpace=wrap;html=1;container=1;dropTarget=0;collapsible=0;recursiveResize=0;outlineConnect=0;portConstraint=eastwest;newEdgeStyle={&quot;curved&quot;:0,&quot;rounded&quot;:0};" parent="1" vertex="1">
          <mxGeometry x="1190" y="160" width="100" height="380" as="geometry" />
        </mxCell>
        <mxCell id="6e5MkQeYMWrhU2s1_YXG-38" value="" style="html=1;points=[[0,0,0,0,5],[0,1,0,0,-5],[1,0,0,0,5],[1,1,0,0,-5]];perimeter=orthogonalPerimeter;outlineConnect=0;targetShapes=umlLifeline;portConstraint=eastwest;newEdgeStyle={&quot;curved&quot;:0,&quot;rounded&quot;:0};" parent="6e5MkQeYMWrhU2s1_YXG-37" vertex="1">
          <mxGeometry x="45" y="60" width="10" height="50" as="geometry" />
        </mxCell>
        <mxCell id="6e5MkQeYMWrhU2s1_YXG-39" value="profilePage" style="html=1;verticalAlign=bottom;endArrow=open;dashed=1;endSize=8;curved=0;rounded=0;exitX=0;exitY=1;exitDx=0;exitDy=-5;" parent="6e5MkQeYMWrhU2s1_YXG-37" edge="1">
          <mxGeometry relative="1" as="geometry">
            <mxPoint x="-109.89999999999998" y="100" as="targetPoint" />
            <mxPoint x="45" y="100" as="sourcePoint" />
          </mxGeometry>
        </mxCell>
        <mxCell id="6e5MkQeYMWrhU2s1_YXG-40" value="" style="html=1;points=[[0,0,0,0,5],[0,1,0,0,-5],[1,0,0,0,5],[1,1,0,0,-5]];perimeter=orthogonalPerimeter;outlineConnect=0;targetShapes=umlLifeline;portConstraint=eastwest;newEdgeStyle={&quot;curved&quot;:0,&quot;rounded&quot;:0};" parent="6e5MkQeYMWrhU2s1_YXG-37" vertex="1">
          <mxGeometry x="45" y="150" width="10" height="210" as="geometry" />
        </mxCell>
        <mxCell id="6e5MkQeYMWrhU2s1_YXG-41" value=":API Server" style="shape=umlLifeline;perimeter=lifelinePerimeter;whiteSpace=wrap;html=1;container=1;dropTarget=0;collapsible=0;recursiveResize=0;outlineConnect=0;portConstraint=eastwest;newEdgeStyle={&quot;curved&quot;:0,&quot;rounded&quot;:0};" parent="1" vertex="1">
          <mxGeometry x="1349.73" y="160" width="100" height="380" as="geometry" />
        </mxCell>
        <mxCell id="6e5MkQeYMWrhU2s1_YXG-42" value="" style="html=1;points=[[0,0,0,0,5],[0,1,0,0,-5],[1,0,0,0,5],[1,1,0,0,-5]];perimeter=orthogonalPerimeter;outlineConnect=0;targetShapes=umlLifeline;portConstraint=eastwest;newEdgeStyle={&quot;curved&quot;:0,&quot;rounded&quot;:0};" parent="6e5MkQeYMWrhU2s1_YXG-41" vertex="1">
          <mxGeometry x="45" y="160" width="10" height="190" as="geometry" />
        </mxCell>
        <mxCell id="6e5MkQeYMWrhU2s1_YXG-43" value=":Profile Manager" style="shape=umlLifeline;perimeter=lifelinePerimeter;whiteSpace=wrap;html=1;container=1;dropTarget=0;collapsible=0;recursiveResize=0;outlineConnect=0;portConstraint=eastwest;newEdgeStyle={&quot;curved&quot;:0,&quot;rounded&quot;:0};" parent="1" vertex="1">
          <mxGeometry x="1510" y="160" width="100" height="380" as="geometry" />
        </mxCell>
        <mxCell id="6e5MkQeYMWrhU2s1_YXG-44" value="" style="html=1;points=[[0,0,0,0,5],[0,1,0,0,-5],[1,0,0,0,5],[1,1,0,0,-5]];perimeter=orthogonalPerimeter;outlineConnect=0;targetShapes=umlLifeline;portConstraint=eastwest;newEdgeStyle={&quot;curved&quot;:0,&quot;rounded&quot;:0};" parent="6e5MkQeYMWrhU2s1_YXG-43" vertex="1">
          <mxGeometry x="45" y="170" width="10" height="170" as="geometry" />
        </mxCell>
        <mxCell id="6e5MkQeYMWrhU2s1_YXG-45" value="getProfilePage()" style="html=1;verticalAlign=bottom;endArrow=block;curved=0;rounded=0;entryX=0;entryY=0;entryDx=0;entryDy=5;" parent="1" edge="1">
          <mxGeometry relative="1" as="geometry">
            <mxPoint x="1080.1" y="230" as="sourcePoint" />
            <mxPoint x="1235" y="230" as="targetPoint" />
          </mxGeometry>
        </mxCell>
        <mxCell id="6e5MkQeYMWrhU2s1_YXG-46" value="updateData(new_data)" style="html=1;verticalAlign=bottom;endArrow=block;curved=0;rounded=0;entryX=0;entryY=0;entryDx=0;entryDy=5;" parent="1" edge="1">
          <mxGeometry relative="1" as="geometry">
            <mxPoint x="1080.2701149425288" y="320" as="sourcePoint" />
            <mxPoint x="1235" y="320" as="targetPoint" />
          </mxGeometry>
        </mxCell>
        <mxCell id="6e5MkQeYMWrhU2s1_YXG-47" value="displaySuccessMessage" style="html=1;verticalAlign=bottom;endArrow=open;dashed=1;endSize=8;curved=0;rounded=0;exitX=0;exitY=1;exitDx=0;exitDy=-5;" parent="1" edge="1">
          <mxGeometry relative="1" as="geometry">
            <mxPoint x="1080.0001149425289" y="450" as="targetPoint" />
            <mxPoint x="1234.73" y="450" as="sourcePoint" />
          </mxGeometry>
        </mxCell>
        <mxCell id="6e5MkQeYMWrhU2s1_YXG-48" value="success" style="html=1;verticalAlign=bottom;endArrow=open;dashed=1;endSize=8;curved=0;rounded=0;exitX=0;exitY=1;exitDx=0;exitDy=-5;" parent="1" edge="1">
          <mxGeometry relative="1" as="geometry">
            <mxPoint x="1244.73" y="440" as="targetPoint" />
            <mxPoint x="1394.73" y="440" as="sourcePoint" />
          </mxGeometry>
        </mxCell>
        <mxCell id="6e5MkQeYMWrhU2s1_YXG-49" value="updateData(new_data)" style="html=1;verticalAlign=bottom;endArrow=block;curved=0;rounded=0;entryX=0;entryY=0;entryDx=0;entryDy=5;" parent="1" edge="1">
          <mxGeometry x="-0.0011" relative="1" as="geometry">
            <mxPoint x="1245" y="330" as="sourcePoint" />
            <mxPoint x="1395" y="330" as="targetPoint" />
            <mxPoint as="offset" />
          </mxGeometry>
        </mxCell>
        <mxCell id="6e5MkQeYMWrhU2s1_YXG-50" value="updateData(new_data)" style="html=1;verticalAlign=bottom;endArrow=block;curved=0;rounded=0;entryX=0;entryY=0;entryDx=0;entryDy=5;" parent="1" edge="1">
          <mxGeometry relative="1" as="geometry">
            <mxPoint x="1405" y="339.89" as="sourcePoint" />
            <mxPoint x="1555" y="339.89" as="targetPoint" />
          </mxGeometry>
        </mxCell>
        <mxCell id="6e5MkQeYMWrhU2s1_YXG-51" value="success" style="html=1;verticalAlign=bottom;endArrow=open;dashed=1;endSize=8;curved=0;rounded=0;exitX=0;exitY=1;exitDx=0;exitDy=-5;exitPerimeter=0;" parent="1" edge="1">
          <mxGeometry relative="1" as="geometry">
            <mxPoint x="1404.73" y="430" as="targetPoint" />
            <mxPoint x="1554.73" y="430" as="sourcePoint" />
          </mxGeometry>
        </mxCell>
        <mxCell id="6e5MkQeYMWrhU2s1_YXG-52" value=":DBMS" style="shape=umlLifeline;perimeter=lifelinePerimeter;whiteSpace=wrap;html=1;container=1;dropTarget=0;collapsible=0;recursiveResize=0;outlineConnect=0;portConstraint=eastwest;newEdgeStyle={&quot;curved&quot;:0,&quot;rounded&quot;:0};" parent="1" vertex="1">
          <mxGeometry x="1670" y="160" width="100" height="380" as="geometry" />
        </mxCell>
        <mxCell id="6e5MkQeYMWrhU2s1_YXG-53" value="" style="html=1;points=[[0,0,0,0,5],[0,1,0,0,-5],[1,0,0,0,5],[1,1,0,0,-5]];perimeter=orthogonalPerimeter;outlineConnect=0;targetShapes=umlLifeline;portConstraint=eastwest;newEdgeStyle={&quot;curved&quot;:0,&quot;rounded&quot;:0};" parent="6e5MkQeYMWrhU2s1_YXG-52" vertex="1">
          <mxGeometry x="45" y="180" width="10" height="50" as="geometry" />
        </mxCell>
        <mxCell id="6e5MkQeYMWrhU2s1_YXG-54" value="updateData(new_data)" style="html=1;verticalAlign=bottom;endArrow=block;curved=0;rounded=0;entryX=0;entryY=0;entryDx=0;entryDy=5;" parent="1" edge="1">
          <mxGeometry relative="1" as="geometry">
            <mxPoint x="1564.73" y="350" as="sourcePoint" />
            <mxPoint x="1715" y="350" as="targetPoint" />
          </mxGeometry>
        </mxCell>
        <mxCell id="6e5MkQeYMWrhU2s1_YXG-55" value="ACK" style="html=1;verticalAlign=bottom;endArrow=open;dashed=1;endSize=8;curved=0;rounded=0;exitX=0;exitY=1;exitDx=0;exitDy=-5;" parent="1" edge="1">
          <mxGeometry relative="1" as="geometry">
            <mxPoint x="1564.73" y="380" as="targetPoint" />
            <mxPoint x="1715" y="380" as="sourcePoint" />
          </mxGeometry>
        </mxCell>
        <mxCell id="6e5MkQeYMWrhU2s1_YXG-56" value="&lt;font style=&quot;font-size: 9px;&quot;&gt;alt&lt;/font&gt;" style="shape=umlFrame;whiteSpace=wrap;html=1;pointerEvents=0;width=40;height=20;" parent="1" vertex="1">
          <mxGeometry x="990" y="400" width="780" height="130" as="geometry" />
        </mxCell>
        <mxCell id="6e5MkQeYMWrhU2s1_YXG-58" value="error" style="html=1;verticalAlign=bottom;endArrow=open;dashed=1;endSize=8;curved=0;rounded=0;exitX=0;exitY=1;exitDx=0;exitDy=-5;exitPerimeter=0;" parent="1" edge="1">
          <mxGeometry relative="1" as="geometry">
            <mxPoint x="1404.73" y="490" as="targetPoint" />
            <mxPoint x="1554.73" y="490" as="sourcePoint" />
          </mxGeometry>
        </mxCell>
        <mxCell id="6e5MkQeYMWrhU2s1_YXG-59" value="error" style="html=1;verticalAlign=bottom;endArrow=open;dashed=1;endSize=8;curved=0;rounded=0;exitX=0;exitY=1;exitDx=0;exitDy=-5;" parent="1" edge="1">
          <mxGeometry relative="1" as="geometry">
            <mxPoint x="1244.73" y="500" as="targetPoint" />
            <mxPoint x="1394.73" y="500" as="sourcePoint" />
          </mxGeometry>
        </mxCell>
        <mxCell id="6e5MkQeYMWrhU2s1_YXG-60" value="displayErrorMessage" style="html=1;verticalAlign=bottom;endArrow=open;dashed=1;endSize=8;curved=0;rounded=0;exitX=0;exitY=1;exitDx=0;exitDy=-5;" parent="1" edge="1">
          <mxGeometry relative="1" as="geometry">
            <mxPoint x="1080.0001149425289" y="510" as="targetPoint" />
            <mxPoint x="1234.73" y="510" as="sourcePoint" />
          </mxGeometry>
        </mxCell>
        <mxCell id="6e5MkQeYMWrhU2s1_YXG-84" value="Company&#39;s profile update" style="shape=umlFrame;whiteSpace=wrap;html=1;pointerEvents=0;width=160;height=30;" parent="1" vertex="1">
          <mxGeometry x="950" y="110" width="860" height="460" as="geometry" />
        </mxCell>
        <mxCell id="6e5MkQeYMWrhU2s1_YXG-85" value="" style="endArrow=none;dashed=1;html=1;rounded=0;exitX=0;exitY=0.5;exitDx=0;exitDy=0;exitPerimeter=0;entryX=1;entryY=0.492;entryDx=0;entryDy=0;entryPerimeter=0;" parent="1" target="6e5MkQeYMWrhU2s1_YXG-56" edge="1">
          <mxGeometry width="50" height="50" relative="1" as="geometry">
            <mxPoint x="990" y="464.90999999999997" as="sourcePoint" />
            <mxPoint x="1730" y="464.7099999999999" as="targetPoint" />
          </mxGeometry>
        </mxCell>
        <mxCell id="OZ4XpZ3nQRyZ2qC5zmcx-1" value=":WebApp" style="shape=umlLifeline;perimeter=lifelinePerimeter;whiteSpace=wrap;html=1;container=1;dropTarget=0;collapsible=0;recursiveResize=0;outlineConnect=0;portConstraint=eastwest;newEdgeStyle={&quot;curved&quot;:0,&quot;rounded&quot;:0};" parent="1" vertex="1">
          <mxGeometry x="980.27" y="675" width="100" height="435" as="geometry" />
        </mxCell>
        <mxCell id="OZ4XpZ3nQRyZ2qC5zmcx-2" value=":Web Server" style="shape=umlLifeline;perimeter=lifelinePerimeter;whiteSpace=wrap;html=1;container=1;dropTarget=0;collapsible=0;recursiveResize=0;outlineConnect=0;portConstraint=eastwest;newEdgeStyle={&quot;curved&quot;:0,&quot;rounded&quot;:0};" parent="1" vertex="1">
          <mxGeometry x="1140.27" y="675" width="100" height="435" as="geometry" />
        </mxCell>
        <mxCell id="OZ4XpZ3nQRyZ2qC5zmcx-3" value="" style="html=1;points=[[0,0,0,0,5],[0,1,0,0,-5],[1,0,0,0,5],[1,1,0,0,-5]];perimeter=orthogonalPerimeter;outlineConnect=0;targetShapes=umlLifeline;portConstraint=eastwest;newEdgeStyle={&quot;curved&quot;:0,&quot;rounded&quot;:0};" parent="OZ4XpZ3nQRyZ2qC5zmcx-2" vertex="1">
          <mxGeometry x="45" y="70" width="10" height="70" as="geometry" />
        </mxCell>
        <mxCell id="OZ4XpZ3nQRyZ2qC5zmcx-4" value="" style="html=1;points=[[0,0,0,0,5],[0,1,0,0,-5],[1,0,0,0,5],[1,1,0,0,-5]];perimeter=orthogonalPerimeter;outlineConnect=0;targetShapes=umlLifeline;portConstraint=eastwest;newEdgeStyle={&quot;curved&quot;:0,&quot;rounded&quot;:0};" parent="OZ4XpZ3nQRyZ2qC5zmcx-2" vertex="1">
          <mxGeometry x="45" y="165" width="10" height="230" as="geometry" />
        </mxCell>
        <mxCell id="OZ4XpZ3nQRyZ2qC5zmcx-5" value=":API Server" style="shape=umlLifeline;perimeter=lifelinePerimeter;whiteSpace=wrap;html=1;container=1;dropTarget=0;collapsible=0;recursiveResize=0;outlineConnect=0;portConstraint=eastwest;newEdgeStyle={&quot;curved&quot;:0,&quot;rounded&quot;:0};" parent="1" vertex="1">
          <mxGeometry x="1300" y="675" width="100" height="435" as="geometry" />
        </mxCell>
        <mxCell id="OZ4XpZ3nQRyZ2qC5zmcx-7" value="" style="html=1;points=[[0,0,0,0,5],[0,1,0,0,-5],[1,0,0,0,5],[1,1,0,0,-5]];perimeter=orthogonalPerimeter;outlineConnect=0;targetShapes=umlLifeline;portConstraint=eastwest;newEdgeStyle={&quot;curved&quot;:0,&quot;rounded&quot;:0};" parent="OZ4XpZ3nQRyZ2qC5zmcx-5" vertex="1">
          <mxGeometry x="44.27" y="175" width="10" height="210" as="geometry" />
        </mxCell>
        <mxCell id="OZ4XpZ3nQRyZ2qC5zmcx-8" value=":Internship Manager" style="shape=umlLifeline;perimeter=lifelinePerimeter;whiteSpace=wrap;html=1;container=1;dropTarget=0;collapsible=0;recursiveResize=0;outlineConnect=0;portConstraint=eastwest;newEdgeStyle={&quot;curved&quot;:0,&quot;rounded&quot;:0};" parent="1" vertex="1">
          <mxGeometry x="1460.27" y="675" width="100" height="435" as="geometry" />
        </mxCell>
        <mxCell id="OZ4XpZ3nQRyZ2qC5zmcx-10" value="" style="html=1;points=[[0,0,0,0,5],[0,1,0,0,-5],[1,0,0,0,5],[1,1,0,0,-5]];perimeter=orthogonalPerimeter;outlineConnect=0;targetShapes=umlLifeline;portConstraint=eastwest;newEdgeStyle={&quot;curved&quot;:0,&quot;rounded&quot;:0};" parent="OZ4XpZ3nQRyZ2qC5zmcx-8" vertex="1">
          <mxGeometry x="45" y="185" width="10" height="190" as="geometry" />
        </mxCell>
        <mxCell id="OZ4XpZ3nQRyZ2qC5zmcx-11" value=":DBMS" style="shape=umlLifeline;perimeter=lifelinePerimeter;whiteSpace=wrap;html=1;container=1;dropTarget=0;collapsible=0;recursiveResize=0;outlineConnect=0;portConstraint=eastwest;newEdgeStyle={&quot;curved&quot;:0,&quot;rounded&quot;:0};" parent="1" vertex="1">
          <mxGeometry x="1630.27" y="675" width="100" height="435" as="geometry" />
        </mxCell>
        <mxCell id="OZ4XpZ3nQRyZ2qC5zmcx-13" value="" style="html=1;points=[[0,0,0,0,5],[0,1,0,0,-5],[1,0,0,0,5],[1,1,0,0,-5]];perimeter=orthogonalPerimeter;outlineConnect=0;targetShapes=umlLifeline;portConstraint=eastwest;newEdgeStyle={&quot;curved&quot;:0,&quot;rounded&quot;:0};" parent="OZ4XpZ3nQRyZ2qC5zmcx-11" vertex="1">
          <mxGeometry x="45" y="195" width="10" height="50" as="geometry" />
        </mxCell>
        <mxCell id="OZ4XpZ3nQRyZ2qC5zmcx-14" value="request(new_i&lt;font size=&quot;1&quot;&gt;nternship&lt;/font&gt;_page)" style="html=1;verticalAlign=bottom;endArrow=block;curved=0;rounded=0;entryX=0;entryY=0;entryDx=0;entryDy=5;" parent="1" edge="1">
          <mxGeometry x="0.0023" relative="1" as="geometry">
            <mxPoint x="1030.1985714285715" y="755" as="sourcePoint" />
            <mxPoint x="1185.27" y="755" as="targetPoint" />
            <mxPoint as="offset" />
          </mxGeometry>
        </mxCell>
        <mxCell id="OZ4XpZ3nQRyZ2qC5zmcx-15" value="new_i&lt;font size=&quot;1&quot;&gt;nternship&lt;/font&gt;_page" style="html=1;verticalAlign=bottom;endArrow=open;dashed=1;endSize=8;curved=0;rounded=0;exitX=0;exitY=1;exitDx=0;exitDy=-5;" parent="1" edge="1">
          <mxGeometry relative="1" as="geometry">
            <mxPoint x="1030.1639393939392" y="800" as="targetPoint" />
            <mxPoint x="1185.27" y="800" as="sourcePoint" />
          </mxGeometry>
        </mxCell>
        <mxCell id="OZ4XpZ3nQRyZ2qC5zmcx-22" value="postInternship(post_data)" style="html=1;verticalAlign=bottom;endArrow=block;curved=0;rounded=0;entryX=0;entryY=0;entryDx=0;entryDy=5;" parent="1" edge="1">
          <mxGeometry relative="1" as="geometry">
            <mxPoint x="1030.1985714285715" y="850" as="sourcePoint" />
            <mxPoint x="1185.27" y="850" as="targetPoint" />
          </mxGeometry>
        </mxCell>
        <mxCell id="OZ4XpZ3nQRyZ2qC5zmcx-23" value="show success_message" style="html=1;verticalAlign=bottom;endArrow=open;dashed=1;endSize=8;curved=0;rounded=0;exitX=0;exitY=1;exitDx=0;exitDy=-5;" parent="1" edge="1">
          <mxGeometry relative="1" as="geometry">
            <mxPoint x="1029.9366666666667" y="980" as="targetPoint" />
            <mxPoint x="1185.27" y="980" as="sourcePoint" />
          </mxGeometry>
        </mxCell>
        <mxCell id="OZ4XpZ3nQRyZ2qC5zmcx-24" value="postInternship(post_data)" style="html=1;verticalAlign=bottom;endArrow=block;curved=0;rounded=0;entryX=0;entryY=0;entryDx=0;entryDy=5;" parent="1" edge="1">
          <mxGeometry relative="1" as="geometry">
            <mxPoint x="1196" y="860" as="sourcePoint" />
            <mxPoint x="1345" y="860" as="targetPoint" />
          </mxGeometry>
        </mxCell>
        <mxCell id="OZ4XpZ3nQRyZ2qC5zmcx-25" value="postInternship(post_data)" style="html=1;verticalAlign=bottom;endArrow=block;curved=0;rounded=0;entryX=0;entryY=0;entryDx=0;entryDy=5;" parent="1" edge="1">
          <mxGeometry relative="1" as="geometry">
            <mxPoint x="1354.27" y="870" as="sourcePoint" />
            <mxPoint x="1505.27" y="870" as="targetPoint" />
          </mxGeometry>
        </mxCell>
        <mxCell id="OZ4XpZ3nQRyZ2qC5zmcx-26" value="addInternshipOffer(post_data)" style="html=1;verticalAlign=bottom;endArrow=block;curved=0;rounded=0;" parent="1" edge="1">
          <mxGeometry relative="1" as="geometry">
            <mxPoint x="1515.27" y="884.8599999999999" as="sourcePoint" />
            <mxPoint x="1675.27" y="884.8599999999999" as="targetPoint" />
          </mxGeometry>
        </mxCell>
        <mxCell id="OZ4XpZ3nQRyZ2qC5zmcx-27" value="ACK" style="html=1;verticalAlign=bottom;endArrow=open;dashed=1;endSize=8;curved=0;rounded=0;" parent="1" source="OZ4XpZ3nQRyZ2qC5zmcx-13" edge="1">
          <mxGeometry relative="1" as="geometry">
            <mxPoint x="1515.27" y="910" as="targetPoint" />
            <mxPoint x="1665.27" y="910" as="sourcePoint" />
          </mxGeometry>
        </mxCell>
        <mxCell id="OZ4XpZ3nQRyZ2qC5zmcx-28" value="success" style="html=1;verticalAlign=bottom;endArrow=open;dashed=1;endSize=8;curved=0;rounded=0;exitX=0;exitY=1;exitDx=0;exitDy=-5;entryX=1;entryY=1;entryDx=0;entryDy=-5;entryPerimeter=0;" parent="1" edge="1">
          <mxGeometry relative="1" as="geometry">
            <mxPoint x="1354.27" y="960" as="targetPoint" />
            <mxPoint x="1505.27" y="960" as="sourcePoint" />
          </mxGeometry>
        </mxCell>
        <mxCell id="OZ4XpZ3nQRyZ2qC5zmcx-29" value="success" style="html=1;verticalAlign=bottom;endArrow=open;dashed=1;endSize=8;curved=0;rounded=0;exitX=0;exitY=1;exitDx=0;exitDy=-5;" parent="1" edge="1">
          <mxGeometry relative="1" as="geometry">
            <mxPoint x="1195.27" y="970" as="targetPoint" />
            <mxPoint x="1345" y="970" as="sourcePoint" />
          </mxGeometry>
        </mxCell>
        <mxCell id="OZ4XpZ3nQRyZ2qC5zmcx-30" value="alt" style="shape=umlFrame;whiteSpace=wrap;html=1;pointerEvents=0;width=40;height=20;" parent="1" vertex="1">
          <mxGeometry x="980.27" y="930" width="740" height="160" as="geometry" />
        </mxCell>
        <mxCell id="OZ4XpZ3nQRyZ2qC5zmcx-31" value="" style="endArrow=none;dashed=1;html=1;rounded=0;exitX=0;exitY=0.5;exitDx=0;exitDy=0;exitPerimeter=0;entryX=1;entryY=0.499;entryDx=0;entryDy=0;entryPerimeter=0;" parent="1" edge="1">
          <mxGeometry width="50" height="50" relative="1" as="geometry">
            <mxPoint x="980.27" y="1010.2" as="sourcePoint" />
            <mxPoint x="1720.27" y="1010" as="targetPoint" />
          </mxGeometry>
        </mxCell>
        <mxCell id="OZ4XpZ3nQRyZ2qC5zmcx-32" value="show error_message" style="html=1;verticalAlign=bottom;endArrow=open;dashed=1;endSize=8;curved=0;rounded=0;exitX=0;exitY=1;exitDx=0;exitDy=-5;" parent="1" edge="1">
          <mxGeometry relative="1" as="geometry">
            <mxPoint x="1029.9366666666667" y="1060" as="targetPoint" />
            <mxPoint x="1185.27" y="1060" as="sourcePoint" />
          </mxGeometry>
        </mxCell>
        <mxCell id="OZ4XpZ3nQRyZ2qC5zmcx-33" value="error" style="html=1;verticalAlign=bottom;endArrow=open;dashed=1;endSize=8;curved=0;rounded=0;exitX=0;exitY=1;exitDx=0;exitDy=-5;entryX=1;entryY=1;entryDx=0;entryDy=-5;entryPerimeter=0;" parent="1" edge="1">
          <mxGeometry x="-0.0009" relative="1" as="geometry">
            <mxPoint x="1354.27" y="1040" as="targetPoint" />
            <mxPoint x="1505.27" y="1040" as="sourcePoint" />
            <mxPoint as="offset" />
          </mxGeometry>
        </mxCell>
        <mxCell id="OZ4XpZ3nQRyZ2qC5zmcx-34" value="error" style="html=1;verticalAlign=bottom;endArrow=open;dashed=1;endSize=8;curved=0;rounded=0;exitX=0;exitY=1;exitDx=0;exitDy=-5;" parent="1" edge="1">
          <mxGeometry relative="1" as="geometry">
            <mxPoint x="1195.27" y="1050" as="targetPoint" />
            <mxPoint x="1345" y="1050" as="sourcePoint" />
          </mxGeometry>
        </mxCell>
        <mxCell id="OZ4XpZ3nQRyZ2qC5zmcx-35" value="Server error || invalid data" style="text;html=1;align=center;verticalAlign=middle;whiteSpace=wrap;rounded=0;fillColor=default;fontSize=9;" parent="1" vertex="1">
          <mxGeometry x="987.27" y="1018" width="110" height="10" as="geometry" />
        </mxCell>
        <mxCell id="OZ4XpZ3nQRyZ2qC5zmcx-36" value="Company posts a new internship" style="shape=umlFrame;whiteSpace=wrap;html=1;pointerEvents=0;width=190;height=25;" parent="1" vertex="1">
          <mxGeometry x="950.27" y="625" width="800" height="495" as="geometry" />
        </mxCell>
        <mxCell id="6e5MkQeYMWrhU2s1_YXG-86" value="correct new data" style="text;html=1;align=center;verticalAlign=middle;whiteSpace=wrap;rounded=0;fontSize=10;fillColor=default;" parent="1" vertex="1">
          <mxGeometry x="1032" y="402" width="80" height="10" as="geometry" />
        </mxCell>
        <mxCell id="6e5MkQeYMWrhU2s1_YXG-87" value="invalid new data" style="text;html=1;align=center;verticalAlign=middle;whiteSpace=wrap;rounded=0;fontSize=10;fillColor=default;" parent="1" vertex="1">
          <mxGeometry x="993" y="468" width="80" height="10" as="geometry" />
        </mxCell>
        <mxCell id="6e5MkQeYMWrhU2s1_YXG-123" value=":WebApp" style="shape=umlLifeline;perimeter=lifelinePerimeter;whiteSpace=wrap;html=1;container=1;dropTarget=0;collapsible=0;recursiveResize=0;outlineConnect=0;portConstraint=eastwest;newEdgeStyle={&quot;curved&quot;:0,&quot;rounded&quot;:0};" parent="1" vertex="1">
          <mxGeometry x="40" y="2040" width="100" height="435" as="geometry" />
        </mxCell>
        <mxCell id="6e5MkQeYMWrhU2s1_YXG-124" value=":Web Server" style="shape=umlLifeline;perimeter=lifelinePerimeter;whiteSpace=wrap;html=1;container=1;dropTarget=0;collapsible=0;recursiveResize=0;outlineConnect=0;portConstraint=eastwest;newEdgeStyle={&quot;curved&quot;:0,&quot;rounded&quot;:0};" parent="1" vertex="1">
          <mxGeometry x="240" y="2040" width="100" height="435" as="geometry" />
        </mxCell>
        <mxCell id="6e5MkQeYMWrhU2s1_YXG-125" value="" style="html=1;points=[[0,0,0,0,5],[0,1,0,0,-5],[1,0,0,0,5],[1,1,0,0,-5]];perimeter=orthogonalPerimeter;outlineConnect=0;targetShapes=umlLifeline;portConstraint=eastwest;newEdgeStyle={&quot;curved&quot;:0,&quot;rounded&quot;:0};" parent="6e5MkQeYMWrhU2s1_YXG-124" vertex="1">
          <mxGeometry x="45" y="70" width="10" height="70" as="geometry" />
        </mxCell>
        <mxCell id="6e5MkQeYMWrhU2s1_YXG-126" value="" style="html=1;points=[[0,0,0,0,5],[0,1,0,0,-5],[1,0,0,0,5],[1,1,0,0,-5]];perimeter=orthogonalPerimeter;outlineConnect=0;targetShapes=umlLifeline;portConstraint=eastwest;newEdgeStyle={&quot;curved&quot;:0,&quot;rounded&quot;:0};" parent="6e5MkQeYMWrhU2s1_YXG-124" vertex="1">
          <mxGeometry x="45" y="165" width="10" height="230" as="geometry" />
        </mxCell>
        <mxCell id="6e5MkQeYMWrhU2s1_YXG-127" value=":API Server" style="shape=umlLifeline;perimeter=lifelinePerimeter;whiteSpace=wrap;html=1;container=1;dropTarget=0;collapsible=0;recursiveResize=0;outlineConnect=0;portConstraint=eastwest;newEdgeStyle={&quot;curved&quot;:0,&quot;rounded&quot;:0};" parent="1" vertex="1">
          <mxGeometry x="399.73" y="2040" width="100" height="435" as="geometry" />
        </mxCell>
        <mxCell id="6e5MkQeYMWrhU2s1_YXG-128" value="" style="html=1;points=[[0,0,0,0,5],[0,1,0,0,-5],[1,0,0,0,5],[1,1,0,0,-5]];perimeter=orthogonalPerimeter;outlineConnect=0;targetShapes=umlLifeline;portConstraint=eastwest;newEdgeStyle={&quot;curved&quot;:0,&quot;rounded&quot;:0};" parent="6e5MkQeYMWrhU2s1_YXG-127" vertex="1">
          <mxGeometry x="44.27" y="175" width="10" height="210" as="geometry" />
        </mxCell>
        <mxCell id="6e5MkQeYMWrhU2s1_YXG-129" value=":Complaint Manager" style="shape=umlLifeline;perimeter=lifelinePerimeter;whiteSpace=wrap;html=1;container=1;dropTarget=0;collapsible=0;recursiveResize=0;outlineConnect=0;portConstraint=eastwest;newEdgeStyle={&quot;curved&quot;:0,&quot;rounded&quot;:0};" parent="1" vertex="1">
          <mxGeometry x="560" y="2040" width="100" height="435" as="geometry" />
        </mxCell>
        <mxCell id="6e5MkQeYMWrhU2s1_YXG-130" value="" style="html=1;points=[[0,0,0,0,5],[0,1,0,0,-5],[1,0,0,0,5],[1,1,0,0,-5]];perimeter=orthogonalPerimeter;outlineConnect=0;targetShapes=umlLifeline;portConstraint=eastwest;newEdgeStyle={&quot;curved&quot;:0,&quot;rounded&quot;:0};" parent="6e5MkQeYMWrhU2s1_YXG-129" vertex="1">
          <mxGeometry x="45" y="185" width="10" height="190" as="geometry" />
        </mxCell>
        <mxCell id="6e5MkQeYMWrhU2s1_YXG-131" value=":DBMS" style="shape=umlLifeline;perimeter=lifelinePerimeter;whiteSpace=wrap;html=1;container=1;dropTarget=0;collapsible=0;recursiveResize=0;outlineConnect=0;portConstraint=eastwest;newEdgeStyle={&quot;curved&quot;:0,&quot;rounded&quot;:0};" parent="1" vertex="1">
          <mxGeometry x="730" y="2040" width="100" height="435" as="geometry" />
        </mxCell>
        <mxCell id="6e5MkQeYMWrhU2s1_YXG-132" value="" style="html=1;points=[[0,0,0,0,5],[0,1,0,0,-5],[1,0,0,0,5],[1,1,0,0,-5]];perimeter=orthogonalPerimeter;outlineConnect=0;targetShapes=umlLifeline;portConstraint=eastwest;newEdgeStyle={&quot;curved&quot;:0,&quot;rounded&quot;:0};" parent="6e5MkQeYMWrhU2s1_YXG-131" vertex="1">
          <mxGeometry x="45" y="195" width="10" height="50" as="geometry" />
        </mxCell>
        <mxCell id="6e5MkQeYMWrhU2s1_YXG-133" value="request(on_going_internship_page)" style="html=1;verticalAlign=bottom;endArrow=block;curved=0;rounded=0;entryX=0;entryY=0;entryDx=0;entryDy=5;" parent="1" source="6e5MkQeYMWrhU2s1_YXG-123" edge="1">
          <mxGeometry x="0.0023" relative="1" as="geometry">
            <mxPoint x="129.92857142857156" y="2120" as="sourcePoint" />
            <mxPoint x="285" y="2120" as="targetPoint" />
            <mxPoint as="offset" />
          </mxGeometry>
        </mxCell>
        <mxCell id="6e5MkQeYMWrhU2s1_YXG-134" value="on_going_internship_page" style="html=1;verticalAlign=bottom;endArrow=open;dashed=1;endSize=8;curved=0;rounded=0;exitX=0;exitY=1;exitDx=0;exitDy=-5;" parent="1" target="6e5MkQeYMWrhU2s1_YXG-123" edge="1">
          <mxGeometry relative="1" as="geometry">
            <mxPoint x="129.89393939393926" y="2165" as="targetPoint" />
            <mxPoint x="285" y="2165" as="sourcePoint" />
          </mxGeometry>
        </mxCell>
        <mxCell id="6e5MkQeYMWrhU2s1_YXG-135" value="submitComplaint(complaint)" style="html=1;verticalAlign=bottom;endArrow=block;curved=0;rounded=0;entryX=0;entryY=0;entryDx=0;entryDy=5;" parent="1" source="6e5MkQeYMWrhU2s1_YXG-123" edge="1">
          <mxGeometry relative="1" as="geometry">
            <mxPoint x="129.92857142857156" y="2215" as="sourcePoint" />
            <mxPoint x="285" y="2215" as="targetPoint" />
          </mxGeometry>
        </mxCell>
        <mxCell id="6e5MkQeYMWrhU2s1_YXG-136" value="show success_message" style="html=1;verticalAlign=bottom;endArrow=open;dashed=1;endSize=8;curved=0;rounded=0;exitX=0;exitY=1;exitDx=0;exitDy=-5;" parent="1" target="6e5MkQeYMWrhU2s1_YXG-123" edge="1">
          <mxGeometry relative="1" as="geometry">
            <mxPoint x="129.66666666666674" y="2345" as="targetPoint" />
            <mxPoint x="285" y="2345" as="sourcePoint" />
          </mxGeometry>
        </mxCell>
        <mxCell id="6e5MkQeYMWrhU2s1_YXG-137" value="submitComplaint(complaint)" style="html=1;verticalAlign=bottom;endArrow=block;curved=0;rounded=0;entryX=0;entryY=0;entryDx=0;entryDy=5;" parent="1" edge="1">
          <mxGeometry relative="1" as="geometry">
            <mxPoint x="295.73" y="2225" as="sourcePoint" />
            <mxPoint x="444.73" y="2225" as="targetPoint" />
          </mxGeometry>
        </mxCell>
        <mxCell id="6e5MkQeYMWrhU2s1_YXG-138" value="submitComplaint(complaint)" style="html=1;verticalAlign=bottom;endArrow=block;curved=0;rounded=0;entryX=0;entryY=0;entryDx=0;entryDy=5;" parent="1" edge="1">
          <mxGeometry relative="1" as="geometry">
            <mxPoint x="454" y="2235" as="sourcePoint" />
            <mxPoint x="605" y="2235" as="targetPoint" />
          </mxGeometry>
        </mxCell>
        <mxCell id="6e5MkQeYMWrhU2s1_YXG-139" value="addComplaint(complaint)" style="html=1;verticalAlign=bottom;endArrow=block;curved=0;rounded=0;" parent="1" edge="1">
          <mxGeometry relative="1" as="geometry">
            <mxPoint x="615" y="2249.8599999999997" as="sourcePoint" />
            <mxPoint x="775" y="2249.8599999999997" as="targetPoint" />
          </mxGeometry>
        </mxCell>
        <mxCell id="6e5MkQeYMWrhU2s1_YXG-140" value="ACK" style="html=1;verticalAlign=bottom;endArrow=open;dashed=1;endSize=8;curved=0;rounded=0;" parent="1" source="6e5MkQeYMWrhU2s1_YXG-132" edge="1">
          <mxGeometry relative="1" as="geometry">
            <mxPoint x="615" y="2275" as="targetPoint" />
            <mxPoint x="765" y="2275" as="sourcePoint" />
          </mxGeometry>
        </mxCell>
        <mxCell id="6e5MkQeYMWrhU2s1_YXG-141" value="success" style="html=1;verticalAlign=bottom;endArrow=open;dashed=1;endSize=8;curved=0;rounded=0;exitX=0;exitY=1;exitDx=0;exitDy=-5;entryX=1;entryY=1;entryDx=0;entryDy=-5;entryPerimeter=0;" parent="1" edge="1">
          <mxGeometry relative="1" as="geometry">
            <mxPoint x="454" y="2325" as="targetPoint" />
            <mxPoint x="605" y="2325" as="sourcePoint" />
          </mxGeometry>
        </mxCell>
        <mxCell id="6e5MkQeYMWrhU2s1_YXG-142" value="success" style="html=1;verticalAlign=bottom;endArrow=open;dashed=1;endSize=8;curved=0;rounded=0;exitX=0;exitY=1;exitDx=0;exitDy=-5;" parent="1" edge="1">
          <mxGeometry relative="1" as="geometry">
            <mxPoint x="295" y="2335" as="targetPoint" />
            <mxPoint x="444.73" y="2335" as="sourcePoint" />
          </mxGeometry>
        </mxCell>
        <mxCell id="6e5MkQeYMWrhU2s1_YXG-143" value="alt" style="shape=umlFrame;whiteSpace=wrap;html=1;pointerEvents=0;width=40;height=20;" parent="1" vertex="1">
          <mxGeometry x="40" y="2295" width="780" height="160" as="geometry" />
        </mxCell>
        <mxCell id="6e5MkQeYMWrhU2s1_YXG-144" value="" style="endArrow=none;dashed=1;html=1;rounded=0;entryX=1;entryY=0.499;entryDx=0;entryDy=0;entryPerimeter=0;" parent="1" edge="1">
          <mxGeometry width="50" height="50" relative="1" as="geometry">
            <mxPoint x="40" y="2375" as="sourcePoint" />
            <mxPoint x="820" y="2375" as="targetPoint" />
          </mxGeometry>
        </mxCell>
        <mxCell id="6e5MkQeYMWrhU2s1_YXG-145" value="show error_message" style="html=1;verticalAlign=bottom;endArrow=open;dashed=1;endSize=8;curved=0;rounded=0;exitX=0;exitY=1;exitDx=0;exitDy=-5;" parent="1" target="6e5MkQeYMWrhU2s1_YXG-123" edge="1">
          <mxGeometry relative="1" as="geometry">
            <mxPoint x="129.66666666666674" y="2425" as="targetPoint" />
            <mxPoint x="285" y="2425" as="sourcePoint" />
          </mxGeometry>
        </mxCell>
        <mxCell id="6e5MkQeYMWrhU2s1_YXG-146" value="error" style="html=1;verticalAlign=bottom;endArrow=open;dashed=1;endSize=8;curved=0;rounded=0;exitX=0;exitY=1;exitDx=0;exitDy=-5;entryX=1;entryY=1;entryDx=0;entryDy=-5;entryPerimeter=0;" parent="1" edge="1">
          <mxGeometry x="-0.0009" relative="1" as="geometry">
            <mxPoint x="454" y="2405" as="targetPoint" />
            <mxPoint x="605" y="2405" as="sourcePoint" />
            <mxPoint as="offset" />
          </mxGeometry>
        </mxCell>
        <mxCell id="6e5MkQeYMWrhU2s1_YXG-147" value="error" style="html=1;verticalAlign=bottom;endArrow=open;dashed=1;endSize=8;curved=0;rounded=0;exitX=0;exitY=1;exitDx=0;exitDy=-5;" parent="1" edge="1">
          <mxGeometry relative="1" as="geometry">
            <mxPoint x="295" y="2415" as="targetPoint" />
            <mxPoint x="444.73" y="2415" as="sourcePoint" />
          </mxGeometry>
        </mxCell>
        <mxCell id="6e5MkQeYMWrhU2s1_YXG-149" value="Student or Company submits a complaint" style="shape=umlFrame;whiteSpace=wrap;html=1;pointerEvents=0;width=250;height=30;" parent="1" vertex="1">
          <mxGeometry x="20" y="1990" width="830" height="495" as="geometry" />
        </mxCell>
        <mxCell id="OZ4XpZ3nQRyZ2qC5zmcx-38" value=":Notification&lt;br&gt;Manager" style="shape=umlLifeline;perimeter=lifelinePerimeter;whiteSpace=wrap;html=1;container=1;dropTarget=0;collapsible=0;recursiveResize=0;outlineConnect=0;portConstraint=eastwest;newEdgeStyle={&quot;curved&quot;:0,&quot;rounded&quot;:0};" parent="1" vertex="1">
          <mxGeometry x="1625.13" y="1220" width="100" height="500" as="geometry" />
        </mxCell>
        <mxCell id="6e5MkQeYMWrhU2s1_YXG-188" value=":WebApp" style="shape=umlLifeline;perimeter=lifelinePerimeter;whiteSpace=wrap;html=1;container=1;dropTarget=0;collapsible=0;recursiveResize=0;outlineConnect=0;portConstraint=eastwest;newEdgeStyle={&quot;curved&quot;:0,&quot;rounded&quot;:0};" parent="1" vertex="1">
          <mxGeometry x="40" y="2570" width="100" height="435" as="geometry" />
        </mxCell>
        <mxCell id="6e5MkQeYMWrhU2s1_YXG-189" value=":Web Server" style="shape=umlLifeline;perimeter=lifelinePerimeter;whiteSpace=wrap;html=1;container=1;dropTarget=0;collapsible=0;recursiveResize=0;outlineConnect=0;portConstraint=eastwest;newEdgeStyle={&quot;curved&quot;:0,&quot;rounded&quot;:0};" parent="1" vertex="1">
          <mxGeometry x="240" y="2570" width="100" height="435" as="geometry" />
        </mxCell>
        <mxCell id="6e5MkQeYMWrhU2s1_YXG-190" value="" style="html=1;points=[[0,0,0,0,5],[0,1,0,0,-5],[1,0,0,0,5],[1,1,0,0,-5]];perimeter=orthogonalPerimeter;outlineConnect=0;targetShapes=umlLifeline;portConstraint=eastwest;newEdgeStyle={&quot;curved&quot;:0,&quot;rounded&quot;:0};" parent="6e5MkQeYMWrhU2s1_YXG-189" vertex="1">
          <mxGeometry x="45" y="70" width="10" height="70" as="geometry" />
        </mxCell>
        <mxCell id="6e5MkQeYMWrhU2s1_YXG-191" value="" style="html=1;points=[[0,0,0,0,5],[0,1,0,0,-5],[1,0,0,0,5],[1,1,0,0,-5]];perimeter=orthogonalPerimeter;outlineConnect=0;targetShapes=umlLifeline;portConstraint=eastwest;newEdgeStyle={&quot;curved&quot;:0,&quot;rounded&quot;:0};" parent="6e5MkQeYMWrhU2s1_YXG-189" vertex="1">
          <mxGeometry x="45" y="165" width="10" height="230" as="geometry" />
        </mxCell>
        <mxCell id="6e5MkQeYMWrhU2s1_YXG-192" value=":API Server" style="shape=umlLifeline;perimeter=lifelinePerimeter;whiteSpace=wrap;html=1;container=1;dropTarget=0;collapsible=0;recursiveResize=0;outlineConnect=0;portConstraint=eastwest;newEdgeStyle={&quot;curved&quot;:0,&quot;rounded&quot;:0};" parent="1" vertex="1">
          <mxGeometry x="399.73" y="2570" width="100" height="435" as="geometry" />
        </mxCell>
        <mxCell id="6e5MkQeYMWrhU2s1_YXG-193" value="" style="html=1;points=[[0,0,0,0,5],[0,1,0,0,-5],[1,0,0,0,5],[1,1,0,0,-5]];perimeter=orthogonalPerimeter;outlineConnect=0;targetShapes=umlLifeline;portConstraint=eastwest;newEdgeStyle={&quot;curved&quot;:0,&quot;rounded&quot;:0};" parent="6e5MkQeYMWrhU2s1_YXG-192" vertex="1">
          <mxGeometry x="44.27" y="175" width="10" height="210" as="geometry" />
        </mxCell>
        <mxCell id="6e5MkQeYMWrhU2s1_YXG-194" value=":Feedback Manager" style="shape=umlLifeline;perimeter=lifelinePerimeter;whiteSpace=wrap;html=1;container=1;dropTarget=0;collapsible=0;recursiveResize=0;outlineConnect=0;portConstraint=eastwest;newEdgeStyle={&quot;curved&quot;:0,&quot;rounded&quot;:0};" parent="1" vertex="1">
          <mxGeometry x="560" y="2570" width="100" height="435" as="geometry" />
        </mxCell>
        <mxCell id="6e5MkQeYMWrhU2s1_YXG-195" value="" style="html=1;points=[[0,0,0,0,5],[0,1,0,0,-5],[1,0,0,0,5],[1,1,0,0,-5]];perimeter=orthogonalPerimeter;outlineConnect=0;targetShapes=umlLifeline;portConstraint=eastwest;newEdgeStyle={&quot;curved&quot;:0,&quot;rounded&quot;:0};" parent="6e5MkQeYMWrhU2s1_YXG-194" vertex="1">
          <mxGeometry x="45" y="185" width="10" height="190" as="geometry" />
        </mxCell>
        <mxCell id="6e5MkQeYMWrhU2s1_YXG-196" value=":DBMS" style="shape=umlLifeline;perimeter=lifelinePerimeter;whiteSpace=wrap;html=1;container=1;dropTarget=0;collapsible=0;recursiveResize=0;outlineConnect=0;portConstraint=eastwest;newEdgeStyle={&quot;curved&quot;:0,&quot;rounded&quot;:0};" parent="1" vertex="1">
          <mxGeometry x="730" y="2570" width="100" height="435" as="geometry" />
        </mxCell>
        <mxCell id="6e5MkQeYMWrhU2s1_YXG-197" value="" style="html=1;points=[[0,0,0,0,5],[0,1,0,0,-5],[1,0,0,0,5],[1,1,0,0,-5]];perimeter=orthogonalPerimeter;outlineConnect=0;targetShapes=umlLifeline;portConstraint=eastwest;newEdgeStyle={&quot;curved&quot;:0,&quot;rounded&quot;:0};" parent="6e5MkQeYMWrhU2s1_YXG-196" vertex="1">
          <mxGeometry x="45" y="195" width="10" height="50" as="geometry" />
        </mxCell>
        <mxCell id="6e5MkQeYMWrhU2s1_YXG-198" value="request(terminated_internship_page)" style="html=1;verticalAlign=bottom;endArrow=block;curved=0;rounded=0;entryX=0;entryY=0;entryDx=0;entryDy=5;" parent="1" source="6e5MkQeYMWrhU2s1_YXG-188" edge="1">
          <mxGeometry x="0.0023" relative="1" as="geometry">
            <mxPoint x="129.92857142857156" y="2650" as="sourcePoint" />
            <mxPoint x="285" y="2650" as="targetPoint" />
            <mxPoint as="offset" />
          </mxGeometry>
        </mxCell>
        <mxCell id="6e5MkQeYMWrhU2s1_YXG-199" value="terminated_internship_page" style="html=1;verticalAlign=bottom;endArrow=open;dashed=1;endSize=8;curved=0;rounded=0;exitX=0;exitY=1;exitDx=0;exitDy=-5;" parent="1" target="6e5MkQeYMWrhU2s1_YXG-188" edge="1">
          <mxGeometry relative="1" as="geometry">
            <mxPoint x="129.89393939393926" y="2695" as="targetPoint" />
            <mxPoint x="285" y="2695" as="sourcePoint" />
          </mxGeometry>
        </mxCell>
        <mxCell id="6e5MkQeYMWrhU2s1_YXG-200" value="submitFeedback(feedback)" style="html=1;verticalAlign=bottom;endArrow=block;curved=0;rounded=0;entryX=0;entryY=0;entryDx=0;entryDy=5;" parent="1" source="6e5MkQeYMWrhU2s1_YXG-188" edge="1">
          <mxGeometry relative="1" as="geometry">
            <mxPoint x="129.92857142857156" y="2745" as="sourcePoint" />
            <mxPoint x="285" y="2745" as="targetPoint" />
          </mxGeometry>
        </mxCell>
        <mxCell id="6e5MkQeYMWrhU2s1_YXG-201" value="show success_message" style="html=1;verticalAlign=bottom;endArrow=open;dashed=1;endSize=8;curved=0;rounded=0;exitX=0;exitY=1;exitDx=0;exitDy=-5;" parent="1" target="6e5MkQeYMWrhU2s1_YXG-188" edge="1">
          <mxGeometry relative="1" as="geometry">
            <mxPoint x="129.66666666666674" y="2875" as="targetPoint" />
            <mxPoint x="285" y="2875" as="sourcePoint" />
          </mxGeometry>
        </mxCell>
        <mxCell id="6e5MkQeYMWrhU2s1_YXG-202" value="submitFeedback(feedback)" style="html=1;verticalAlign=bottom;endArrow=block;curved=0;rounded=0;entryX=0;entryY=0;entryDx=0;entryDy=5;" parent="1" edge="1">
          <mxGeometry relative="1" as="geometry">
            <mxPoint x="295.73" y="2755" as="sourcePoint" />
            <mxPoint x="444.73" y="2755" as="targetPoint" />
          </mxGeometry>
        </mxCell>
        <mxCell id="6e5MkQeYMWrhU2s1_YXG-203" value="submitFeedback(feedback)" style="html=1;verticalAlign=bottom;endArrow=block;curved=0;rounded=0;entryX=0;entryY=0;entryDx=0;entryDy=5;" parent="1" edge="1">
          <mxGeometry relative="1" as="geometry">
            <mxPoint x="454" y="2765" as="sourcePoint" />
            <mxPoint x="605" y="2765" as="targetPoint" />
          </mxGeometry>
        </mxCell>
        <mxCell id="6e5MkQeYMWrhU2s1_YXG-204" value="addFeedback(feedback)" style="html=1;verticalAlign=bottom;endArrow=block;curved=0;rounded=0;" parent="1" edge="1">
          <mxGeometry relative="1" as="geometry">
            <mxPoint x="615" y="2779.8599999999997" as="sourcePoint" />
            <mxPoint x="775" y="2779.8599999999997" as="targetPoint" />
          </mxGeometry>
        </mxCell>
        <mxCell id="6e5MkQeYMWrhU2s1_YXG-205" value="ACK" style="html=1;verticalAlign=bottom;endArrow=open;dashed=1;endSize=8;curved=0;rounded=0;" parent="1" source="6e5MkQeYMWrhU2s1_YXG-197" edge="1">
          <mxGeometry relative="1" as="geometry">
            <mxPoint x="615" y="2805" as="targetPoint" />
            <mxPoint x="765" y="2805" as="sourcePoint" />
          </mxGeometry>
        </mxCell>
        <mxCell id="6e5MkQeYMWrhU2s1_YXG-206" value="success" style="html=1;verticalAlign=bottom;endArrow=open;dashed=1;endSize=8;curved=0;rounded=0;exitX=0;exitY=1;exitDx=0;exitDy=-5;entryX=1;entryY=1;entryDx=0;entryDy=-5;entryPerimeter=0;" parent="1" edge="1">
          <mxGeometry relative="1" as="geometry">
            <mxPoint x="454" y="2855" as="targetPoint" />
            <mxPoint x="605" y="2855" as="sourcePoint" />
          </mxGeometry>
        </mxCell>
        <mxCell id="6e5MkQeYMWrhU2s1_YXG-207" value="success" style="html=1;verticalAlign=bottom;endArrow=open;dashed=1;endSize=8;curved=0;rounded=0;exitX=0;exitY=1;exitDx=0;exitDy=-5;" parent="1" edge="1">
          <mxGeometry relative="1" as="geometry">
            <mxPoint x="295" y="2865" as="targetPoint" />
            <mxPoint x="444.73" y="2865" as="sourcePoint" />
          </mxGeometry>
        </mxCell>
        <mxCell id="6e5MkQeYMWrhU2s1_YXG-208" value="alt" style="shape=umlFrame;whiteSpace=wrap;html=1;pointerEvents=0;width=40;height=20;" parent="1" vertex="1">
          <mxGeometry x="40" y="2825" width="780" height="160" as="geometry" />
        </mxCell>
        <mxCell id="6e5MkQeYMWrhU2s1_YXG-209" value="" style="endArrow=none;dashed=1;html=1;rounded=0;entryX=1;entryY=0.499;entryDx=0;entryDy=0;entryPerimeter=0;" parent="1" edge="1">
          <mxGeometry width="50" height="50" relative="1" as="geometry">
            <mxPoint x="40" y="2905" as="sourcePoint" />
            <mxPoint x="820" y="2905" as="targetPoint" />
          </mxGeometry>
        </mxCell>
        <mxCell id="6e5MkQeYMWrhU2s1_YXG-210" value="show error_message" style="html=1;verticalAlign=bottom;endArrow=open;dashed=1;endSize=8;curved=0;rounded=0;exitX=0;exitY=1;exitDx=0;exitDy=-5;" parent="1" target="6e5MkQeYMWrhU2s1_YXG-188" edge="1">
          <mxGeometry relative="1" as="geometry">
            <mxPoint x="129.66666666666674" y="2955" as="targetPoint" />
            <mxPoint x="285" y="2955" as="sourcePoint" />
          </mxGeometry>
        </mxCell>
        <mxCell id="6e5MkQeYMWrhU2s1_YXG-211" value="error" style="html=1;verticalAlign=bottom;endArrow=open;dashed=1;endSize=8;curved=0;rounded=0;exitX=0;exitY=1;exitDx=0;exitDy=-5;entryX=1;entryY=1;entryDx=0;entryDy=-5;entryPerimeter=0;" parent="1" edge="1">
          <mxGeometry x="-0.0009" relative="1" as="geometry">
            <mxPoint x="454" y="2935" as="targetPoint" />
            <mxPoint x="605" y="2935" as="sourcePoint" />
            <mxPoint as="offset" />
          </mxGeometry>
        </mxCell>
        <mxCell id="6e5MkQeYMWrhU2s1_YXG-212" value="error" style="html=1;verticalAlign=bottom;endArrow=open;dashed=1;endSize=8;curved=0;rounded=0;exitX=0;exitY=1;exitDx=0;exitDy=-5;" parent="1" edge="1">
          <mxGeometry relative="1" as="geometry">
            <mxPoint x="295" y="2945" as="targetPoint" />
            <mxPoint x="444.73" y="2945" as="sourcePoint" />
          </mxGeometry>
        </mxCell>
        <mxCell id="6e5MkQeYMWrhU2s1_YXG-213" value="Student or Company submits a feedback" style="shape=umlFrame;whiteSpace=wrap;html=1;pointerEvents=0;width=250;height=30;" parent="1" vertex="1">
          <mxGeometry x="20" y="2520" width="830" height="495" as="geometry" />
        </mxCell>
        <mxCell id="OZ4XpZ3nQRyZ2qC5zmcx-40" value="alt" style="shape=umlFrame;whiteSpace=wrap;html=1;pointerEvents=0;width=40;height=20;" parent="1" vertex="1">
          <mxGeometry x="980" y="1280" width="1150" height="210" as="geometry" />
        </mxCell>
        <mxCell id="OZ4XpZ3nQRyZ2qC5zmcx-41" value="" style="endArrow=none;dashed=1;html=1;rounded=0;entryX=0.997;entryY=0.758;entryDx=0;entryDy=0;entryPerimeter=0;" parent="1" target="OZ4XpZ3nQRyZ2qC5zmcx-40" edge="1">
          <mxGeometry width="50" height="50" relative="1" as="geometry">
            <mxPoint x="980" y="1440.25" as="sourcePoint" />
            <mxPoint x="1890.9099999999999" y="1440" as="targetPoint" />
          </mxGeometry>
        </mxCell>
        <mxCell id="OZ4XpZ3nQRyZ2qC5zmcx-43" value="request(candidates_page)" style="html=1;verticalAlign=bottom;endArrow=block;curved=0;rounded=0;" parent="1" edge="1">
          <mxGeometry x="0.0023" relative="1" as="geometry">
            <mxPoint x="1030.0385714285715" y="1324.05" as="sourcePoint" />
            <mxPoint x="1190" y="1324" as="targetPoint" />
            <mxPoint as="offset" />
          </mxGeometry>
        </mxCell>
        <mxCell id="OZ4XpZ3nQRyZ2qC5zmcx-44" value="candidates_page" style="html=1;verticalAlign=bottom;endArrow=open;dashed=1;endSize=8;curved=0;rounded=0;" parent="1" edge="1">
          <mxGeometry relative="1" as="geometry">
            <mxPoint x="1030.003939393939" y="1419.05" as="targetPoint" />
            <mxPoint x="1189.9999999999998" y="1419" as="sourcePoint" />
          </mxGeometry>
        </mxCell>
        <mxCell id="OZ4XpZ3nQRyZ2qC5zmcx-45" value="sendNotification(newSuitableStudent)" style="html=1;verticalAlign=bottom;endArrow=block;curved=0;rounded=0;exitX=0.449;exitY=0.683;exitDx=0;exitDy=0;exitPerimeter=0;" parent="1" target="diQuAST23YdK09CmSaxM-85" edge="1">
          <mxGeometry width="80" relative="1" as="geometry">
            <mxPoint x="1674.8699999999997" y="1465.88" as="sourcePoint" />
            <mxPoint x="1034.8404347826086" y="1466" as="targetPoint" />
          </mxGeometry>
        </mxCell>
        <mxCell id="OZ4XpZ3nQRyZ2qC5zmcx-46" value="request(student_page_detail)" style="html=1;verticalAlign=bottom;endArrow=block;curved=0;rounded=0;" parent="1" edge="1">
          <mxGeometry x="0.0023" relative="1" as="geometry">
            <mxPoint x="1030.1685714285716" y="1519.18" as="sourcePoint" />
            <mxPoint x="1190.13" y="1519.13" as="targetPoint" />
            <mxPoint as="offset" />
          </mxGeometry>
        </mxCell>
        <mxCell id="OZ4XpZ3nQRyZ2qC5zmcx-47" value="student_page_details" style="html=1;verticalAlign=bottom;endArrow=open;dashed=1;endSize=8;curved=0;rounded=0;" parent="1" edge="1">
          <mxGeometry relative="1" as="geometry">
            <mxPoint x="1030.0039393939392" y="1616.05" as="targetPoint" />
            <mxPoint x="1190" y="1616" as="sourcePoint" />
          </mxGeometry>
        </mxCell>
        <mxCell id="6e5MkQeYMWrhU2s1_YXG-214" value="University interrupts an internship" style="shape=umlFrame;whiteSpace=wrap;html=1;pointerEvents=0;width=220;height=20;" parent="1" vertex="1">
          <mxGeometry x="960.27" y="1990" width="959.73" height="400" as="geometry" />
        </mxCell>
        <mxCell id="6e5MkQeYMWrhU2s1_YXG-215" value=":WebApp" style="shape=umlLifeline;perimeter=lifelinePerimeter;whiteSpace=wrap;html=1;container=1;dropTarget=0;collapsible=0;recursiveResize=0;outlineConnect=0;portConstraint=eastwest;newEdgeStyle={&quot;curved&quot;:0,&quot;rounded&quot;:0};" parent="1" vertex="1">
          <mxGeometry x="990" y="2030" width="100" height="350" as="geometry" />
        </mxCell>
        <mxCell id="6e5MkQeYMWrhU2s1_YXG-254" value="" style="html=1;points=[[0,0,0,0,5],[0,1,0,0,-5],[1,0,0,0,5],[1,1,0,0,-5]];perimeter=orthogonalPerimeter;outlineConnect=0;targetShapes=umlLifeline;portConstraint=eastwest;newEdgeStyle={&quot;curved&quot;:0,&quot;rounded&quot;:0};" parent="6e5MkQeYMWrhU2s1_YXG-215" vertex="1">
          <mxGeometry x="45" y="130" width="10" height="40" as="geometry" />
        </mxCell>
        <mxCell id="6e5MkQeYMWrhU2s1_YXG-255" value="evaluation" style="html=1;align=left;spacingLeft=2;endArrow=block;rounded=0;edgeStyle=orthogonalEdgeStyle;curved=0;rounded=0;" parent="6e5MkQeYMWrhU2s1_YXG-215" target="6e5MkQeYMWrhU2s1_YXG-254" edge="1">
          <mxGeometry relative="1" as="geometry">
            <mxPoint x="50" y="110" as="sourcePoint" />
            <Array as="points">
              <mxPoint x="80" y="140" />
            </Array>
          </mxGeometry>
        </mxCell>
        <mxCell id="6e5MkQeYMWrhU2s1_YXG-216" value=":Web Server" style="shape=umlLifeline;perimeter=lifelinePerimeter;whiteSpace=wrap;html=1;container=1;dropTarget=0;collapsible=0;recursiveResize=0;outlineConnect=0;portConstraint=eastwest;newEdgeStyle={&quot;curved&quot;:0,&quot;rounded&quot;:0};" parent="1" vertex="1">
          <mxGeometry x="1150.27" y="2030" width="100" height="350" as="geometry" />
        </mxCell>
        <mxCell id="6e5MkQeYMWrhU2s1_YXG-217" value=":API Server" style="shape=umlLifeline;perimeter=lifelinePerimeter;whiteSpace=wrap;html=1;container=1;dropTarget=0;collapsible=0;recursiveResize=0;outlineConnect=0;portConstraint=eastwest;newEdgeStyle={&quot;curved&quot;:0,&quot;rounded&quot;:0};" parent="1" vertex="1">
          <mxGeometry x="1310.27" y="2030" width="100" height="350" as="geometry" />
        </mxCell>
        <mxCell id="6e5MkQeYMWrhU2s1_YXG-218" value=":Internship Manager" style="shape=umlLifeline;perimeter=lifelinePerimeter;whiteSpace=wrap;html=1;container=1;dropTarget=0;collapsible=0;recursiveResize=0;outlineConnect=0;portConstraint=eastwest;newEdgeStyle={&quot;curved&quot;:0,&quot;rounded&quot;:0};" parent="1" vertex="1">
          <mxGeometry x="1470.27" y="2030" width="100" height="350" as="geometry" />
        </mxCell>
        <mxCell id="6e5MkQeYMWrhU2s1_YXG-219" value=":DBMS" style="shape=umlLifeline;perimeter=lifelinePerimeter;whiteSpace=wrap;html=1;container=1;dropTarget=0;collapsible=0;recursiveResize=0;outlineConnect=0;portConstraint=eastwest;newEdgeStyle={&quot;curved&quot;:0,&quot;rounded&quot;:0};" parent="1" vertex="1">
          <mxGeometry x="1790" y="2030" width="100" height="350" as="geometry" />
        </mxCell>
        <mxCell id="6e5MkQeYMWrhU2s1_YXG-221" value="" style="html=1;points=[[0,0,0,0,5],[0,1,0,0,-5],[1,0,0,0,5],[1,1,0,0,-5]];perimeter=orthogonalPerimeter;outlineConnect=0;targetShapes=umlLifeline;portConstraint=eastwest;newEdgeStyle={&quot;curved&quot;:0,&quot;rounded&quot;:0};" parent="1" vertex="1">
          <mxGeometry x="1355.0000000000002" y="2252.5" width="10" height="90" as="geometry" />
        </mxCell>
        <mxCell id="6e5MkQeYMWrhU2s1_YXG-222" value="" style="html=1;points=[[0,0,0,0,5],[0,1,0,0,-5],[1,0,0,0,5],[1,1,0,0,-5]];perimeter=orthogonalPerimeter;outlineConnect=0;targetShapes=umlLifeline;portConstraint=eastwest;newEdgeStyle={&quot;curved&quot;:0,&quot;rounded&quot;:0};" parent="1" vertex="1">
          <mxGeometry x="1515.2700000000002" y="2262.5" width="10" height="70" as="geometry" />
        </mxCell>
        <mxCell id="6e5MkQeYMWrhU2s1_YXG-223" value="" style="html=1;points=[[0,0,0,0,5],[0,1,0,0,-5],[1,0,0,0,5],[1,1,0,0,-5]];perimeter=orthogonalPerimeter;outlineConnect=0;targetShapes=umlLifeline;portConstraint=eastwest;newEdgeStyle={&quot;curved&quot;:0,&quot;rounded&quot;:0};" parent="1" vertex="1">
          <mxGeometry x="1835.0000000000002" y="2272.5" width="10" height="50" as="geometry" />
        </mxCell>
        <mxCell id="6e5MkQeYMWrhU2s1_YXG-224" value="interruptInternship(internship)" style="html=1;verticalAlign=bottom;endArrow=block;curved=0;rounded=0;entryX=0;entryY=0;entryDx=0;entryDy=5;" parent="1" edge="1">
          <mxGeometry x="-0.0005" relative="1" as="geometry">
            <mxPoint x="1040.1985714285718" y="2252.5" as="sourcePoint" />
            <mxPoint x="1195.2700000000002" y="2252.5" as="targetPoint" />
            <mxPoint as="offset" />
          </mxGeometry>
        </mxCell>
        <mxCell id="6e5MkQeYMWrhU2s1_YXG-225" value="show confirmation_message" style="html=1;verticalAlign=bottom;endArrow=open;dashed=1;endSize=8;curved=0;rounded=0;exitX=0;exitY=1;exitDx=0;exitDy=-5;" parent="1" edge="1">
          <mxGeometry relative="1" as="geometry">
            <mxPoint x="1039.5935294117646" y="2342.5" as="targetPoint" />
            <mxPoint x="1195.2700000000002" y="2342.5" as="sourcePoint" />
          </mxGeometry>
        </mxCell>
        <mxCell id="6e5MkQeYMWrhU2s1_YXG-226" value="interruptInternship(internship)" style="html=1;verticalAlign=bottom;endArrow=block;curved=0;rounded=0;entryX=0;entryY=0;entryDx=0;entryDy=5;" parent="1" edge="1">
          <mxGeometry relative="1" as="geometry">
            <mxPoint x="1205.2700000000002" y="2262.5" as="sourcePoint" />
            <mxPoint x="1355.0000000000002" y="2262.5" as="targetPoint" />
          </mxGeometry>
        </mxCell>
        <mxCell id="6e5MkQeYMWrhU2s1_YXG-227" value="ok" style="html=1;verticalAlign=bottom;endArrow=open;dashed=1;endSize=8;curved=0;rounded=0;exitX=0;exitY=1;exitDx=0;exitDy=-5;" parent="1" edge="1">
          <mxGeometry x="-0.0001" relative="1" as="geometry">
            <mxPoint x="1205.2700000000002" y="2332.5" as="targetPoint" />
            <mxPoint x="1355.0000000000002" y="2332.5" as="sourcePoint" />
            <mxPoint as="offset" />
          </mxGeometry>
        </mxCell>
        <mxCell id="6e5MkQeYMWrhU2s1_YXG-228" value="interruptInternship(internship)" style="html=1;verticalAlign=bottom;endArrow=block;curved=0;rounded=0;entryX=0;entryY=0;entryDx=0;entryDy=5;" parent="1" edge="1">
          <mxGeometry x="0.0005" relative="1" as="geometry">
            <mxPoint x="1365.0000000000002" y="2272.5" as="sourcePoint" />
            <mxPoint x="1515.2700000000002" y="2272.5" as="targetPoint" />
            <mxPoint as="offset" />
          </mxGeometry>
        </mxCell>
        <mxCell id="6e5MkQeYMWrhU2s1_YXG-229" value="update(internship)" style="html=1;verticalAlign=bottom;endArrow=block;curved=0;rounded=0;" parent="1" target="6e5MkQeYMWrhU2s1_YXG-223" edge="1">
          <mxGeometry relative="1" as="geometry">
            <mxPoint x="1525.2700000000002" y="2282.5" as="sourcePoint" />
            <mxPoint x="1675.2700000000002" y="2282.5" as="targetPoint" />
          </mxGeometry>
        </mxCell>
        <mxCell id="6e5MkQeYMWrhU2s1_YXG-230" value="ok" style="html=1;verticalAlign=bottom;endArrow=open;dashed=1;endSize=8;curved=0;rounded=0;" parent="1" source="6e5MkQeYMWrhU2s1_YXG-223" edge="1">
          <mxGeometry relative="1" as="geometry">
            <mxPoint x="1525.2700000000002" y="2312.5" as="targetPoint" />
            <mxPoint x="1675.2700000000002" y="2312.5" as="sourcePoint" />
          </mxGeometry>
        </mxCell>
        <mxCell id="6e5MkQeYMWrhU2s1_YXG-231" value="ok" style="html=1;verticalAlign=bottom;endArrow=open;dashed=1;endSize=8;curved=0;rounded=0;exitX=0;exitY=1;exitDx=0;exitDy=-5;" parent="1" edge="1">
          <mxGeometry relative="1" as="geometry">
            <mxPoint x="1365.0000000000002" y="2322.5" as="targetPoint" />
            <mxPoint x="1515.2700000000002" y="2322.5" as="sourcePoint" />
          </mxGeometry>
        </mxCell>
        <mxCell id="6e5MkQeYMWrhU2s1_YXG-232" value="" style="html=1;points=[[0,0,0,0,5],[0,1,0,0,-5],[1,0,0,0,5],[1,1,0,0,-5]];perimeter=orthogonalPerimeter;outlineConnect=0;targetShapes=umlLifeline;portConstraint=eastwest;newEdgeStyle={&quot;curved&quot;:0,&quot;rounded&quot;:0};" parent="1" vertex="1">
          <mxGeometry x="1195.2700000000002" y="2242.5" width="10" height="110" as="geometry" />
        </mxCell>
        <mxCell id="6e5MkQeYMWrhU2s1_YXG-244" value="sendNotification(complaint)" style="html=1;verticalAlign=bottom;endArrow=block;curved=0;rounded=0;" parent="1" source="6e5MkQeYMWrhU2s1_YXG-249" edge="1">
          <mxGeometry width="80" relative="1" as="geometry">
            <mxPoint x="1520.2700000000002" y="2100" as="sourcePoint" />
            <mxPoint x="1360.2700000000002" y="2100" as="targetPoint" />
          </mxGeometry>
        </mxCell>
        <mxCell id="6e5MkQeYMWrhU2s1_YXG-245" value="sendNotification(complaint)" style="html=1;verticalAlign=bottom;endArrow=block;curved=0;rounded=0;" parent="1" edge="1">
          <mxGeometry x="-0.0007" width="80" relative="1" as="geometry">
            <mxPoint x="1359.2700000000002" y="2109" as="sourcePoint" />
            <mxPoint x="1200.2700000000002" y="2109" as="targetPoint" />
            <mxPoint as="offset" />
          </mxGeometry>
        </mxCell>
        <mxCell id="6e5MkQeYMWrhU2s1_YXG-246" value="notification complaint" style="html=1;verticalAlign=bottom;endArrow=block;curved=0;rounded=0;" parent="1" edge="1">
          <mxGeometry width="80" relative="1" as="geometry">
            <mxPoint x="1200.2700000000002" y="2119" as="sourcePoint" />
            <mxPoint x="1040.2700000000002" y="2119" as="targetPoint" />
          </mxGeometry>
        </mxCell>
        <mxCell id="6e5MkQeYMWrhU2s1_YXG-247" value="alt" style="shape=umlFrame;whiteSpace=wrap;html=1;pointerEvents=0;width=60;height=20;" parent="1" vertex="1">
          <mxGeometry x="980" y="2212.5" width="920" height="155" as="geometry" />
        </mxCell>
        <mxCell id="6e5MkQeYMWrhU2s1_YXG-249" value=":Notification Manager" style="shape=umlLifeline;perimeter=lifelinePerimeter;whiteSpace=wrap;html=1;container=1;dropTarget=0;collapsible=0;recursiveResize=0;outlineConnect=0;portConstraint=eastwest;newEdgeStyle={&quot;curved&quot;:0,&quot;rounded&quot;:0};" parent="1" vertex="1">
          <mxGeometry x="1630.27" y="2030" width="100" height="350" as="geometry" />
        </mxCell>
        <mxCell id="6e5MkQeYMWrhU2s1_YXG-250" value="relevant complaint" style="text;html=1;align=center;verticalAlign=middle;whiteSpace=wrap;rounded=0;fillColor=default;fontSize=11;" parent="1" vertex="1">
          <mxGeometry x="1043.27" y="2215.5" width="97" height="10" as="geometry" />
        </mxCell>
        <mxCell id="OZ4XpZ3nQRyZ2qC5zmcx-100" value="getCandidates(internship)" style="html=1;verticalAlign=bottom;endArrow=block;curved=0;rounded=0;" parent="1" edge="1">
          <mxGeometry x="0.0023" relative="1" as="geometry">
            <mxPoint x="1190.0385714285715" y="1334.05" as="sourcePoint" />
            <mxPoint x="1350" y="1334" as="targetPoint" />
            <mxPoint as="offset" />
          </mxGeometry>
        </mxCell>
        <mxCell id="OZ4XpZ3nQRyZ2qC5zmcx-101" value="candidates" style="html=1;verticalAlign=bottom;endArrow=open;dashed=1;endSize=8;curved=0;rounded=0;" parent="1" edge="1">
          <mxGeometry relative="1" as="geometry">
            <mxPoint x="1190.1339393939393" y="1408.68" as="targetPoint" />
            <mxPoint x="1350.13" y="1408.63" as="sourcePoint" />
          </mxGeometry>
        </mxCell>
        <mxCell id="OZ4XpZ3nQRyZ2qC5zmcx-102" value="getCandidates(internship)" style="html=1;verticalAlign=bottom;endArrow=block;curved=0;rounded=0;" parent="1" edge="1">
          <mxGeometry x="0.0023" relative="1" as="geometry">
            <mxPoint x="1349.7685714285715" y="1344.31" as="sourcePoint" />
            <mxPoint x="1509.73" y="1344.26" as="targetPoint" />
            <mxPoint as="offset" />
          </mxGeometry>
        </mxCell>
        <mxCell id="OZ4XpZ3nQRyZ2qC5zmcx-103" value="candidates" style="html=1;verticalAlign=bottom;endArrow=open;dashed=1;endSize=8;curved=0;rounded=0;" parent="1" edge="1">
          <mxGeometry relative="1" as="geometry">
            <mxPoint x="1349.7339393939392" y="1398.31" as="targetPoint" />
            <mxPoint x="1509.73" y="1398.26" as="sourcePoint" />
          </mxGeometry>
        </mxCell>
        <mxCell id="OZ4XpZ3nQRyZ2qC5zmcx-106" value="getCandidates(internship)" style="html=1;verticalAlign=bottom;endArrow=block;curved=0;rounded=0;" parent="1" target="diQuAST23YdK09CmSaxM-95" edge="1">
          <mxGeometry x="0.0023" relative="1" as="geometry">
            <mxPoint x="1510.1285714285714" y="1363.31" as="sourcePoint" />
            <mxPoint x="1670.0900000000001" y="1363.26" as="targetPoint" />
            <mxPoint as="offset" />
          </mxGeometry>
        </mxCell>
        <mxCell id="OZ4XpZ3nQRyZ2qC5zmcx-107" value="candidates" style="html=1;verticalAlign=bottom;endArrow=open;dashed=1;endSize=8;curved=0;rounded=0;" parent="1" source="diQuAST23YdK09CmSaxM-95" edge="1">
          <mxGeometry relative="1" as="geometry">
            <mxPoint x="1509.6304347826085" y="1393.63" as="targetPoint" />
            <mxPoint x="1839.8600000000001" y="1393.6299999999999" as="sourcePoint" />
          </mxGeometry>
        </mxCell>
        <mxCell id="OZ4XpZ3nQRyZ2qC5zmcx-109" value="getStudentData(student)" style="html=1;verticalAlign=bottom;endArrow=block;curved=0;rounded=0;" parent="1" edge="1">
          <mxGeometry x="0.0023" relative="1" as="geometry">
            <mxPoint x="1189.9985714285715" y="1530.05" as="sourcePoint" />
            <mxPoint x="1349.96" y="1530" as="targetPoint" />
            <mxPoint as="offset" />
          </mxGeometry>
        </mxCell>
        <mxCell id="OZ4XpZ3nQRyZ2qC5zmcx-110" value="getStudentData(student)" style="html=1;verticalAlign=bottom;endArrow=block;curved=0;rounded=0;" parent="1" edge="1">
          <mxGeometry x="0.0023" relative="1" as="geometry">
            <mxPoint x="1349.7285714285715" y="1540.05" as="sourcePoint" />
            <mxPoint x="1509.69" y="1540" as="targetPoint" />
            <mxPoint as="offset" />
          </mxGeometry>
        </mxCell>
        <mxCell id="OZ4XpZ3nQRyZ2qC5zmcx-111" value="getStudentData(student)" style="html=1;verticalAlign=bottom;endArrow=block;curved=0;rounded=0;" parent="1" target="OZ4XpZ3nQRyZ2qC5zmcx-112" edge="1">
          <mxGeometry x="0.0023" relative="1" as="geometry">
            <mxPoint x="1510.1285714285716" y="1552.05" as="sourcePoint" />
            <mxPoint x="1839.5" y="1552.0500000000002" as="targetPoint" />
            <mxPoint as="offset" />
          </mxGeometry>
        </mxCell>
        <mxCell id="OZ4XpZ3nQRyZ2qC5zmcx-112" value=":Profile&lt;br&gt;Manager" style="shape=umlLifeline;perimeter=lifelinePerimeter;whiteSpace=wrap;html=1;container=1;dropTarget=0;collapsible=0;recursiveResize=0;outlineConnect=0;portConstraint=eastwest;newEdgeStyle={&quot;curved&quot;:0,&quot;rounded&quot;:0};" parent="1" vertex="1">
          <mxGeometry x="1780" y="1220" width="100" height="500" as="geometry" />
        </mxCell>
        <mxCell id="OZ4XpZ3nQRyZ2qC5zmcx-113" value="student_details" style="html=1;verticalAlign=bottom;endArrow=open;dashed=1;endSize=8;curved=0;rounded=0;" parent="1" source="OZ4XpZ3nQRyZ2qC5zmcx-112" edge="1">
          <mxGeometry relative="1" as="geometry">
            <mxPoint x="1509.6666666666665" y="1589.17" as="targetPoint" />
            <mxPoint x="1820" y="1589.17" as="sourcePoint" />
          </mxGeometry>
        </mxCell>
        <mxCell id="OZ4XpZ3nQRyZ2qC5zmcx-114" value="student_details" style="html=1;verticalAlign=bottom;endArrow=open;dashed=1;endSize=8;curved=0;rounded=0;" parent="1" edge="1">
          <mxGeometry relative="1" as="geometry">
            <mxPoint x="1349.7339393939392" y="1600.05" as="targetPoint" />
            <mxPoint x="1509.73" y="1600" as="sourcePoint" />
          </mxGeometry>
        </mxCell>
        <mxCell id="OZ4XpZ3nQRyZ2qC5zmcx-115" value="student_details" style="html=1;verticalAlign=bottom;endArrow=open;dashed=1;endSize=8;curved=0;rounded=0;" parent="1" edge="1">
          <mxGeometry relative="1" as="geometry">
            <mxPoint x="1190.1339393939393" y="1607.05" as="targetPoint" />
            <mxPoint x="1350.13" y="1607" as="sourcePoint" />
          </mxGeometry>
        </mxCell>
        <mxCell id="OZ4XpZ3nQRyZ2qC5zmcx-116" value=":Internship&lt;br&gt;Manager" style="shape=umlLifeline;perimeter=lifelinePerimeter;whiteSpace=wrap;html=1;container=1;dropTarget=0;collapsible=0;recursiveResize=0;outlineConnect=0;portConstraint=eastwest;newEdgeStyle={&quot;curved&quot;:0,&quot;rounded&quot;:0};" parent="1" vertex="1">
          <mxGeometry x="1910" y="1220" width="100" height="500" as="geometry" />
        </mxCell>
        <mxCell id="OZ4XpZ3nQRyZ2qC5zmcx-117" value="schedule(schedule_data)" style="html=1;verticalAlign=bottom;endArrow=block;curved=0;rounded=0;" parent="1" edge="1">
          <mxGeometry x="0.0023" relative="1" as="geometry">
            <mxPoint x="1031.9985714285715" y="1660.0500000000002" as="sourcePoint" />
            <mxPoint x="1191.96" y="1660" as="targetPoint" />
            <mxPoint as="offset" />
          </mxGeometry>
        </mxCell>
        <mxCell id="OZ4XpZ3nQRyZ2qC5zmcx-118" value="schedule(schedule_data)" style="html=1;verticalAlign=bottom;endArrow=block;curved=0;rounded=0;" parent="1" edge="1">
          <mxGeometry x="0.0023" relative="1" as="geometry">
            <mxPoint x="1191.8285714285714" y="1670.92" as="sourcePoint" />
            <mxPoint x="1351.79" y="1670.87" as="targetPoint" />
            <mxPoint as="offset" />
          </mxGeometry>
        </mxCell>
        <mxCell id="OZ4XpZ3nQRyZ2qC5zmcx-119" value="schedule(schedule_data)" style="html=1;verticalAlign=bottom;endArrow=block;curved=0;rounded=0;" parent="1" target="OZ4XpZ3nQRyZ2qC5zmcx-116" edge="1">
          <mxGeometry x="0.0023" relative="1" as="geometry">
            <mxPoint x="1351.5585714285714" y="1680.92" as="sourcePoint" />
            <mxPoint x="1511.52" y="1680.87" as="targetPoint" />
            <mxPoint as="offset" />
          </mxGeometry>
        </mxCell>
        <mxCell id="OZ4XpZ3nQRyZ2qC5zmcx-121" value="sendSchedule(data)" style="html=1;verticalAlign=bottom;endArrow=block;curved=0;rounded=0;" parent="1" edge="1">
          <mxGeometry x="0.0023" relative="1" as="geometry">
            <mxPoint x="1959.9985714285715" y="1689.1" as="sourcePoint" />
            <mxPoint x="2080" y="1690" as="targetPoint" />
            <mxPoint as="offset" />
          </mxGeometry>
        </mxCell>
        <mxCell id="6e5MkQeYMWrhU2s1_YXG-296" value="User Registration" style="shape=umlFrame;whiteSpace=wrap;html=1;pointerEvents=0;width=140;height=20;" parent="1" vertex="1">
          <mxGeometry x="20" y="3110" width="740" height="410" as="geometry" />
        </mxCell>
        <mxCell id="6e5MkQeYMWrhU2s1_YXG-305" value="request(sign-up_page)" style="html=1;verticalAlign=bottom;endArrow=block;curved=0;rounded=0;entryX=0;entryY=0;entryDx=0;entryDy=5;" parent="1" edge="1">
          <mxGeometry x="0.0037" relative="1" as="geometry">
            <mxPoint x="90.17741935483878" y="3210" as="sourcePoint" />
            <mxPoint x="225" y="3210" as="targetPoint" />
            <mxPoint as="offset" />
          </mxGeometry>
        </mxCell>
        <mxCell id="6e5MkQeYMWrhU2s1_YXG-306" value="sign-up_page" style="html=1;verticalAlign=bottom;endArrow=open;dashed=1;endSize=8;curved=0;rounded=0;exitX=0;exitY=1;exitDx=0;exitDy=-5;" parent="1" edge="1">
          <mxGeometry relative="1" as="geometry">
            <mxPoint x="90.17741935483878" y="3233.9399999999996" as="targetPoint" />
            <mxPoint x="225" y="3233.9399999999996" as="sourcePoint" />
          </mxGeometry>
        </mxCell>
        <mxCell id="6e5MkQeYMWrhU2s1_YXG-311" value="insert(credentials)" style="html=1;verticalAlign=bottom;endArrow=block;curved=0;rounded=0;entryX=0;entryY=0;entryDx=0;entryDy=5;" parent="1" edge="1">
          <mxGeometry relative="1" as="geometry">
            <mxPoint x="89.99528089887642" y="3269.9400000000005" as="sourcePoint" />
            <mxPoint x="224.72" y="3269.9400000000005" as="targetPoint" />
          </mxGeometry>
        </mxCell>
        <mxCell id="6e5MkQeYMWrhU2s1_YXG-312" value="sign-up view" style="html=1;verticalAlign=bottom;endArrow=open;dashed=1;endSize=8;curved=0;rounded=0;exitX=0;exitY=1;exitDx=0;exitDy=-5;" parent="1" edge="1">
          <mxGeometry relative="1" as="geometry">
            <mxPoint x="90.00488372093011" y="3469.62" as="targetPoint" />
            <mxPoint x="224.97" y="3469.62" as="sourcePoint" />
          </mxGeometry>
        </mxCell>
        <mxCell id="6e5MkQeYMWrhU2s1_YXG-315" value="register(credentials)" style="html=1;verticalAlign=bottom;endArrow=block;curved=0;rounded=0;entryX=0;entryY=0;entryDx=0;entryDy=5;" parent="1" edge="1">
          <mxGeometry relative="1" as="geometry">
            <mxPoint x="235" y="3279.94" as="sourcePoint" />
            <mxPoint x="365" y="3279.94" as="targetPoint" />
          </mxGeometry>
        </mxCell>
        <mxCell id="6e5MkQeYMWrhU2s1_YXG-316" value="success" style="html=1;verticalAlign=bottom;endArrow=open;dashed=1;endSize=8;curved=0;rounded=0;exitX=0;exitY=1;exitDx=0;exitDy=-5;" parent="1" edge="1">
          <mxGeometry relative="1" as="geometry">
            <mxPoint x="235" y="3459.62" as="targetPoint" />
            <mxPoint x="365" y="3459.62" as="sourcePoint" />
          </mxGeometry>
        </mxCell>
        <mxCell id="6e5MkQeYMWrhU2s1_YXG-319" value="register(credentials)" style="html=1;verticalAlign=bottom;endArrow=block;curved=0;rounded=0;entryX=0;entryY=0;entryDx=0;entryDy=5;" parent="1" edge="1">
          <mxGeometry relative="1" as="geometry">
            <mxPoint x="375" y="3290" as="sourcePoint" />
            <mxPoint x="504.9999999999999" y="3290" as="targetPoint" />
          </mxGeometry>
        </mxCell>
        <mxCell id="6e5MkQeYMWrhU2s1_YXG-320" value="success" style="html=1;verticalAlign=bottom;endArrow=open;dashed=1;endSize=8;curved=0;rounded=0;exitX=0;exitY=1;exitDx=0;exitDy=-5;" parent="1" edge="1">
          <mxGeometry relative="1" as="geometry">
            <mxPoint x="375" y="3450" as="targetPoint" />
            <mxPoint x="505" y="3450" as="sourcePoint" />
          </mxGeometry>
        </mxCell>
        <mxCell id="6e5MkQeYMWrhU2s1_YXG-323" value="select(credentials)" style="html=1;verticalAlign=bottom;endArrow=block;curved=0;rounded=0;entryX=0;entryY=0;entryDx=0;entryDy=5;" parent="1" edge="1">
          <mxGeometry relative="1" as="geometry">
            <mxPoint x="515" y="3299.94" as="sourcePoint" />
            <mxPoint x="645" y="3299.94" as="targetPoint" />
          </mxGeometry>
        </mxCell>
        <mxCell id="6e5MkQeYMWrhU2s1_YXG-324" value="ACK" style="html=1;verticalAlign=bottom;endArrow=open;dashed=1;endSize=8;curved=0;rounded=0;exitX=0;exitY=1;exitDx=0;exitDy=-5;" parent="1" edge="1">
          <mxGeometry relative="1" as="geometry">
            <mxPoint x="515" y="3440" as="targetPoint" />
            <mxPoint x="645" y="3440" as="sourcePoint" />
          </mxGeometry>
        </mxCell>
        <mxCell id="6e5MkQeYMWrhU2s1_YXG-327" value="true" style="html=1;verticalAlign=bottom;endArrow=open;dashed=1;endSize=8;curved=0;rounded=0;" parent="1" edge="1">
          <mxGeometry relative="1" as="geometry">
            <mxPoint x="645" y="3330" as="sourcePoint" />
            <mxPoint x="515" y="3330" as="targetPoint" />
          </mxGeometry>
        </mxCell>
        <mxCell id="6e5MkQeYMWrhU2s1_YXG-328" value="error" style="html=1;verticalAlign=bottom;endArrow=open;dashed=1;endSize=8;curved=0;rounded=0;" parent="1" edge="1">
          <mxGeometry relative="1" as="geometry">
            <mxPoint x="505" y="3340" as="sourcePoint" />
            <mxPoint x="375" y="3340" as="targetPoint" />
            <mxPoint as="offset" />
          </mxGeometry>
        </mxCell>
        <mxCell id="6e5MkQeYMWrhU2s1_YXG-329" value="error" style="html=1;verticalAlign=bottom;endArrow=open;dashed=1;endSize=8;curved=0;rounded=0;" parent="1" edge="1">
          <mxGeometry relative="1" as="geometry">
            <mxPoint x="365" y="3350" as="sourcePoint" />
            <mxPoint x="235" y="3350" as="targetPoint" />
          </mxGeometry>
        </mxCell>
        <mxCell id="6e5MkQeYMWrhU2s1_YXG-330" value="show error_message" style="html=1;verticalAlign=bottom;endArrow=open;dashed=1;endSize=8;curved=0;rounded=0;" parent="1" edge="1">
          <mxGeometry relative="1" as="geometry">
            <mxPoint x="224.97" y="3358.8" as="sourcePoint" />
            <mxPoint x="90.00488372093011" y="3358.8" as="targetPoint" />
          </mxGeometry>
        </mxCell>
        <mxCell id="6e5MkQeYMWrhU2s1_YXG-331" value="false" style="html=1;verticalAlign=bottom;endArrow=open;dashed=1;endSize=8;curved=0;rounded=0;" parent="1" edge="1">
          <mxGeometry relative="1" as="geometry">
            <mxPoint x="645" y="3400" as="sourcePoint" />
            <mxPoint x="515" y="3400" as="targetPoint" />
          </mxGeometry>
        </mxCell>
        <mxCell id="6e5MkQeYMWrhU2s1_YXG-332" value="create(user)" style="html=1;verticalAlign=bottom;endArrow=block;curved=0;rounded=0;" parent="1" edge="1">
          <mxGeometry width="80" relative="1" as="geometry">
            <mxPoint x="515" y="3420" as="sourcePoint" />
            <mxPoint x="645" y="3420" as="targetPoint" />
          </mxGeometry>
        </mxCell>
        <mxCell id="6e5MkQeYMWrhU2s1_YXG-333" value="if username exists" style="shape=umlFrame;whiteSpace=wrap;html=1;pointerEvents=0;width=140;height=20;fillColor=default;" parent="1" vertex="1">
          <mxGeometry x="40" y="3308.94" width="700" height="191.06" as="geometry" />
        </mxCell>
        <mxCell id="6e5MkQeYMWrhU2s1_YXG-336" value="User Login" style="shape=umlFrame;whiteSpace=wrap;html=1;pointerEvents=0;width=140;height=20;" parent="1" vertex="1">
          <mxGeometry x="960.27" y="2530" width="679.73" height="330" as="geometry" />
        </mxCell>
        <mxCell id="6e5MkQeYMWrhU2s1_YXG-340" value="" style="endArrow=none;dashed=1;html=1;rounded=0;entryX=0.5;entryY=1;entryDx=0;entryDy=0;" parent="1" edge="1">
          <mxGeometry width="50" height="50" relative="1" as="geometry">
            <mxPoint x="1037" y="2840.56" as="sourcePoint" />
            <mxPoint x="1037.365" y="2609.5" as="targetPoint" />
          </mxGeometry>
        </mxCell>
        <mxCell id="6e5MkQeYMWrhU2s1_YXG-341" value="" style="endArrow=none;dashed=1;html=1;rounded=0;" parent="1" source="6e5MkQeYMWrhU2s1_YXG-346" edge="1">
          <mxGeometry width="50" height="50" relative="1" as="geometry">
            <mxPoint x="1179.1399999999999" y="2920.56" as="sourcePoint" />
            <mxPoint x="1178.73" y="2610.56" as="targetPoint" />
          </mxGeometry>
        </mxCell>
        <mxCell id="6e5MkQeYMWrhU2s1_YXG-342" value="" style="endArrow=none;dashed=1;html=1;rounded=0;" parent="1" source="6e5MkQeYMWrhU2s1_YXG-360" edge="1">
          <mxGeometry width="50" height="50" relative="1" as="geometry">
            <mxPoint x="1565.92" y="2710.56" as="sourcePoint" />
            <mxPoint x="1565.92" y="2605.56" as="targetPoint" />
          </mxGeometry>
        </mxCell>
        <mxCell id="6e5MkQeYMWrhU2s1_YXG-343" value="request(login_page)" style="html=1;verticalAlign=bottom;endArrow=block;curved=0;rounded=0;entryX=0;entryY=0;entryDx=0;entryDy=5;" parent="1" edge="1">
          <mxGeometry relative="1" as="geometry">
            <mxPoint x="1038" y="2643.56" as="sourcePoint" />
            <mxPoint x="1173" y="2643.5599999999995" as="targetPoint" />
          </mxGeometry>
        </mxCell>
        <mxCell id="6e5MkQeYMWrhU2s1_YXG-344" value="show_login_page" style="html=1;verticalAlign=bottom;endArrow=open;dashed=1;endSize=8;curved=0;rounded=0;exitX=0;exitY=1;exitDx=0;exitDy=-5;" parent="1" edge="1">
          <mxGeometry relative="1" as="geometry">
            <mxPoint x="1038" y="2674.56" as="targetPoint" />
            <mxPoint x="1173" y="2674.56" as="sourcePoint" />
          </mxGeometry>
        </mxCell>
        <mxCell id="6e5MkQeYMWrhU2s1_YXG-345" value="" style="endArrow=none;dashed=1;html=1;rounded=0;exitX=0.245;exitY=1.002;exitDx=0;exitDy=0;exitPerimeter=0;" parent="1" edge="1">
          <mxGeometry width="50" height="50" relative="1" as="geometry">
            <mxPoint x="1178.45" y="2830.84" as="sourcePoint" />
            <mxPoint x="1178.45" y="2670.5600000000004" as="targetPoint" />
          </mxGeometry>
        </mxCell>
        <mxCell id="6e5MkQeYMWrhU2s1_YXG-346" value="" style="html=1;points=[[0,0,0,0,5],[0,1,0,0,-5],[1,0,0,0,5],[1,1,0,0,-5]];perimeter=orthogonalPerimeter;outlineConnect=0;targetShapes=umlLifeline;portConstraint=eastwest;newEdgeStyle={&quot;curved&quot;:0,&quot;rounded&quot;:0};" parent="1" vertex="1">
          <mxGeometry x="1173" y="2640.56" width="10" height="39.44" as="geometry" />
        </mxCell>
        <mxCell id="6e5MkQeYMWrhU2s1_YXG-348" value="" style="endArrow=none;dashed=1;html=1;rounded=0;exitX=0;exitY=0;exitDx=0;exitDy=5;exitPerimeter=0;" parent="1" edge="1">
          <mxGeometry width="50" height="50" relative="1" as="geometry">
            <mxPoint x="1440.72" y="2704.5" as="sourcePoint" />
            <mxPoint x="1440.72" y="2604.5" as="targetPoint" />
          </mxGeometry>
        </mxCell>
        <mxCell id="6e5MkQeYMWrhU2s1_YXG-349" value="login(credentials)" style="html=1;verticalAlign=bottom;endArrow=block;curved=0;rounded=0;entryX=0;entryY=0;entryDx=0;entryDy=5;" parent="1" edge="1">
          <mxGeometry relative="1" as="geometry">
            <mxPoint x="1038" y="2700.56" as="sourcePoint" />
            <mxPoint x="1173" y="2700.56" as="targetPoint" />
          </mxGeometry>
        </mxCell>
        <mxCell id="6e5MkQeYMWrhU2s1_YXG-350" value="show_homepage" style="html=1;verticalAlign=bottom;endArrow=open;dashed=1;endSize=8;curved=0;rounded=0;exitX=0;exitY=1;exitDx=0;exitDy=-5;" parent="1" source="6e5MkQeYMWrhU2s1_YXG-352" edge="1">
          <mxGeometry relative="1" as="geometry">
            <mxPoint x="1038" y="2825.56" as="targetPoint" />
          </mxGeometry>
        </mxCell>
        <mxCell id="6e5MkQeYMWrhU2s1_YXG-351" value="" style="endArrow=none;dashed=1;html=1;rounded=0;" parent="1" edge="1">
          <mxGeometry width="50" height="50" relative="1" as="geometry">
            <mxPoint x="1178" y="2840.56" as="sourcePoint" />
            <mxPoint x="1177.9999999999998" y="2830.5600000000004" as="targetPoint" />
          </mxGeometry>
        </mxCell>
        <mxCell id="6e5MkQeYMWrhU2s1_YXG-352" value="" style="html=1;points=[[0,0,0,0,5],[0,1,0,0,-5],[1,0,0,0,5],[1,1,0,0,-5]];perimeter=orthogonalPerimeter;outlineConnect=0;targetShapes=umlLifeline;portConstraint=eastwest;newEdgeStyle={&quot;curved&quot;:0,&quot;rounded&quot;:0};" parent="1" vertex="1">
          <mxGeometry x="1173" y="2690.56" width="10" height="140" as="geometry" />
        </mxCell>
        <mxCell id="6e5MkQeYMWrhU2s1_YXG-353" value="login(credentials)" style="html=1;verticalAlign=bottom;endArrow=block;curved=0;rounded=0;" parent="1" edge="1">
          <mxGeometry relative="1" as="geometry">
            <mxPoint x="1183" y="2715.56" as="sourcePoint" />
            <mxPoint x="1309.46" y="2715.56" as="targetPoint" />
          </mxGeometry>
        </mxCell>
        <mxCell id="6e5MkQeYMWrhU2s1_YXG-354" value="ok" style="html=1;verticalAlign=bottom;endArrow=open;dashed=1;endSize=8;curved=0;rounded=0;" parent="1" target="6e5MkQeYMWrhU2s1_YXG-352" edge="1">
          <mxGeometry relative="1" as="geometry">
            <mxPoint x="1183" y="2785.56" as="targetPoint" />
            <mxPoint x="1309.46" y="2815.56" as="sourcePoint" />
          </mxGeometry>
        </mxCell>
        <mxCell id="6e5MkQeYMWrhU2s1_YXG-355" value="" style="endArrow=none;dashed=1;html=1;rounded=0;" parent="1" edge="1">
          <mxGeometry width="50" height="50" relative="1" as="geometry">
            <mxPoint x="1440.72" y="2840.56" as="sourcePoint" />
            <mxPoint x="1440.72" y="2810.56" as="targetPoint" />
          </mxGeometry>
        </mxCell>
        <mxCell id="6e5MkQeYMWrhU2s1_YXG-356" value="" style="html=1;points=[[0,0,0,0,5],[0,1,0,0,-5],[1,0,0,0,5],[1,1,0,0,-5]];perimeter=orthogonalPerimeter;outlineConnect=0;targetShapes=umlLifeline;portConstraint=eastwest;newEdgeStyle={&quot;curved&quot;:0,&quot;rounded&quot;:0};" parent="1" vertex="1">
          <mxGeometry x="1434.19" y="2710.56" width="10" height="110" as="geometry" />
        </mxCell>
        <mxCell id="6e5MkQeYMWrhU2s1_YXG-357" value="check(credentials)" style="html=1;verticalAlign=bottom;endArrow=block;curved=0;rounded=0;entryX=0;entryY=0;entryDx=0;entryDy=5;" parent="1" edge="1">
          <mxGeometry relative="1" as="geometry">
            <mxPoint x="1444.19" y="2736.56" as="sourcePoint" />
            <mxPoint x="1564.19" y="2736.56" as="targetPoint" />
          </mxGeometry>
        </mxCell>
        <mxCell id="6e5MkQeYMWrhU2s1_YXG-358" value="ok" style="html=1;verticalAlign=bottom;endArrow=open;dashed=1;endSize=8;curved=0;rounded=0;exitX=0;exitY=1;exitDx=0;exitDy=-5;" parent="1" edge="1">
          <mxGeometry relative="1" as="geometry">
            <mxPoint x="1444.19" y="2803.6900000000005" as="targetPoint" />
            <mxPoint x="1564.19" y="2803.6900000000005" as="sourcePoint" />
          </mxGeometry>
        </mxCell>
        <mxCell id="6e5MkQeYMWrhU2s1_YXG-359" value="" style="endArrow=none;dashed=1;html=1;rounded=0;" parent="1" target="6e5MkQeYMWrhU2s1_YXG-360" edge="1">
          <mxGeometry width="50" height="50" relative="1" as="geometry">
            <mxPoint x="1571.19" y="2840.56" as="sourcePoint" />
            <mxPoint x="1565.92" y="2605.56" as="targetPoint" />
          </mxGeometry>
        </mxCell>
        <mxCell id="6e5MkQeYMWrhU2s1_YXG-360" value="" style="html=1;points=[[0,0,0,0,5],[0,1,0,0,-5],[1,0,0,0,5],[1,1,0,0,-5]];perimeter=orthogonalPerimeter;outlineConnect=0;targetShapes=umlLifeline;portConstraint=eastwest;newEdgeStyle={&quot;curved&quot;:0,&quot;rounded&quot;:0};" parent="1" vertex="1">
          <mxGeometry x="1564.19" y="2720.56" width="10" height="90" as="geometry" />
        </mxCell>
        <mxCell id="6e5MkQeYMWrhU2s1_YXG-361" value="Student&#39;s Account Activation" style="shape=umlFrame;whiteSpace=wrap;html=1;pointerEvents=0;width=180;height=20;" parent="1" vertex="1">
          <mxGeometry x="930" y="2930" width="960" height="580" as="geometry" />
        </mxCell>
        <mxCell id="6e5MkQeYMWrhU2s1_YXG-370" value="request(upgrade_page)" style="html=1;verticalAlign=bottom;endArrow=block;curved=0;rounded=0;entryX=0;entryY=0;entryDx=0;entryDy=5;" parent="1" edge="1">
          <mxGeometry relative="1" as="geometry">
            <mxPoint x="1010.2722222222221" y="3040" as="sourcePoint" />
            <mxPoint x="1164.78" y="3040" as="targetPoint" />
          </mxGeometry>
        </mxCell>
        <mxCell id="6e5MkQeYMWrhU2s1_YXG-371" value="show upgrade_page" style="html=1;verticalAlign=bottom;endArrow=open;dashed=1;endSize=8;curved=0;rounded=0;exitX=0;exitY=1;exitDx=0;exitDy=-5;" parent="1" edge="1">
          <mxGeometry relative="1" as="geometry">
            <mxPoint x="1010.27" y="3070" as="targetPoint" />
            <mxPoint x="1165" y="3070" as="sourcePoint" />
          </mxGeometry>
        </mxCell>
        <mxCell id="6e5MkQeYMWrhU2s1_YXG-376" value="upgradeToStudent(data)" style="html=1;verticalAlign=bottom;endArrow=block;curved=0;rounded=0;entryX=0;entryY=0;entryDx=0;entryDy=5;" parent="1" edge="1">
          <mxGeometry relative="1" as="geometry">
            <mxPoint x="1010.27" y="3120" as="sourcePoint" />
            <mxPoint x="1165" y="3120.0000000000005" as="targetPoint" />
          </mxGeometry>
        </mxCell>
        <mxCell id="6e5MkQeYMWrhU2s1_YXG-377" value="show homepage_student" style="html=1;verticalAlign=bottom;endArrow=open;dashed=1;endSize=8;curved=0;rounded=0;" parent="1" source="6e5MkQeYMWrhU2s1_YXG-379" edge="1">
          <mxGeometry relative="1" as="geometry">
            <mxPoint x="1010" y="3320" as="targetPoint" />
            <mxPoint x="1170" y="3320" as="sourcePoint" />
          </mxGeometry>
        </mxCell>
        <mxCell id="6e5MkQeYMWrhU2s1_YXG-380" value="upgradeToStudent(data)" style="html=1;verticalAlign=bottom;endArrow=block;curved=0;rounded=0;entryX=0;entryY=0;entryDx=0;entryDy=5;" parent="1" edge="1">
          <mxGeometry relative="1" as="geometry">
            <mxPoint x="1175" y="3129.9999999999995" as="sourcePoint" />
            <mxPoint x="1325" y="3129.9999999999995" as="targetPoint" />
          </mxGeometry>
        </mxCell>
        <mxCell id="6e5MkQeYMWrhU2s1_YXG-381" value="success" style="html=1;verticalAlign=bottom;endArrow=open;dashed=1;endSize=8;curved=0;rounded=0;" parent="1" edge="1">
          <mxGeometry relative="1" as="geometry">
            <mxPoint x="1175" y="3308.94" as="targetPoint" />
            <mxPoint x="1325" y="3308.94" as="sourcePoint" />
          </mxGeometry>
        </mxCell>
        <mxCell id="6e5MkQeYMWrhU2s1_YXG-384" value="upgradeToStudent(data)" style="html=1;verticalAlign=bottom;endArrow=block;curved=0;rounded=0;entryX=0;entryY=0;entryDx=0;entryDy=5;" parent="1" edge="1">
          <mxGeometry relative="1" as="geometry">
            <mxPoint x="1335" y="3141.1099999999997" as="sourcePoint" />
            <mxPoint x="1479.19" y="3141.1099999999997" as="targetPoint" />
          </mxGeometry>
        </mxCell>
        <mxCell id="6e5MkQeYMWrhU2s1_YXG-385" value="success" style="html=1;verticalAlign=bottom;endArrow=open;dashed=1;endSize=8;curved=0;rounded=0;exitX=0;exitY=1;exitDx=0;exitDy=-5;" parent="1" edge="1">
          <mxGeometry relative="1" as="geometry">
            <mxPoint x="1335" y="3300" as="targetPoint" />
            <mxPoint x="1479.19" y="3300" as="sourcePoint" />
          </mxGeometry>
        </mxCell>
        <mxCell id="6e5MkQeYMWrhU2s1_YXG-388" value="select(data)" style="html=1;verticalAlign=bottom;endArrow=block;curved=0;rounded=0;" parent="1" target="6e5MkQeYMWrhU2s1_YXG-391" edge="1">
          <mxGeometry relative="1" as="geometry">
            <mxPoint x="1484.46" y="3150" as="sourcePoint" />
            <mxPoint x="1640.54" y="3150" as="targetPoint" />
          </mxGeometry>
        </mxCell>
        <mxCell id="6e5MkQeYMWrhU2s1_YXG-389" value="ACK" style="html=1;verticalAlign=bottom;endArrow=open;dashed=1;endSize=8;curved=0;rounded=0;exitX=0;exitY=1;exitDx=0;exitDy=-5;" parent="1" edge="1">
          <mxGeometry x="-0.0014" relative="1" as="geometry">
            <mxPoint x="1491.15" y="3290" as="targetPoint" />
            <mxPoint x="1647.23" y="3290" as="sourcePoint" />
            <mxPoint as="offset" />
          </mxGeometry>
        </mxCell>
        <mxCell id="6e5MkQeYMWrhU2s1_YXG-392" value="true" style="html=1;verticalAlign=bottom;endArrow=open;dashed=1;endSize=8;curved=0;rounded=0;" parent="1" edge="1">
          <mxGeometry relative="1" as="geometry">
            <mxPoint x="1647.23" y="3190" as="sourcePoint" />
            <mxPoint x="1490" y="3190" as="targetPoint" />
          </mxGeometry>
        </mxCell>
        <mxCell id="6e5MkQeYMWrhU2s1_YXG-393" value="error" style="html=1;verticalAlign=bottom;endArrow=open;dashed=1;endSize=8;curved=0;rounded=0;" parent="1" edge="1">
          <mxGeometry relative="1" as="geometry">
            <mxPoint x="1479.1899999999998" y="3200" as="sourcePoint" />
            <mxPoint x="1335" y="3200" as="targetPoint" />
          </mxGeometry>
        </mxCell>
        <mxCell id="6e5MkQeYMWrhU2s1_YXG-394" value="error" style="html=1;verticalAlign=bottom;endArrow=open;dashed=1;endSize=8;curved=0;rounded=0;" parent="1" target="6e5MkQeYMWrhU2s1_YXG-379" edge="1">
          <mxGeometry relative="1" as="geometry">
            <mxPoint x="1324.86" y="3207.88" as="sourcePoint" />
            <mxPoint x="1180" y="3208" as="targetPoint" />
          </mxGeometry>
        </mxCell>
        <mxCell id="6e5MkQeYMWrhU2s1_YXG-396" value="false" style="html=1;verticalAlign=bottom;endArrow=open;dashed=1;endSize=8;curved=0;rounded=0;" parent="1" edge="1">
          <mxGeometry relative="1" as="geometry">
            <mxPoint x="1647.23" y="3250" as="sourcePoint" />
            <mxPoint x="1491.15" y="3250" as="targetPoint" />
          </mxGeometry>
        </mxCell>
        <mxCell id="6e5MkQeYMWrhU2s1_YXG-397" value="insert(student)" style="html=1;verticalAlign=bottom;endArrow=block;curved=0;rounded=0;" parent="1" edge="1">
          <mxGeometry width="80" relative="1" as="geometry">
            <mxPoint x="1484.46" y="3269.9999999999995" as="sourcePoint" />
            <mxPoint x="1645.27" y="3269.9999999999995" as="targetPoint" />
          </mxGeometry>
        </mxCell>
        <mxCell id="6e5MkQeYMWrhU2s1_YXG-398" value="if student exists" style="shape=umlFrame;whiteSpace=wrap;html=1;pointerEvents=0;width=140;height=20;" parent="1" vertex="1">
          <mxGeometry x="960.27" y="3167.88" width="899.73" height="312.12" as="geometry" />
        </mxCell>
        <mxCell id="6e5MkQeYMWrhU2s1_YXG-404" value="sendNotification(conf_email)" style="html=1;verticalAlign=bottom;endArrow=block;curved=0;rounded=0;" parent="1" edge="1">
          <mxGeometry relative="1" as="geometry">
            <mxPoint x="1810" y="3369.6" as="sourcePoint" />
            <mxPoint x="1335.5" y="3369.6" as="targetPoint" />
          </mxGeometry>
        </mxCell>
        <mxCell id="6e5MkQeYMWrhU2s1_YXG-407" value="&lt;span&gt;sendNotification(conf_email)&lt;/span&gt;" style="html=1;verticalAlign=bottom;endArrow=block;curved=0;rounded=0;entryX=1;entryY=0;entryDx=0;entryDy=5;" parent="1" edge="1">
          <mxGeometry relative="1" as="geometry">
            <mxPoint x="1325" y="3379.8" as="sourcePoint" />
            <mxPoint x="1175" y="3379.8" as="targetPoint" />
          </mxGeometry>
        </mxCell>
        <mxCell id="6e5MkQeYMWrhU2s1_YXG-409" value="" style="html=1;points=[[0,0,0,0,5],[0,1,0,0,-5],[1,0,0,0,5],[1,1,0,0,-5]];perimeter=orthogonalPerimeter;outlineConnect=0;targetShapes=umlLifeline;portConstraint=eastwest;newEdgeStyle={&quot;curved&quot;:0,&quot;rounded&quot;:0};" parent="1" vertex="1">
          <mxGeometry x="1005.27" y="3380" width="10" height="20" as="geometry" />
        </mxCell>
        <mxCell id="6e5MkQeYMWrhU2s1_YXG-410" value="confirmation_email" style="html=1;verticalAlign=bottom;endArrow=block;curved=0;rounded=0;entryX=1;entryY=0;entryDx=0;entryDy=5;" parent="1" edge="1">
          <mxGeometry relative="1" as="geometry">
            <mxPoint x="1165" y="3390" as="sourcePoint" />
            <mxPoint x="1015.27" y="3390" as="targetPoint" />
          </mxGeometry>
        </mxCell>
        <mxCell id="6e5MkQeYMWrhU2s1_YXG-412" value="Company&#39;s Account Activation" style="shape=umlFrame;whiteSpace=wrap;html=1;pointerEvents=0;width=180;height=26;" parent="1" vertex="1">
          <mxGeometry x="20" y="3643.94" width="920" height="426.06" as="geometry" />
        </mxCell>
        <mxCell id="6e5MkQeYMWrhU2s1_YXG-417" value="" style="endArrow=none;dashed=1;html=1;rounded=0;entryX=0.5;entryY=1;entryDx=0;entryDy=0;" parent="1" edge="1">
          <mxGeometry width="50" height="50" relative="1" as="geometry">
            <mxPoint x="112" y="4052.94" as="sourcePoint" />
            <mxPoint x="112" y="3722.9400000000005" as="targetPoint" />
          </mxGeometry>
        </mxCell>
        <mxCell id="6e5MkQeYMWrhU2s1_YXG-418" value="" style="endArrow=none;dashed=1;html=1;rounded=0;" parent="1" source="6e5MkQeYMWrhU2s1_YXG-424" target="vi-wQuNXthvigEwU-qIO-25" edge="1">
          <mxGeometry width="50" height="50" relative="1" as="geometry">
            <mxPoint x="251.40999999999997" y="4052.94" as="sourcePoint" />
            <mxPoint x="251" y="3742.94" as="targetPoint" />
          </mxGeometry>
        </mxCell>
        <mxCell id="6e5MkQeYMWrhU2s1_YXG-419" value="" style="endArrow=none;dashed=1;html=1;rounded=0;entryX=0.5;entryY=1;entryDx=0;entryDy=0;" parent="1" source="6e5MkQeYMWrhU2s1_YXG-437" edge="1">
          <mxGeometry width="50" height="50" relative="1" as="geometry">
            <mxPoint x="502.40999999999997" y="4047.94" as="sourcePoint" />
            <mxPoint x="697" y="3737.9400000000005" as="targetPoint" />
          </mxGeometry>
        </mxCell>
        <mxCell id="6e5MkQeYMWrhU2s1_YXG-420" value="" style="endArrow=none;dashed=1;html=1;rounded=0;entryX=0.585;entryY=0.98;entryDx=0;entryDy=0;entryPerimeter=0;" parent="1" source="6e5MkQeYMWrhU2s1_YXG-441" edge="1">
          <mxGeometry width="50" height="50" relative="1" as="geometry">
            <mxPoint x="832.0000000000001" y="3852.94" as="sourcePoint" />
            <mxPoint x="836.3499999999999" y="3736.9400000000005" as="targetPoint" />
          </mxGeometry>
        </mxCell>
        <mxCell id="6e5MkQeYMWrhU2s1_YXG-421" value="request(upgrade_page)" style="html=1;verticalAlign=bottom;endArrow=block;curved=0;rounded=0;entryX=0;entryY=0;entryDx=0;entryDy=5;" parent="1" target="6e5MkQeYMWrhU2s1_YXG-424" edge="1">
          <mxGeometry relative="1" as="geometry">
            <mxPoint x="112" y="3767.94" as="sourcePoint" />
          </mxGeometry>
        </mxCell>
        <mxCell id="6e5MkQeYMWrhU2s1_YXG-422" value="upgrade_page" style="html=1;verticalAlign=bottom;endArrow=open;dashed=1;endSize=8;curved=0;rounded=0;exitX=0;exitY=1;exitDx=0;exitDy=-5;exitPerimeter=0;" parent="1" source="6e5MkQeYMWrhU2s1_YXG-424" edge="1">
          <mxGeometry relative="1" as="geometry">
            <mxPoint x="112" y="3794.94" as="targetPoint" />
            <mxPoint x="247" y="3794.9400000000005" as="sourcePoint" />
          </mxGeometry>
        </mxCell>
        <mxCell id="6e5MkQeYMWrhU2s1_YXG-423" value="" style="endArrow=none;dashed=1;html=1;rounded=0;" parent="1" source="6e5MkQeYMWrhU2s1_YXG-429" target="6e5MkQeYMWrhU2s1_YXG-424" edge="1">
          <mxGeometry width="50" height="50" relative="1" as="geometry">
            <mxPoint x="284.40999999999997" y="4052.94" as="sourcePoint" />
            <mxPoint x="284" y="3742.94" as="targetPoint" />
          </mxGeometry>
        </mxCell>
        <mxCell id="6e5MkQeYMWrhU2s1_YXG-424" value="" style="html=1;points=[[0,0,0,0,5],[0,1,0,0,-5],[1,0,0,0,5],[1,1,0,0,-5]];perimeter=orthogonalPerimeter;outlineConnect=0;targetShapes=umlLifeline;portConstraint=eastwest;newEdgeStyle={&quot;curved&quot;:0,&quot;rounded&quot;:0};" parent="1" vertex="1">
          <mxGeometry x="280" y="3762.94" width="10" height="37.06" as="geometry" />
        </mxCell>
        <mxCell id="6e5MkQeYMWrhU2s1_YXG-426" value="" style="endArrow=none;dashed=1;html=1;rounded=0;entryX=0.5;entryY=1;entryDx=0;entryDy=0;" parent="1" source="6e5MkQeYMWrhU2s1_YXG-433" edge="1">
          <mxGeometry width="50" height="50" relative="1" as="geometry">
            <mxPoint x="372.40999999999997" y="4047.94" as="sourcePoint" />
            <mxPoint x="467" y="3737.9400000000005" as="targetPoint" />
          </mxGeometry>
        </mxCell>
        <mxCell id="6e5MkQeYMWrhU2s1_YXG-427" value="upgradeToCompany(data)" style="html=1;verticalAlign=bottom;endArrow=block;curved=0;rounded=0;entryX=0;entryY=0;entryDx=0;entryDy=5;" parent="1" target="6e5MkQeYMWrhU2s1_YXG-429" edge="1">
          <mxGeometry relative="1" as="geometry">
            <mxPoint x="112" y="3827.94" as="sourcePoint" />
          </mxGeometry>
        </mxCell>
        <mxCell id="6e5MkQeYMWrhU2s1_YXG-428" value="show_homepage_company" style="html=1;verticalAlign=bottom;endArrow=open;dashed=1;endSize=8;curved=0;rounded=0;" parent="1" source="6e5MkQeYMWrhU2s1_YXG-429" edge="1">
          <mxGeometry relative="1" as="geometry">
            <mxPoint x="112" y="4020.94" as="targetPoint" />
            <mxPoint x="247" y="4020.9400000000005" as="sourcePoint" />
          </mxGeometry>
        </mxCell>
        <mxCell id="6e5MkQeYMWrhU2s1_YXG-430" value="upgradeToCompany(data)" style="html=1;verticalAlign=bottom;endArrow=block;curved=0;rounded=0;entryX=0;entryY=0;entryDx=0;entryDy=5;" parent="1" source="6e5MkQeYMWrhU2s1_YXG-429" target="6e5MkQeYMWrhU2s1_YXG-433" edge="1">
          <mxGeometry relative="1" as="geometry">
            <mxPoint x="272" y="3837.94" as="sourcePoint" />
          </mxGeometry>
        </mxCell>
        <mxCell id="6e5MkQeYMWrhU2s1_YXG-429" value="" style="html=1;points=[[0,0,0,0,5],[0,1,0,0,-5],[1,0,0,0,5],[1,1,0,0,-5]];perimeter=orthogonalPerimeter;outlineConnect=0;targetShapes=umlLifeline;portConstraint=eastwest;newEdgeStyle={&quot;curved&quot;:0,&quot;rounded&quot;:0};" parent="1" vertex="1">
          <mxGeometry x="280" y="3822.94" width="10" height="207.06" as="geometry" />
        </mxCell>
        <mxCell id="6e5MkQeYMWrhU2s1_YXG-431" value="success" style="html=1;verticalAlign=bottom;endArrow=open;dashed=1;endSize=8;curved=0;rounded=0;exitX=0;exitY=1;exitDx=0;exitDy=-5;" parent="1" target="6e5MkQeYMWrhU2s1_YXG-429" edge="1">
          <mxGeometry relative="1" as="geometry">
            <mxPoint x="257" y="4010.000000000001" as="targetPoint" />
            <mxPoint x="462" y="4010.000000000001" as="sourcePoint" />
          </mxGeometry>
        </mxCell>
        <mxCell id="6e5MkQeYMWrhU2s1_YXG-432" value="" style="endArrow=none;dashed=1;html=1;rounded=0;" parent="1" edge="1">
          <mxGeometry width="50" height="50" relative="1" as="geometry">
            <mxPoint x="467" y="4052.94" as="sourcePoint" />
            <mxPoint x="466.51999999999975" y="4012.94" as="targetPoint" />
          </mxGeometry>
        </mxCell>
        <mxCell id="6e5MkQeYMWrhU2s1_YXG-433" value="" style="html=1;points=[[0,0,0,0,5],[0,1,0,0,-5],[1,0,0,0,5],[1,1,0,0,-5]];perimeter=orthogonalPerimeter;outlineConnect=0;targetShapes=umlLifeline;portConstraint=eastwest;newEdgeStyle={&quot;curved&quot;:0,&quot;rounded&quot;:0};" parent="1" vertex="1">
          <mxGeometry x="462" y="3832.94" width="10" height="187.06" as="geometry" />
        </mxCell>
        <mxCell id="6e5MkQeYMWrhU2s1_YXG-434" value="upgradeToCompany(data)" style="html=1;verticalAlign=bottom;endArrow=block;curved=0;rounded=0;entryX=0;entryY=0;entryDx=0;entryDy=5;" parent="1" edge="1">
          <mxGeometry relative="1" as="geometry">
            <mxPoint x="472" y="3846.94" as="sourcePoint" />
            <mxPoint x="692" y="3846.9400000000005" as="targetPoint" />
          </mxGeometry>
        </mxCell>
        <mxCell id="6e5MkQeYMWrhU2s1_YXG-435" value="success" style="html=1;verticalAlign=bottom;endArrow=open;dashed=1;endSize=8;curved=0;rounded=0;exitX=0;exitY=1;exitDx=0;exitDy=-5;" parent="1" edge="1">
          <mxGeometry relative="1" as="geometry">
            <mxPoint x="472" y="4002.9400000000005" as="targetPoint" />
            <mxPoint x="692.0000000000002" y="4002.9400000000005" as="sourcePoint" />
          </mxGeometry>
        </mxCell>
        <mxCell id="6e5MkQeYMWrhU2s1_YXG-437" value="" style="html=1;points=[[0,0,0,0,5],[0,1,0,0,-5],[1,0,0,0,5],[1,1,0,0,-5]];perimeter=orthogonalPerimeter;outlineConnect=0;targetShapes=umlLifeline;portConstraint=eastwest;newEdgeStyle={&quot;curved&quot;:0,&quot;rounded&quot;:0};" parent="1" vertex="1">
          <mxGeometry x="692" y="3842.94" width="10" height="170" as="geometry" />
        </mxCell>
        <mxCell id="6e5MkQeYMWrhU2s1_YXG-438" value="select(data)" style="html=1;verticalAlign=bottom;endArrow=block;curved=0;rounded=0;entryX=0;entryY=0;entryDx=0;entryDy=5;" parent="1" edge="1">
          <mxGeometry relative="1" as="geometry">
            <mxPoint x="702" y="3854.9400000000005" as="sourcePoint" />
            <mxPoint x="832" y="3854.9400000000005" as="targetPoint" />
          </mxGeometry>
        </mxCell>
        <mxCell id="6e5MkQeYMWrhU2s1_YXG-439" value="ACK" style="html=1;verticalAlign=bottom;endArrow=open;dashed=1;endSize=8;curved=0;rounded=0;exitX=0;exitY=1;exitDx=0;exitDy=-5;" parent="1" source="6e5MkQeYMWrhU2s1_YXG-441" target="6e5MkQeYMWrhU2s1_YXG-437" edge="1">
          <mxGeometry relative="1" as="geometry">
            <mxPoint x="512" y="3927.94" as="targetPoint" />
          </mxGeometry>
        </mxCell>
        <mxCell id="6e5MkQeYMWrhU2s1_YXG-441" value="" style="html=1;points=[[0,0,0,0,5],[0,1,0,0,-5],[1,0,0,0,5],[1,1,0,0,-5]];perimeter=orthogonalPerimeter;outlineConnect=0;targetShapes=umlLifeline;portConstraint=eastwest;newEdgeStyle={&quot;curved&quot;:0,&quot;rounded&quot;:0};" parent="1" vertex="1">
          <mxGeometry x="832" y="3852.94" width="10" height="150" as="geometry" />
        </mxCell>
        <mxCell id="6e5MkQeYMWrhU2s1_YXG-442" value="true" style="html=1;verticalAlign=bottom;endArrow=open;dashed=1;endSize=8;curved=0;rounded=0;" parent="1" edge="1">
          <mxGeometry relative="1" as="geometry">
            <mxPoint x="832.0000000000002" y="3888.9400000000005" as="sourcePoint" />
            <mxPoint x="702" y="3888.94" as="targetPoint" />
          </mxGeometry>
        </mxCell>
        <mxCell id="6e5MkQeYMWrhU2s1_YXG-443" value="error" style="html=1;verticalAlign=bottom;endArrow=open;dashed=1;endSize=8;curved=0;rounded=0;" parent="1" edge="1">
          <mxGeometry relative="1" as="geometry">
            <mxPoint x="692" y="3896.94" as="sourcePoint" />
            <mxPoint x="472" y="3896.9400000000005" as="targetPoint" />
          </mxGeometry>
        </mxCell>
        <mxCell id="6e5MkQeYMWrhU2s1_YXG-444" value="error" style="html=1;verticalAlign=bottom;endArrow=open;dashed=1;endSize=8;curved=0;rounded=0;" parent="1" target="6e5MkQeYMWrhU2s1_YXG-429" edge="1">
          <mxGeometry relative="1" as="geometry">
            <mxPoint x="462" y="3903.9400000000005" as="sourcePoint" />
            <mxPoint x="257" y="3903.94" as="targetPoint" />
          </mxGeometry>
        </mxCell>
        <mxCell id="6e5MkQeYMWrhU2s1_YXG-445" value="show_error_message" style="html=1;verticalAlign=bottom;endArrow=open;dashed=1;endSize=8;curved=0;rounded=0;" parent="1" source="6e5MkQeYMWrhU2s1_YXG-429" edge="1">
          <mxGeometry relative="1" as="geometry">
            <mxPoint x="247" y="3912.94" as="sourcePoint" />
            <mxPoint x="112" y="3912.94" as="targetPoint" />
          </mxGeometry>
        </mxCell>
        <mxCell id="6e5MkQeYMWrhU2s1_YXG-446" value="false" style="html=1;verticalAlign=bottom;endArrow=open;dashed=1;endSize=8;curved=0;rounded=0;" parent="1" source="6e5MkQeYMWrhU2s1_YXG-441" edge="1">
          <mxGeometry relative="1" as="geometry">
            <mxPoint x="612" y="3952.3500000000004" as="sourcePoint" />
            <mxPoint x="702" y="3952.94" as="targetPoint" />
          </mxGeometry>
        </mxCell>
        <mxCell id="6e5MkQeYMWrhU2s1_YXG-447" value="insert(company)" style="html=1;verticalAlign=bottom;endArrow=block;curved=0;rounded=0;" parent="1" target="6e5MkQeYMWrhU2s1_YXG-441" edge="1">
          <mxGeometry width="80" relative="1" as="geometry">
            <mxPoint x="702" y="3976.94" as="sourcePoint" />
            <mxPoint x="612" y="3977.35" as="targetPoint" />
          </mxGeometry>
        </mxCell>
        <mxCell id="6e5MkQeYMWrhU2s1_YXG-448" value="if company exists" style="shape=umlFrame;whiteSpace=wrap;html=1;pointerEvents=0;width=115;height=16;" parent="1" vertex="1">
          <mxGeometry x="75" y="3866.94" width="800" height="180" as="geometry" />
        </mxCell>
        <mxCell id="6e5MkQeYMWrhU2s1_YXG-450" value="else" style="text;html=1;align=center;verticalAlign=middle;resizable=0;points=[];autosize=1;strokeColor=none;fillColor=none;" parent="1" vertex="1">
          <mxGeometry x="70" y="3930" width="50" height="30" as="geometry" />
        </mxCell>
        <mxCell id="vi-wQuNXthvigEwU-qIO-2" value=":Web Server" style="html=1;whiteSpace=wrap;" parent="1" vertex="1">
          <mxGeometry x="1129.73" y="2572" width="100" height="40" as="geometry" />
        </mxCell>
        <mxCell id="vi-wQuNXthvigEwU-qIO-5" value=":WebApp" style="html=1;whiteSpace=wrap;" parent="1" vertex="1">
          <mxGeometry x="992" y="2573" width="100" height="40" as="geometry" />
        </mxCell>
        <mxCell id="vi-wQuNXthvigEwU-qIO-6" value=":Login Manager" style="html=1;whiteSpace=wrap;" parent="1" vertex="1">
          <mxGeometry x="1384.46" y="2573" width="100" height="40" as="geometry" />
        </mxCell>
        <mxCell id="vi-wQuNXthvigEwU-qIO-7" value=":DBMS" style="html=1;whiteSpace=wrap;" parent="1" vertex="1">
          <mxGeometry x="1511.19" y="2573" width="100" height="40" as="geometry" />
        </mxCell>
        <mxCell id="vi-wQuNXthvigEwU-qIO-8" value="" style="endArrow=none;dashed=1;html=1;rounded=0;" parent="1" edge="1">
          <mxGeometry width="50" height="50" relative="1" as="geometry">
            <mxPoint x="1311.46" y="2830.56" as="sourcePoint" />
            <mxPoint x="1311.19" y="2604.56" as="targetPoint" />
          </mxGeometry>
        </mxCell>
        <mxCell id="vi-wQuNXthvigEwU-qIO-9" value=":API Server" style="html=1;whiteSpace=wrap;" parent="1" vertex="1">
          <mxGeometry x="1260.46" y="2572" width="100" height="40" as="geometry" />
        </mxCell>
        <mxCell id="vi-wQuNXthvigEwU-qIO-10" value="login(credentials)" style="html=1;verticalAlign=bottom;endArrow=block;curved=0;rounded=0;" parent="1" edge="1">
          <mxGeometry relative="1" as="geometry">
            <mxPoint x="1310" y="2730" as="sourcePoint" />
            <mxPoint x="1435.92" y="2729.82" as="targetPoint" />
          </mxGeometry>
        </mxCell>
        <mxCell id="vi-wQuNXthvigEwU-qIO-11" value="ok" style="html=1;verticalAlign=bottom;endArrow=open;dashed=1;endSize=8;curved=0;rounded=0;" parent="1" edge="1">
          <mxGeometry relative="1" as="geometry">
            <mxPoint x="1309.46" y="2809.82" as="targetPoint" />
            <mxPoint x="1435.46" y="2809.82" as="sourcePoint" />
          </mxGeometry>
        </mxCell>
        <mxCell id="6e5MkQeYMWrhU2s1_YXG-462" value="" style="endArrow=none;dashed=1;html=1;rounded=0;" parent="1" edge="1">
          <mxGeometry width="50" height="50" relative="1" as="geometry">
            <mxPoint x="39.72999999999999" y="3378.71" as="sourcePoint" />
            <mxPoint x="740" y="3379" as="targetPoint" />
          </mxGeometry>
        </mxCell>
        <mxCell id="6e5MkQeYMWrhU2s1_YXG-464" value=":DBMS" style="shape=umlLifeline;perimeter=lifelinePerimeter;whiteSpace=wrap;html=1;container=1;dropTarget=0;collapsible=0;recursiveResize=0;outlineConnect=0;portConstraint=eastwest;newEdgeStyle={&quot;curved&quot;:0,&quot;rounded&quot;:0};" parent="1" vertex="1">
          <mxGeometry x="1600.27" y="2970" width="100" height="500" as="geometry" />
        </mxCell>
        <mxCell id="6e5MkQeYMWrhU2s1_YXG-391" value="" style="html=1;points=[[0,0,0,0,5],[0,1,0,0,-5],[1,0,0,0,5],[1,1,0,0,-5]];perimeter=orthogonalPerimeter;outlineConnect=0;targetShapes=umlLifeline;portConstraint=eastwest;newEdgeStyle={&quot;curved&quot;:0,&quot;rounded&quot;:0};" parent="6e5MkQeYMWrhU2s1_YXG-464" vertex="1">
          <mxGeometry x="45" y="170" width="10" height="160" as="geometry" />
        </mxCell>
        <mxCell id="6e5MkQeYMWrhU2s1_YXG-483" value="" style="html=1;points=[[0,0,0,0,5],[0,1,0,0,-5],[1,0,0,0,5],[1,1,0,0,-5]];perimeter=orthogonalPerimeter;outlineConnect=0;targetShapes=umlLifeline;portConstraint=eastwest;newEdgeStyle={&quot;curved&quot;:0,&quot;rounded&quot;:0};" parent="6e5MkQeYMWrhU2s1_YXG-464" vertex="1">
          <mxGeometry x="45" y="470" width="10" height="20" as="geometry" />
        </mxCell>
        <mxCell id="6e5MkQeYMWrhU2s1_YXG-466" value=":Registration Manager" style="shape=umlLifeline;perimeter=lifelinePerimeter;whiteSpace=wrap;html=1;container=1;dropTarget=0;collapsible=0;recursiveResize=0;outlineConnect=0;portConstraint=eastwest;newEdgeStyle={&quot;curved&quot;:0,&quot;rounded&quot;:0};" parent="1" vertex="1">
          <mxGeometry x="1434.19" y="2970" width="100" height="500" as="geometry" />
        </mxCell>
        <mxCell id="6e5MkQeYMWrhU2s1_YXG-387" value="" style="html=1;points=[[0,0,0,0,5],[0,1,0,0,-5],[1,0,0,0,5],[1,1,0,0,-5]];perimeter=orthogonalPerimeter;outlineConnect=0;targetShapes=umlLifeline;portConstraint=eastwest;newEdgeStyle={&quot;curved&quot;:0,&quot;rounded&quot;:0};" parent="6e5MkQeYMWrhU2s1_YXG-466" vertex="1">
          <mxGeometry x="45" y="157.88" width="10" height="182.12" as="geometry" />
        </mxCell>
        <mxCell id="6e5MkQeYMWrhU2s1_YXG-482" value="" style="html=1;points=[[0,0,0,0,5],[0,1,0,0,-5],[1,0,0,0,5],[1,1,0,0,-5]];perimeter=orthogonalPerimeter;outlineConnect=0;targetShapes=umlLifeline;portConstraint=eastwest;newEdgeStyle={&quot;curved&quot;:0,&quot;rounded&quot;:0};" parent="6e5MkQeYMWrhU2s1_YXG-466" vertex="1">
          <mxGeometry x="45" y="460" width="10" height="30" as="geometry" />
        </mxCell>
        <mxCell id="6e5MkQeYMWrhU2s1_YXG-468" value=":API Server" style="shape=umlLifeline;perimeter=lifelinePerimeter;whiteSpace=wrap;html=1;container=1;dropTarget=0;collapsible=0;recursiveResize=0;outlineConnect=0;portConstraint=eastwest;newEdgeStyle={&quot;curved&quot;:0,&quot;rounded&quot;:0};" parent="1" vertex="1">
          <mxGeometry x="1280" y="2970" width="100" height="500" as="geometry" />
        </mxCell>
        <mxCell id="6e5MkQeYMWrhU2s1_YXG-383" value="" style="html=1;points=[[0,0,0,0,5],[0,1,0,0,-5],[1,0,0,0,5],[1,1,0,0,-5]];perimeter=orthogonalPerimeter;outlineConnect=0;targetShapes=umlLifeline;portConstraint=eastwest;newEdgeStyle={&quot;curved&quot;:0,&quot;rounded&quot;:0};" parent="6e5MkQeYMWrhU2s1_YXG-468" vertex="1">
          <mxGeometry x="45" y="147.88" width="10" height="202.12" as="geometry" />
        </mxCell>
        <mxCell id="6e5MkQeYMWrhU2s1_YXG-403" value="" style="html=1;points=[[0,0,0,0,5],[0,1,0,0,-5],[1,0,0,0,5],[1,1,0,0,-5]];perimeter=orthogonalPerimeter;outlineConnect=0;targetShapes=umlLifeline;portConstraint=eastwest;newEdgeStyle={&quot;curved&quot;:0,&quot;rounded&quot;:0};" parent="6e5MkQeYMWrhU2s1_YXG-468" vertex="1">
          <mxGeometry x="45" y="390" width="10" height="30" as="geometry" />
        </mxCell>
        <mxCell id="6e5MkQeYMWrhU2s1_YXG-480" value="" style="html=1;points=[[0,0,0,0,5],[0,1,0,0,-5],[1,0,0,0,5],[1,1,0,0,-5]];perimeter=orthogonalPerimeter;outlineConnect=0;targetShapes=umlLifeline;portConstraint=eastwest;newEdgeStyle={&quot;curved&quot;:0,&quot;rounded&quot;:0};" parent="6e5MkQeYMWrhU2s1_YXG-468" vertex="1">
          <mxGeometry x="45" y="450" width="10" height="30" as="geometry" />
        </mxCell>
        <mxCell id="6e5MkQeYMWrhU2s1_YXG-472" value=":Notification Manager" style="shape=umlLifeline;perimeter=lifelinePerimeter;whiteSpace=wrap;html=1;container=1;dropTarget=0;collapsible=0;recursiveResize=0;outlineConnect=0;portConstraint=eastwest;newEdgeStyle={&quot;curved&quot;:0,&quot;rounded&quot;:0};" parent="1" vertex="1">
          <mxGeometry x="1760" y="2970" width="100" height="500" as="geometry" />
        </mxCell>
        <mxCell id="vi-wQuNXthvigEwU-qIO-12" value=":WebApp" style="shape=umlLifeline;perimeter=lifelinePerimeter;whiteSpace=wrap;html=1;container=1;dropTarget=0;collapsible=0;recursiveResize=0;outlineConnect=0;portConstraint=eastwest;newEdgeStyle={&quot;curved&quot;:0,&quot;rounded&quot;:0};" parent="1" vertex="1">
          <mxGeometry x="62" y="3696.88" width="100" height="41.06" as="geometry" />
        </mxCell>
        <mxCell id="vi-wQuNXthvigEwU-qIO-21" value="" style="endArrow=none;dashed=1;html=1;rounded=0;" parent="1" edge="1">
          <mxGeometry width="50" height="50" relative="1" as="geometry">
            <mxPoint x="285.05" y="4052.94" as="sourcePoint" />
            <mxPoint x="285" y="4030" as="targetPoint" />
          </mxGeometry>
        </mxCell>
        <mxCell id="vi-wQuNXthvigEwU-qIO-22" value="" style="endArrow=none;dashed=1;html=1;rounded=0;" parent="1" edge="1">
          <mxGeometry width="50" height="50" relative="1" as="geometry">
            <mxPoint x="697.05" y="4052.94" as="sourcePoint" />
            <mxPoint x="696.5699999999997" y="4012.94" as="targetPoint" />
          </mxGeometry>
        </mxCell>
        <mxCell id="vi-wQuNXthvigEwU-qIO-23" value="" style="endArrow=none;dashed=1;html=1;rounded=0;" parent="1" edge="1">
          <mxGeometry width="50" height="50" relative="1" as="geometry">
            <mxPoint x="837.05" y="4042.94" as="sourcePoint" />
            <mxPoint x="836.5699999999997" y="4002.94" as="targetPoint" />
          </mxGeometry>
        </mxCell>
        <mxCell id="vi-wQuNXthvigEwU-qIO-24" value="" style="endArrow=none;dashed=1;html=1;rounded=0;entryX=1;entryY=0.353;entryDx=0;entryDy=0;entryPerimeter=0;exitX=0.117;exitY=0.019;exitDx=0;exitDy=0;exitPerimeter=0;" parent="1" source="6e5MkQeYMWrhU2s1_YXG-450" target="6e5MkQeYMWrhU2s1_YXG-448" edge="1">
          <mxGeometry width="50" height="50" relative="1" as="geometry">
            <mxPoint x="71.72999999999999" y="3925.51" as="sourcePoint" />
            <mxPoint x="870" y="3926" as="targetPoint" />
          </mxGeometry>
        </mxCell>
        <mxCell id="vi-wQuNXthvigEwU-qIO-25" value=":Web Server" style="shape=umlLifeline;perimeter=lifelinePerimeter;whiteSpace=wrap;html=1;container=1;dropTarget=0;collapsible=0;recursiveResize=0;outlineConnect=0;portConstraint=eastwest;newEdgeStyle={&quot;curved&quot;:0,&quot;rounded&quot;:0};" parent="1" vertex="1">
          <mxGeometry x="235" y="3696.88" width="100" height="41.06" as="geometry" />
        </mxCell>
        <mxCell id="vi-wQuNXthvigEwU-qIO-27" value=":API Server" style="shape=umlLifeline;perimeter=lifelinePerimeter;whiteSpace=wrap;html=1;container=1;dropTarget=0;collapsible=0;recursiveResize=0;outlineConnect=0;portConstraint=eastwest;newEdgeStyle={&quot;curved&quot;:0,&quot;rounded&quot;:0};" parent="1" vertex="1">
          <mxGeometry x="414" y="3696.88" width="100" height="41.06" as="geometry" />
        </mxCell>
        <mxCell id="vi-wQuNXthvigEwU-qIO-28" value=":Registration Manager" style="shape=umlLifeline;perimeter=lifelinePerimeter;whiteSpace=wrap;html=1;container=1;dropTarget=0;collapsible=0;recursiveResize=0;outlineConnect=0;portConstraint=eastwest;newEdgeStyle={&quot;curved&quot;:0,&quot;rounded&quot;:0};" parent="1" vertex="1">
          <mxGeometry x="647" y="3692.4100000000003" width="100" height="41.06" as="geometry" />
        </mxCell>
        <mxCell id="vi-wQuNXthvigEwU-qIO-29" value=":DBMS" style="shape=umlLifeline;perimeter=lifelinePerimeter;whiteSpace=wrap;html=1;container=1;dropTarget=0;collapsible=0;recursiveResize=0;outlineConnect=0;portConstraint=eastwest;newEdgeStyle={&quot;curved&quot;:0,&quot;rounded&quot;:0};" parent="1" vertex="1">
          <mxGeometry x="787" y="3692.41" width="100" height="41.06" as="geometry" />
        </mxCell>
        <mxCell id="6e5MkQeYMWrhU2s1_YXG-474" value="confirmEmail()" style="html=1;verticalAlign=bottom;endArrow=block;curved=0;rounded=0;" parent="1" edge="1">
          <mxGeometry relative="1" as="geometry">
            <mxPoint x="1015.2700000000001" y="3420" as="sourcePoint" />
            <mxPoint x="1165.81" y="3420" as="targetPoint" />
          </mxGeometry>
        </mxCell>
        <mxCell id="6e5MkQeYMWrhU2s1_YXG-475" value="confirmEmail()" style="html=1;verticalAlign=bottom;endArrow=block;curved=0;rounded=0;" parent="1" edge="1">
          <mxGeometry relative="1" as="geometry">
            <mxPoint x="1175" y="3430" as="sourcePoint" />
            <mxPoint x="1325" y="3430" as="targetPoint" />
            <Array as="points">
              <mxPoint x="1210" y="3430" />
            </Array>
          </mxGeometry>
        </mxCell>
        <mxCell id="6e5MkQeYMWrhU2s1_YXG-476" value="confirmEmail()" style="html=1;verticalAlign=bottom;endArrow=block;curved=0;rounded=0;" parent="1" edge="1">
          <mxGeometry relative="1" as="geometry">
            <mxPoint x="1335" y="3440" as="sourcePoint" />
            <mxPoint x="1479.19" y="3440" as="targetPoint" />
          </mxGeometry>
        </mxCell>
        <mxCell id="6e5MkQeYMWrhU2s1_YXG-477" value="upgrade(student)" style="html=1;verticalAlign=bottom;endArrow=block;curved=0;rounded=0;" parent="1" edge="1">
          <mxGeometry relative="1" as="geometry">
            <mxPoint x="1492.13" y="3450" as="sourcePoint" />
            <mxPoint x="1646.25" y="3450" as="targetPoint" />
          </mxGeometry>
        </mxCell>
        <mxCell id="6e5MkQeYMWrhU2s1_YXG-484" value="" style="endArrow=none;dashed=1;html=1;rounded=0;" parent="1" target="6e5MkQeYMWrhU2s1_YXG-398" edge="1">
          <mxGeometry width="50" height="50" relative="1" as="geometry">
            <mxPoint x="960.32" y="3230" as="sourcePoint" />
            <mxPoint x="1660.5900000000001" y="3230.29" as="targetPoint" />
          </mxGeometry>
        </mxCell>
        <mxCell id="6e5MkQeYMWrhU2s1_YXG-485" value="" style="endArrow=none;dashed=1;html=1;rounded=0;entryX=1;entryY=0.21;entryDx=0;entryDy=0;entryPerimeter=0;exitX=0.117;exitY=0.019;exitDx=0;exitDy=0;exitPerimeter=0;" parent="1" target="6e5MkQeYMWrhU2s1_YXG-398" edge="1">
          <mxGeometry width="50" height="50" relative="1" as="geometry">
            <mxPoint x="961" y="3231" as="sourcePoint" />
            <mxPoint x="1760" y="3230" as="targetPoint" />
          </mxGeometry>
        </mxCell>
        <mxCell id="6e5MkQeYMWrhU2s1_YXG-486" value="[true]" style="text;html=1;align=center;verticalAlign=middle;whiteSpace=wrap;rounded=0;" parent="1" vertex="1">
          <mxGeometry x="963" y="3190" width="30" height="10" as="geometry" />
        </mxCell>
        <mxCell id="6e5MkQeYMWrhU2s1_YXG-487" value="[false]" style="text;html=1;align=center;verticalAlign=middle;whiteSpace=wrap;rounded=0;" parent="1" vertex="1">
          <mxGeometry x="965" y="3234" width="30" height="10" as="geometry" />
        </mxCell>
      </root>
    </mxGraphModel>
  </diagram>
</mxfile>
